<svg viewBox="0 0 100 100" xmlns="http://www.w3.org/2000/svg">
  <g fill="none" stroke="black" stroke-width="0.2">
    <path d="M3.75 3.75 L-3.75 3.75 L-3.75 3.75 L3.75 3.75 L3.75 3.75" />
    <path d="M3.75 -3.75 L-3.75 -3.75 L-3.75 -3.75 L3.75 -3.75 L3.75 -3.75" />
    <path d="M-3.75 -3.75 L-3.75 3.75" />
    <path d="M3.75 -3.75 L3.75 3.75" />
    <path d="M3.75 -3.75 L3.75 3.75" />
    <path d="M-3.75 -3.75 L-3.75 3.75" />
    <path d="M18.750015258789062 3.749067783355713 L11.251835823059082 3.631277322769165 L11.134045600891113 3.749082088470459 L18.632225036621094 3.866872549057007 L18.750015258789062 3.749067783355713" />
    <path d="M18.865955352783203 -3.749082088470459 L11.367775917053223 -3.866872549057007 L11.249985694885254 -3.749067783355713 L18.748165130615234 -3.631277322769165 L18.865955352783203 -3.749082088470459" />
    <path d="M11.249985694885254 -3.749067783355713 L11.134045600891113 3.749082088470459" />
    <path d="M18.748165130615234 -3.631277322769165 L18.632225036621094 3.866872549057007" />
    <path d="M18.865955352783203 -3.749082088470459 L18.750015258789062 3.749067783355713" />
    <path d="M11.367775917053223 -3.866872549057007 L11.251835823059082 3.631277322769165" />
    <path d="M33.75011444091797 3.746242046356201 L26.257282257080078 3.510777711868286 L26.021818161010742 3.7463583946228027 L33.5146484375 3.9818227291107178 L33.75011444091797 3.746242046356201" />
    <path d="M33.97818374633789 -3.7463583946228027 L26.485349655151367 -3.9818227291107178 L26.24988555908203 -3.746242046356201 L33.74271774291992 -3.510777711868286 L33.97818374633789 -3.7463583946228027" />
    <path d="M26.24988555908203 -3.746242046356201 L26.021818161010742 3.7463583946228027" />
    <path d="M33.74271774291992 -3.510777711868286 L33.5146484375 3.9818227291107178" />
    <path d="M33.97818374633789 -3.7463583946228027 L33.75011444091797 3.746242046356201" />
    <path d="M26.485349655151367 -3.9818227291107178 L26.257282257080078 3.510777711868286" />
    <path d="M48.75038146972656 3.741482734680176 L41.26624298095703 3.3885765075683594 L40.913333892822266 3.7418746948242188 L48.39747619628906 4.094780921936035 L48.75038146972656 3.741482734680176" />
    <path d="M49.086666107177734 -3.7418746948242188 L41.60252380371094 -4.094780921936035 L41.24961853027344 -3.741482734680176 L48.73375701904297 -3.3885765075683594 L49.086666107177734 -3.7418746948242188" />
    <path d="M41.24961853027344 -3.741482734680176 L40.913333892822266 3.7418746948242188" />
    <path d="M48.73375701904297 -3.3885765075683594 L48.39747619628906 4.094780921936035" />
    <path d="M49.086666107177734 -3.7418746948242188 L48.75038146972656 3.741482734680176" />
    <path d="M41.60252380371094 -4.094780921936035 L41.26624298095703 3.3885765075683594" />
    <path d="M63.75090026855469 3.734750270843506 L56.27861404418945 3.2647507190704346 L55.80861282348633 3.7356796264648438 L63.28089904785156 4.205679416656494 L63.75090026855469 3.734750270843506" />
    <path d="M64.19139099121094 -3.7356796264648438 L56.71910095214844 -4.205679416656494 L56.24909973144531 -3.734750270843506 L63.72138595581055 -3.2647507190704346 L64.19139099121094 -3.7356796264648438" />
    <path d="M56.24909973144531 -3.734750270843506 L55.80861282348633 3.7356796264648438" />
    <path d="M63.72138595581055 -3.2647507190704346 L63.28089904785156 4.205679416656494" />
    <path d="M64.19139099121094 -3.7356796264648438 L63.75090026855469 3.734750270843506" />
    <path d="M56.71910095214844 -4.205679416656494 L56.27861404418945 3.2647507190704346" />
    <path d="M78.75173950195312 3.726008653640747 L71.2942886352539 3.1393792629241943 L70.70765686035156 3.7278225421905518 L78.16510772705078 4.314451694488525 L78.75173950195312 3.726008653640747" />
    <path d="M79.29234313964844 -3.7278225421905518 L71.83489227294922 -4.314451694488525 L71.24826049804688 -3.726008653640747 L78.7057113647461 -3.1393792629241943 L79.29234313964844 -3.7278225421905518" />
    <path d="M71.24826049804688 -3.726008653640747 L70.70765686035156 3.7278225421905518" />
    <path d="M78.7057113647461 -3.1393792629241943 L78.16510772705078 4.314451694488525" />
    <path d="M79.29234313964844 -3.7278225421905518 L78.75173950195312 3.726008653640747" />
    <path d="M71.83489227294922 -4.314451694488525 L71.2942886352539 3.1393792629241943" />
    <path d="M93.75297546386719 3.7152225971221924 L86.31314849853516 3.012542724609375 L85.6104736328125 3.7183549404144287 L93.05030059814453 4.421034812927246 L93.75297546386719 3.7152225971221924" />
    <path d="M94.3895263671875 -3.7183549404144287 L86.94969940185547 -4.421034812927246 L86.24702453613281 -3.7152225971221924 L93.68685150146484 -3.012542724609375 L94.3895263671875 -3.7183549404144287" />
    <path d="M86.24702453613281 -3.7152225971221924 L85.6104736328125 3.7183549404144287" />
    <path d="M93.68685150146484 -3.012542724609375 L93.05030059814453 4.421034812927246" />
    <path d="M94.3895263671875 -3.7183549404144287 L93.75297546386719 3.7152225971221924" />
    <path d="M86.94969940185547 -4.421034812927246 L86.31314849853516 3.012542724609375" />
    <path d="M108.75468444824219 3.7023589611053467 L101.3350830078125 2.884321689605713 L100.51704406738281 3.707329034805298 L107.9366455078125 4.525366306304932 L108.75468444824219 3.7023589611053467" />
    <path d="M109.48295593261719 -3.707329034805298 L102.0633544921875 -4.525366306304932 L101.24531555175781 -3.7023589611053467 L108.6649169921875 -2.884321689605713 L109.48295593261719 -3.707329034805298" />
    <path d="M101.24531555175781 -3.7023589611053467 L100.51704406738281 3.707329034805298" />
    <path d="M108.6649169921875 -2.884321689605713 L107.9366455078125 4.525366306304932" />
    <path d="M109.48295593261719 -3.707329034805298 L108.75468444824219 3.7023589611053467" />
    <path d="M102.0633544921875 -4.525366306304932 L101.3350830078125 2.884321689605713" />
    <path d="M123.75691986083984 3.687387466430664 L116.3599624633789 2.754800319671631 L115.42737579345703 3.6947994232177734 L122.82433319091797 4.627386569976807 L123.75691986083984 3.687387466430664" />
    <path d="M124.57262420654297 -3.6947994232177734 L117.17566680908203 -4.627386569976807 L116.24308013916016 -3.687387466430664 L123.6400375366211 -2.754800319671631 L124.57262420654297 -3.6947994232177734" />
    <path d="M116.24308013916016 -3.687387466430664 L115.42737579345703 3.6947994232177734" />
    <path d="M123.6400375366211 -2.754800319671631 L122.82433319091797 4.627386569976807" />
    <path d="M124.57262420654297 -3.6947994232177734 L123.75691986083984 3.687387466430664" />
    <path d="M117.17566680908203 -4.627386569976807 L116.3599624633789 2.754800319671631" />
    <path d="M138.75975036621094 3.6702795028686523 L131.38766479492188 2.6240627765655518 L130.34144592285156 3.6808218955993652 L137.71353149414062 4.727038860321045 L138.75975036621094 3.6702795028686523" />
    <path d="M139.65855407714844 -3.6808218955993652 L132.28646850585938 -4.727038860321045 L131.24024963378906 -3.6702795028686523 L138.61233520507812 -2.6240627765655518 L139.65855407714844 -3.6808218955993652" />
    <path d="M131.24024963378906 -3.6702795028686523 L130.34144592285156 3.6808218955993652" />
    <path d="M138.61233520507812 -2.6240627765655518 L137.71353149414062 4.727038860321045" />
    <path d="M139.65855407714844 -3.6808218955993652 L138.75975036621094 3.6702795028686523" />
    <path d="M132.28646850585938 -4.727038860321045 L131.38766479492188 2.6240627765655518" />
    <path d="M3.76322603225708 18.65100860595703 L-3.5819473266601562 17.49219512939453 L-4.7407612800598145 18.66545295715332 L2.604412078857422 19.82426643371582 L3.76322603225708 18.65100860595703" />
    <path d="M4.7407612800598145 11.33454704284668 L-2.604412078857422 10.17573356628418 L-3.76322603225708 11.348991394042969 L3.5819473266601562 12.507804870605469 L4.7407612800598145 11.33454704284668" />
    <path d="M-3.76322603225708 11.348991394042969 L-4.7407612800598145 18.66545295715332" />
    <path d="M3.5819473266601562 12.507804870605469 L2.604412078857422 19.82426643371582" />
    <path d="M4.7407612800598145 11.33454704284668 L3.76322603225708 18.65100860595703" />
    <path d="M-2.604412078857422 10.17573356628418 L-3.5819473266601562 17.49219512939453" />
    <path d="M18.76740837097168 18.62955093383789 L11.45098876953125 17.359283447265625 L10.180721282958984 18.648752212524414 L17.497140884399414 19.91901969909668 L18.76740837097168 18.62955093383789" />
    <path d="M19.819278717041016 11.351247787475586 L12.502860069274902 10.080981254577637 L11.232592582702637 11.37044906616211 L18.54901123046875 12.640716552734375 L19.819278717041016 11.351247787475586" />
    <path d="M11.232592582702637 11.37044906616211 L10.180721282958984 18.648752212524414" />
    <path d="M18.54901123046875 12.640716552734375 L17.497140884399414 19.91901969909668" />
    <path d="M19.819278717041016 11.351247787475586 L18.76740837097168 18.62955093383789" />
    <path d="M12.502860069274902 10.080981254577637 L11.45098876953125 17.359283447265625" />
    <path d="M33.7723388671875 18.605884552001953 L26.4863338470459 17.225418090820312 L25.105865478515625 18.63077735900879 L32.39187240600586 20.01124382019043 L33.7723388671875 18.605884552001953" />
    <path d="M34.894134521484375 11.369222640991211 L27.60812759399414 9.988755226135254 L26.227659225463867 11.394115447998047 L33.513668060302734 12.774582862854004 L34.894134521484375 11.369222640991211" />
    <path d="M26.227659225463867 11.394115447998047 L25.105865478515625 18.63077735900879" />
    <path d="M33.513668060302734 12.774582862854004 L32.39187240600586 20.01124382019043" />
    <path d="M34.894134521484375 11.369222640991211 L33.7723388671875 18.605884552001953" />
    <path d="M27.60812759399414 9.988755226135254 L26.4863338470459 17.225418090820312" />
    <path d="M48.77806854248047 18.57999038696289 L41.52394485473633 17.09068489074707 L40.03464126586914 18.611589431762695 L47.28876495361328 20.100894927978516 L48.77806854248047 18.57999038696289" />
    <path d="M49.96535873413086 11.388409614562988 L42.71123504638672 9.899105072021484 L41.22193145751953 11.420010566711426 L48.47605514526367 12.90931510925293 L49.96535873413086 11.388409614562988" />
    <path d="M41.22193145751953 11.420010566711426 L40.03464126586914 18.611589431762695" />
    <path d="M48.47605514526367 12.90931510925293 L47.28876495361328 20.100894927978516" />
    <path d="M49.96535873413086 11.388409614562988 L48.77806854248047 18.57999038696289" />
    <path d="M42.71123504638672 9.899105072021484 L41.52394485473633 17.09068489074707" />
    <path d="M63.784629821777344 18.551849365234375 L56.56367492675781 16.955177307128906 L54.967002868652344 18.591251373291016 L62.187957763671875 20.187923431396484 L63.784629821777344 18.551849365234375" />
    <path d="M65.03299713134766 11.408748626708984 L57.812042236328125 9.812076568603516 L56.215370178222656 11.448150634765625 L63.43632507324219 13.044822692871094 L65.03299713134766 11.408748626708984" />
    <path d="M56.215370178222656 11.448150634765625 L54.967002868652344 18.591251373291016" />
    <path d="M63.43632507324219 13.044822692871094 L62.187957763671875 20.187923431396484" />
    <path d="M65.03299713134766 11.408748626708984 L63.784629821777344 18.551849365234375" />
    <path d="M57.812042236328125 9.812076568603516 L56.56367492675781 16.955177307128906" />
    <path d="M78.79206085205078 18.52145004272461 L71.6053695678711 16.818984985351562 L69.90290832519531 18.56982421875 L77.089599609375 20.272289276123047 L78.79206085205078 18.52145004272461" />
    <path d="M80.09709167480469 11.430174827575684 L72.910400390625 9.727710723876953 L71.20793914794922 11.478550910949707 L78.3946304321289 13.181015014648438 L80.09709167480469 11.430174827575684" />
    <path d="M71.20793914794922 11.478550910949707 L69.90290832519531 18.56982421875" />
    <path d="M78.3946304321289 13.181015014648438 L77.089599609375 20.272289276123047" />
    <path d="M80.09709167480469 11.430174827575684 L78.79206085205078 18.52145004272461" />
    <path d="M72.910400390625 9.727710723876953 L71.6053695678711 16.818984985351562" />
    <path d="M93.8003921508789 18.4887752532959 L86.64888763427734 16.682199478149414 L84.8423080444336 18.547374725341797 L91.99381256103516 20.35395050048828 L93.8003921508789 18.4887752532959" />
    <path d="M95.1576919555664 11.45262622833252 L88.00618743896484 9.646049499511719 L86.1996078491211 11.511223793029785 L93.35111236572266 13.317800521850586 L95.1576919555664 11.45262622833252" />
    <path d="M86.1996078491211 11.511223793029785 L84.8423080444336 18.547374725341797" />
    <path d="M93.35111236572266 13.317800521850586 L91.99381256103516 20.35395050048828" />
    <path d="M95.1576919555664 11.45262622833252 L93.8003921508789 18.4887752532959" />
    <path d="M88.00618743896484 9.646049499511719 L86.64888763427734 16.682199478149414" />
    <path d="M108.80964660644531 18.453819274902344 L101.69406127929688 16.54491424560547 L99.78515625 18.523962020874023 L106.90074157714844 20.4328670501709 L108.80964660644531 18.453819274902344" />
    <path d="M110.21484375 11.476037979125977 L103.09925842285156 9.567131996154785 L101.19035339355469 11.54617977142334 L108.30593872070312 13.455085754394531 L110.21484375 11.476037979125977" />
    <path d="M101.19035339355469 11.54617977142334 L99.78515625 18.523962020874023" />
    <path d="M108.30593872070312 13.455085754394531 L106.90074157714844 20.4328670501709" />
    <path d="M110.21484375 11.476037979125977 L108.80964660644531 18.453819274902344" />
    <path d="M103.09925842285156 9.567131996154785 L101.69406127929688 16.54491424560547" />
    <path d="M123.8198471069336 18.41657257080078 L116.7407455444336 16.407222747802734 L114.73139953613281 18.499656677246094 L121.81049346923828 20.50900650024414 L123.8198471069336 18.41657257080078" />
    <path d="M125.26860046386719 11.500343322753906 L118.18950653076172 9.49099349975586 L116.1801528930664 11.583426475524902 L123.2592544555664 13.592777252197266 L125.26860046386719 11.500343322753906" />
    <path d="M116.1801528930664 11.583426475524902 L114.73139953613281 18.499656677246094" />
    <path d="M123.2592544555664 13.592777252197266 L121.81049346923828 20.50900650024414" />
    <path d="M125.26860046386719 11.500343322753906 L123.8198471069336 18.41657257080078" />
    <path d="M118.18950653076172 9.49099349975586 L116.7407455444336 16.407222747802734" />
    <path d="M138.8310089111328 18.377031326293945 L131.7887725830078 16.26921844482422 L129.68096923828125 18.47452163696289 L136.7231903076172 20.582332611083984 L138.8310089111328 18.377031326293945" />
    <path d="M140.31903076171875 11.525479316711426 L133.2768096923828 9.4176664352417 L131.1689910888672 11.622968673706055 L138.2112274169922 13.730781555175781 L140.31903076171875 11.525479316711426" />
    <path d="M131.1689910888672 11.622968673706055 L129.68096923828125 18.47452163696289" />
    <path d="M138.2112274169922 13.730781555175781 L136.7231903076172 20.582332611083984" />
    <path d="M140.31903076171875 11.525479316711426 L138.8310089111328 18.377031326293945" />
    <path d="M133.2768096923828 9.4176664352417 L131.7887725830078 16.26921844482422" />
    <path d="M3.843130588531494 33.33518981933594 L-3.161996841430664 31.130996704101562 L-5.366191864013672 33.44862365722656 L1.6389358043670654 35.65281677246094 L3.843130588531494 33.33518981933594" />
    <path d="M5.366191864013672 26.551376342773438 L-1.6389358043670654 24.34718132019043 L-3.843130588531494 26.664810180664062 L3.161996841430664 28.869003295898438 L5.366191864013672 26.551376342773438" />
    <path d="M-3.843130588531494 26.664810180664062 L-5.366191864013672 33.44862365722656" />
    <path d="M3.161996841430664 28.869003295898438 L1.6389358043670654 35.65281677246094" />
    <path d="M5.366191864013672 26.551376342773438 L3.843130588531494 33.33518981933594" />
    <path d="M-1.6389358043670654 24.34718132019043 L-3.161996841430664 31.130996704101562" />
    <path d="M18.85623550415039 33.29104995727539 L11.888257026672363 30.99264907836914 L9.589856147766113 33.42203140258789 L16.55783462524414 35.72043228149414 L18.85623550415039 33.29104995727539" />
    <path d="M20.410144805908203 26.577970504760742 L13.442166328430176 24.27956771850586 L11.14376449584961 26.708948135375977 L18.11174201965332 29.00735092163086 L20.410144805908203 26.577970504760742" />
    <path d="M11.14376449584961 26.708948135375977 L9.589856147766113 33.42203140258789" />
    <path d="M18.11174201965332 29.00735092163086 L16.55783462524414 35.72043228149414" />
    <path d="M20.410144805908203 26.577970504760742 L18.85623550415039 33.29104995727539" />
    <path d="M13.442166328430176 24.27956771850586 L11.888257026672363 30.99264907836914" />
    <path d="M33.87031555175781 33.24461364746094 L26.939382553100586 30.85427474975586 L24.549041748046875 33.39480972290039 L31.479976654052734 35.78514862060547 L33.87031555175781 33.24461364746094" />
    <path d="M35.450958251953125 26.60519027709961 L28.520023345947266 24.2148494720459 L26.129682540893555 26.75538444519043 L33.06061935424805 29.14572525024414 L35.450958251953125 26.60519027709961" />
    <path d="M26.129682540893555 26.75538444519043 L24.549041748046875 33.39480972290039" />
    <path d="M33.06061935424805 29.14572525024414 L31.479976654052734 35.78514862060547" />
    <path d="M35.450958251953125 26.60519027709961 L33.87031555175781 33.24461364746094" />
    <path d="M28.520023345947266 24.2148494720459 L26.939382553100586 30.85427474975586" />
    <path d="M48.885372161865234 33.19588851928711 L41.99121856689453 30.715967178344727 L39.51129913330078 33.367027282714844 L46.405452728271484 35.846946716308594 L48.885372161865234 33.19588851928711" />
    <path d="M50.48870086669922 26.632970809936523 L43.594547271728516 24.153051376342773 L41.114627838134766 26.804113388061523 L48.00878143310547 29.284032821655273 L50.48870086669922 26.632970809936523" />
    <path d="M41.114627838134766 26.804113388061523 L39.51129913330078 33.367027282714844" />
    <path d="M48.00878143310547 29.284032821655273 L46.405452728271484 35.846946716308594" />
    <path d="M50.48870086669922 26.632970809936523 L48.885372161865234 33.19588851928711" />
    <path d="M43.594547271728516 24.153051376342773 L41.99121856689453 30.715967178344727" />
    <path d="M63.901390075683594 33.144874572753906 L57.04360580444336 30.577823638916016 L54.47655487060547 33.3387565612793 L61.33433532714844 35.90580749511719 L63.901390075683594 33.144874572753906" />
    <path d="M65.52344512939453 26.661243438720703 L58.66566467285156 24.09419059753418 L56.098609924316406 26.855125427246094 L62.95639419555664 29.422176361083984 L65.52344512939453 26.661243438720703" />
    <path d="M56.098609924316406 26.855125427246094 L54.47655487060547 33.3387565612793" />
    <path d="M62.95639419555664 29.422176361083984 L61.33433532714844 35.90580749511719" />
    <path d="M65.52344512939453 26.661243438720703 L63.901390075683594 33.144874572753906" />
    <path d="M58.66566467285156 24.09419059753418 L57.04360580444336 30.577823638916016" />
    <path d="M78.9183578491211 33.09158706665039 L72.09638214111328 30.439937591552734 L69.44473266601562 33.310062408447266 L76.26670837402344 35.96171188354492 L78.9183578491211 33.09158706665039" />
    <path d="M80.55526733398438 26.689937591552734 L73.73329162597656 24.038286209106445 L71.0816421508789 26.90841293334961 L77.90361785888672 29.560062408447266 L80.55526733398438 26.689937591552734" />
    <path d="M71.0816421508789 26.90841293334961 L69.44473266601562 33.310062408447266" />
    <path d="M77.90361785888672 29.560062408447266 L76.26670837402344 35.96171188354492" />
    <path d="M80.55526733398438 26.689937591552734 L78.9183578491211 33.09158706665039" />
    <path d="M73.73329162597656 24.038286209106445 L72.09638214111328 30.439937591552734" />
    <path d="M93.9362564086914 33.03603744506836 L87.14939880371094 30.302404403686523 L84.41576385498047 33.28101348876953 L91.20262145996094 36.014644622802734 L93.9362564086914 33.03603744506836" />
    <path d="M95.58423614501953 26.71898651123047 L88.79737854003906 23.985353469848633 L86.0637435913086 26.96396255493164 L92.85060119628906 29.697595596313477 L95.58423614501953 26.71898651123047" />
    <path d="M86.0637435913086 26.96396255493164 L84.41576385498047 33.28101348876953" />
    <path d="M92.85060119628906 29.697595596313477 L91.20262145996094 36.014644622802734" />
    <path d="M95.58423614501953 26.71898651123047 L93.9362564086914 33.03603744506836" />
    <path d="M88.79737854003906 23.985353469848633 L87.14939880371094 30.302404403686523" />
    <path d="M108.95506286621094 32.978240966796875 L102.2024917602539 30.16532325744629 L99.38957214355469 33.251678466796875 L106.14215087890625 36.064598083496094 L108.95506286621094 32.978240966796875" />
    <path d="M110.61042785644531 26.748319625854492 L103.85784912109375 23.93540382385254 L101.04493713378906 27.021760940551758 L107.7975082397461 29.83467674255371 L110.61042785644531 26.748319625854492" />
    <path d="M101.04493713378906 27.021760940551758 L99.38957214355469 33.251678466796875" />
    <path d="M107.7975082397461 29.83467674255371 L106.14215087890625 36.064598083496094" />
    <path d="M110.61042785644531 26.748319625854492 L108.95506286621094 32.978240966796875" />
    <path d="M103.85784912109375 23.93540382385254 L102.2024917602539 30.16532325744629" />
    <path d="M123.9747543334961 32.918209075927734 L117.25550079345703 30.028785705566406 L114.36607360839844 33.222129821777344 L121.08533477783203 36.11155319213867 L123.9747543334961 32.918209075927734" />
    <path d="M125.63392639160156 26.777870178222656 L118.91466522216797 23.888444900512695 L116.0252456665039 27.081790924072266 L122.74449920654297 29.971214294433594 L125.63392639160156 26.777870178222656" />
    <path d="M116.0252456665039 27.081790924072266 L114.36607360839844 33.222129821777344" />
    <path d="M122.74449920654297 29.971214294433594 L121.08533477783203 36.11155319213867" />
    <path d="M125.63392639160156 26.777870178222656 L123.9747543334961 32.918209075927734" />
    <path d="M118.91466522216797 23.888444900512695 L117.25550079345703 30.028785705566406" />
    <path d="M138.99530029296875 32.8559684753418 L132.3082733154297 29.89288902282715 L129.34519958496094 33.19243240356445 L136.03221130371094 36.155513763427734 L138.99530029296875 32.8559684753418" />
    <path d="M140.65480041503906 26.807567596435547 L133.96778869628906 23.844486236572266 L131.00469970703125 27.144031524658203 L137.6917266845703 30.10711097717285 L140.65480041503906 26.807567596435547" />
    <path d="M131.00469970703125 27.144031524658203 L129.34519958496094 33.19243240356445" />
    <path d="M137.6917266845703 30.10711097717285 L136.03221130371094 36.155513763427734" />
    <path d="M140.65480041503906 26.807567596435547 L138.99530029296875 32.8559684753418" />
    <path d="M133.96778869628906 23.844486236572266 L132.3082733154297 29.89288902282715" />
    <path d="M4.01664924621582 47.79153823852539 L-2.639326572418213 44.75772476196289 L-5.673140525817871 48.162654876708984 L0.9828354120254517 51.196468353271484 L4.01664924621582 47.79153823852539" />
    <path d="M5.673140525817871 41.837345123291016 L-0.9828354120254517 38.803531646728516 L-4.01664924621582 42.20846176147461 L2.639326572418213 45.24227523803711 L5.673140525817871 41.837345123291016" />
    <path d="M-4.01664924621582 42.20846176147461 L-5.673140525817871 48.162654876708984" />
    <path d="M2.639326572418213 45.24227523803711 L0.9828354120254517 51.196468353271484" />
    <path d="M5.673140525817871 41.837345123291016 L4.01664924621582 47.79153823852539" />
    <path d="M-0.9828354120254517 38.803531646728516 L-2.639326572418213 44.75772476196289" />
    <path d="M19.038774490356445 47.724945068359375 L12.4125337600708 44.62339401245117 L9.310981750488281 48.13286590576172 L15.937222480773926 51.23442077636719 L19.038774490356445 47.724945068359375" />
    <path d="M20.68901824951172 41.86713409423828 L14.062777519226074 38.76557922363281 L10.961225509643555 42.275054931640625 L17.587465286254883 45.37660598754883 L20.68901824951172 41.86713409423828" />
    <path d="M10.961225509643555 42.275054931640625 L9.310981750488281 48.13286590576172" />
    <path d="M17.587465286254883 45.37660598754883 L15.937222480773926 51.23442077636719" />
    <path d="M20.68901824951172 41.86713409423828 L19.038774490356445 47.724945068359375" />
    <path d="M14.062777519226074 38.76557922363281 L12.4125337600708 44.62339401245117" />
    <path d="M34.06163024902344 47.656211853027344 L27.463714599609375 44.48998260498047 L24.297483444213867 48.1031379699707 L30.89539909362793 51.26936721801758 L34.06163024902344 47.656211853027344" />
    <path d="M35.7025146484375 41.8968620300293 L29.10460090637207 38.73063278198242 L25.938371658325195 42.343788146972656 L32.536285400390625 45.51001739501953 L35.7025146484375 41.8968620300293" />
    <path d="M25.938371658325195 42.343788146972656 L24.297483444213867 48.1031379699707" />
    <path d="M32.536285400390625 45.51001739501953 L30.89539909362793 51.26936721801758" />
    <path d="M35.7025146484375 41.8968620300293 L34.06163024902344 47.656211853027344" />
    <path d="M29.10460090637207 38.73063278198242 L27.463714599609375 44.48998260498047" />
    <path d="M49.08516311645508 47.58537292480469 L42.51407241821289 44.35758972167969 L39.28628921508789 48.07353210449219 L45.85737991333008 51.30131530761719 L49.08516311645508 47.58537292480469" />
    <path d="M50.71371078491211 41.92646789550781 L44.14262008666992 38.69868469238281 L40.91483688354492 42.41462707519531 L47.48592758178711 45.64241027832031 L50.71371078491211 41.92646789550781" />
    <path d="M40.91483688354492 42.41462707519531 L39.28628921508789 48.07353210449219" />
    <path d="M47.48592758178711 45.64241027832031 L45.85737991333008 51.30131530761719" />
    <path d="M50.71371078491211 41.92646789550781 L49.08516311645508 47.58537292480469" />
    <path d="M44.14262008666992 38.69868469238281 L42.51407241821289 44.35758972167969" />
    <path d="M64.10932159423828 47.51245880126953 L57.5634651184082 44.2263069152832 L54.277313232421875 48.04411697387695 L60.82317352294922 51.33026885986328 L64.10932159423828 47.51245880126953" />
    <path d="M65.72268676757812 41.95588302612305 L59.17682647705078 38.66973114013672 L55.89067840576172 42.48754119873047 L62.4365348815918 45.7736930847168 L65.72268676757812 41.95588302612305" />
    <path d="M55.89067840576172 42.48754119873047 L54.277313232421875 48.04411697387695" />
    <path d="M62.4365348815918 45.7736930847168 L60.82317352294922 51.33026885986328" />
    <path d="M65.72268676757812 41.95588302612305 L64.10932159423828 47.51245880126953" />
    <path d="M59.17682647705078 38.66973114013672 L57.5634651184082 44.2263069152832" />
    <path d="M79.1340560913086 47.4375 L72.61175537109375 44.09622573852539 L69.2704849243164 48.01496505737305 L75.79277801513672 51.356239318847656 L79.1340560913086 47.4375" />
    <path d="M80.7295150756836 41.98503494262695 L74.20722198486328 38.643760681152344 L70.8659439086914 42.5625 L77.38824462890625 45.90377426147461 L80.7295150756836 41.98503494262695" />
    <path d="M70.8659439086914 42.5625 L69.2704849243164 48.01496505737305" />
    <path d="M77.38824462890625 45.90377426147461 L75.79277801513672 51.356239318847656" />
    <path d="M80.7295150756836 41.98503494262695 L79.1340560913086 47.4375" />
    <path d="M74.20722198486328 38.643760681152344 L72.61175537109375 44.09622573852539" />
    <path d="M94.1593017578125 47.36053466796875 L87.6588134765625 43.96743392944336 L84.26571655273438 47.98613739013672 L90.76619720458984 51.37923812866211 L94.1593017578125 47.36053466796875" />
    <path d="M95.73428344726562 42.01386260986328 L89.23380279541016 38.62076187133789 L85.8406982421875 42.63946533203125 L92.3411865234375 46.03256607055664 L95.73428344726562 42.01386260986328" />
    <path d="M85.8406982421875 42.63946533203125 L84.26571655273438 47.98613739013672" />
    <path d="M92.3411865234375 46.03256607055664 L90.76619720458984 51.37923812866211" />
    <path d="M95.73428344726562 42.01386260986328 L94.1593017578125 47.36053466796875" />
    <path d="M89.23380279541016 38.62076187133789 L87.6588134765625 43.96743392944336" />
    <path d="M109.18498992919922 47.28160858154297 L102.70451354980469 43.84002685546875 L99.26293182373047 47.957698822021484 L105.743408203125 51.39927673339844 L109.18498992919922 47.28160858154297" />
    <path d="M110.73706817626953 42.042301177978516 L104.256591796875 38.60072326660156 L100.81501007080078 42.71839141845703 L107.29548645019531 46.15997314453125 L110.73706817626953 42.042301177978516" />
    <path d="M100.81501007080078 42.71839141845703 L99.26293182373047 47.957698822021484" />
    <path d="M107.29548645019531 46.15997314453125 L105.743408203125 51.39927673339844" />
    <path d="M110.73706817626953 42.042301177978516 L109.18498992919922 47.28160858154297" />
    <path d="M104.256591796875 38.60072326660156 L102.70451354980469 43.84002685546875" />
    <path d="M124.21106719970703 47.20075225830078 L117.74872589111328 43.714088439941406 L114.2620620727539 47.92971420288086 L120.72440338134766 51.416378021240234 L124.21106719970703 47.20075225830078" />
    <path d="M125.7379379272461 42.07028579711914 L119.27559661865234 38.583621978759766 L115.78893280029297 42.79924774169922 L122.25127410888672 46.285911560058594 L125.7379379272461 42.07028579711914" />
    <path d="M115.78893280029297 42.79924774169922 L114.2620620727539 47.92971420288086" />
    <path d="M122.25127410888672 46.285911560058594 L120.72440338134766 51.416378021240234" />
    <path d="M125.7379379272461 42.07028579711914 L124.21106719970703 47.20075225830078" />
    <path d="M119.27559661865234 38.583621978759766 L117.74872589111328 43.714088439941406" />
    <path d="M139.23745727539062 47.11801528930664 L132.7913360595703 43.58971405029297 L129.26303100585938 47.902252197265625 L135.7091522216797 51.4305534362793 L139.23745727539062 47.11801528930664" />
    <path d="M140.73696899414062 42.097747802734375 L134.2908477783203 38.5694465637207 L130.76254272460938 42.88198471069336 L137.2086639404297 46.41028594970703 L140.73696899414062 42.097747802734375" />
    <path d="M130.76254272460938 42.88198471069336 L129.26303100585938 47.902252197265625" />
    <path d="M137.2086639404297 46.41028594970703 L135.7091522216797 51.4305534362793" />
    <path d="M140.73696899414062 42.097747802734375 L139.23745727539062 47.11801528930664" />
    <path d="M134.2908477783203 38.5694465637207 L132.7913360595703 43.58971405029297" />
    <path d="M4.264094352722168 62.033443450927734 L-2.1677803993225098 58.46697998046875 L-5.7342424392700195 62.875370025634766 L0.6976322531700134 66.44183349609375 L4.264094352722168 62.033443450927734" />
    <path d="M5.7342424392700195 57.124629974365234 L-0.6976322531700134 53.55816650390625 L-4.264094352722168 57.966556549072266 L2.1677803993225098 61.53302001953125 L5.7342424392700195 57.124629974365234" />
    <path d="M-4.264094352722168 57.966556549072266 L-5.7342424392700195 62.875370025634766" />
    <path d="M2.1677803993225098 61.53302001953125 L0.6976322531700134 66.44183349609375" />
    <path d="M5.7342424392700195 57.124629974365234 L4.264094352722168 62.033443450927734" />
    <path d="M-0.6976322531700134 53.55816650390625 L-2.1677803993225098 58.46697998046875" />
    <path d="M19.2908992767334 61.94708251953125 L12.871275901794434 58.34598159790039 L9.270174026489258 62.8491325378418 L15.689797401428223 66.45023345947266 L19.2908992767334 61.94708251953125" />
    <path d="M20.729825973510742 57.1508674621582 L14.310202598571777 53.549766540527344 L10.709101676940918 58.05291748046875 L17.128725051879883 61.65401840209961 L20.729825973510742 57.1508674621582" />
    <path d="M10.709101676940918 58.05291748046875 L9.270174026489258 62.8491325378418" />
    <path d="M17.128725051879883 61.65401840209961 L15.689797401428223 66.45023345947266" />
    <path d="M20.729825973510742 57.1508674621582 L19.2908992767334 61.94708251953125" />
    <path d="M14.310202598571777 53.549766540527344 L12.871275901794434 58.34598159790039" />
    <path d="M34.31779479980469 61.858985900878906 L27.908395767211914 58.22679901123047 L24.27621078491211 62.82360076904297 L30.685609817504883 66.4557876586914 L34.31779479980469 61.858985900878906" />
    <path d="M35.72378921508789 57.17639923095703 L29.314390182495117 53.544212341308594 L25.68220329284668 58.141014099121094 L32.09160232543945 61.77320098876953 L35.72378921508789 57.17639923095703" />
    <path d="M25.68220329284668 58.141014099121094 L24.27621078491211 62.82360076904297" />
    <path d="M32.09160232543945 61.77320098876953 L30.685609817504883 66.4557876586914" />
    <path d="M35.72378921508789 57.17639923095703 L34.31779479980469 61.858985900878906" />
    <path d="M29.314390182495117 53.544212341308594 L27.908395767211914 58.22679901123047" />
    <path d="M49.34471130371094 61.769203186035156 L42.943485260009766 58.10951614379883 L39.28379440307617 62.79883575439453 L45.685020446777344 66.4585189819336 L49.34471130371094 61.769203186035156" />
    <path d="M50.71620559692383 57.20116424560547 L44.314979553222656 53.54147720336914 L40.65528869628906 58.230796813964844 L47.056514739990234 61.89048385620117 L50.71620559692383 57.20116424560547" />
    <path d="M40.65528869628906 58.230796813964844 L39.28379440307617 62.79883575439453" />
    <path d="M47.056514739990234 61.89048385620117 L45.685020446777344 66.4585189819336" />
    <path d="M50.71620559692383 57.20116424560547 L49.34471130371094 61.769203186035156" />
    <path d="M44.314979553222656 53.54147720336914 L42.943485260009766 58.10951614379883" />
    <path d="M64.3715591430664 61.67778778076172 L57.976444244384766 57.99421310424805 L54.29286575317383 62.7748908996582 L60.68798065185547 66.45846557617188 L64.3715591430664 61.67778778076172" />
    <path d="M65.7071304321289 57.2251091003418 L59.31201934814453 53.54153060913086 L55.628440856933594 58.32221221923828 L62.023555755615234 62.00578689575195 L65.7071304321289 57.2251091003418" />
    <path d="M55.628440856933594 58.32221221923828 L54.29286575317383 62.7748908996582" />
    <path d="M62.023555755615234 62.00578689575195 L60.68798065185547 66.45846557617188" />
    <path d="M65.7071304321289 57.2251091003418 L64.3715591430664 61.67778778076172" />
    <path d="M59.31201934814453 53.54153060913086 L57.976444244384766 57.99421310424805" />
    <path d="M79.39826202392578 61.584800720214844 L73.00718688964844 57.8809700012207 L69.30335235595703 62.7518310546875 L75.69442749023438 66.45565795898438 L79.39826202392578 61.584800720214844" />
    <path d="M80.69664764404297 57.2481689453125 L74.30557250976562 53.54433822631836 L70.60173797607422 58.415199279785156 L76.99281311035156 62.1190299987793 L80.69664764404297 57.2481689453125" />
    <path d="M70.60173797607422 58.415199279785156 L69.30335235595703 62.7518310546875" />
    <path d="M76.99281311035156 62.1190299987793 L75.69442749023438 66.45565795898438" />
    <path d="M80.69664764404297 57.2481689453125 L79.39826202392578 61.584800720214844" />
    <path d="M74.30557250976562 53.54433822631836 L73.00718688964844 57.8809700012207" />
    <path d="M94.42473602294922 61.49029541015625 L88.03562927246094 57.769866943359375 L84.31520080566406 62.729705810546875 L90.70429992675781 66.45013427734375 L94.42473602294922 61.49029541015625" />
    <path d="M95.68479919433594 57.270294189453125 L89.29570007324219 53.54986572265625 L85.57526397705078 58.50970458984375 L91.96437072753906 62.230133056640625 L95.68479919433594 57.270294189453125" />
    <path d="M85.57526397705078 58.50970458984375 L84.31520080566406 62.729705810546875" />
    <path d="M91.96437072753906 62.230133056640625 L90.70429992675781 66.45013427734375" />
    <path d="M95.68479919433594 57.270294189453125 L94.42473602294922 61.49029541015625" />
    <path d="M89.29570007324219 53.54986572265625 L88.03562927246094 57.769866943359375" />
    <path d="M109.45089721679688 61.39433288574219 L103.06169891357422 57.66097640991211 L99.3283462524414 62.70857238769531 L105.71753692626953 66.44192504882812 L109.45089721679688 61.39433288574219" />
    <path d="M110.6716537475586 57.29142761230469 L104.28246307373047 53.55807113647461 L100.54910278320312 58.60566711425781 L106.93830108642578 62.33902359008789 L110.6716537475586 57.29142761230469" />
    <path d="M100.54910278320312 58.60566711425781 L99.3283462524414 62.70857238769531" />
    <path d="M106.93830108642578 62.33902359008789 L105.71753692626953 66.44192504882812" />
    <path d="M110.6716537475586 57.29142761230469 L109.45089721679688 61.39433288574219" />
    <path d="M104.28246307373047 53.55807113647461 L103.06169891357422 57.66097640991211" />
    <path d="M124.4766616821289 61.29698181152344 L118.0853271484375 57.55438232421875 L114.34272766113281 62.68848419189453 L120.73405456542969 66.43108367919922 L124.4766616821289 61.29698181152344" />
    <path d="M125.65727233886719 57.31151580810547 L119.26594543457031 53.56891632080078 L115.5233383178711 58.70301818847656 L121.9146728515625 62.44561767578125 L125.65727233886719 57.31151580810547" />
    <path d="M115.5233383178711 58.70301818847656 L114.34272766113281 62.68848419189453" />
    <path d="M121.9146728515625 62.44561767578125 L120.73405456542969 66.43108367919922" />
    <path d="M125.65727233886719 57.31151580810547 L124.4766616821289 61.29698181152344" />
    <path d="M119.26594543457031 53.56891632080078 L118.0853271484375 57.55438232421875" />
    <path d="M139.50193786621094 61.19829559326172 L133.1064453125 57.45014572143555 L129.35829162597656 62.66949462890625 L135.7537841796875 66.41764068603516 L139.50193786621094 61.19829559326172" />
    <path d="M140.64170837402344 57.33050537109375 L134.2462158203125 53.58235549926758 L130.49806213378906 58.80170440673828 L136.8935546875 62.54985427856445 L140.64170837402344 57.33050537109375" />
    <path d="M130.49806213378906 58.80170440673828 L129.35829162597656 62.66949462890625" />
    <path d="M136.8935546875 62.54985427856445 L135.7537841796875 66.41764068603516" />
    <path d="M140.64170837402344 57.33050537109375 L139.50193786621094 61.19829559326172" />
    <path d="M134.2462158203125 53.58235549926758 L133.1064453125 57.45014572143555" />
    <path d="M4.526650428771973 76.09835052490234 L-1.875 72.34835052490234 L-5.625 77.65164947509766 L0.7766504287719727 81.40164947509766 L4.526650428771973 76.09835052490234" />
    <path d="M5.625 72.34835052490234 L-0.7766504287719727 68.59835052490234 L-4.526650428771973 73.90164947509766 L1.875 77.65164947509766 L5.625 72.34835052490234" />
    <path d="M-4.526650428771973 73.90164947509766 L-5.625 77.65164947509766" />
    <path d="M1.875 77.65164947509766 L0.7766504287719727 81.40164947509766" />
    <path d="M5.625 72.34835052490234 L4.526650428771973 76.09835052490234" />
    <path d="M-0.7766504287719727 68.59835052490234 L-1.875 72.34835052490234" />
    <path d="M19.550708770751953 75.99720764160156 L13.140936851501465 72.24905395507812 L9.392786979675293 77.63500213623047 L15.802558898925781 81.3831558227539 L19.550708770751953 75.99720764160156" />
    <path d="M20.607213973999023 72.36499786376953 L14.197441101074219 68.6168441772461 L10.449291229248047 74.00279235839844 L16.85906410217285 77.75094604492188 L20.607213973999023 72.36499786376953" />
    <path d="M10.449291229248047 74.00279235839844 L9.392786979675293 77.63500213623047" />
    <path d="M16.85906410217285 77.75094604492188 L15.802558898925781 81.3831558227539" />
    <path d="M20.607213973999023 72.36499786376953 L19.550708770751953 75.99720764160156" />
    <path d="M14.197441101074219 68.6168441772461 L13.140936851501465 72.24905395507812" />
    <path d="M34.57402420043945 75.89493560791016 L28.154211044311523 72.15233612060547 L24.411611557006836 77.61959838867188 L30.8314266204834 81.36219787597656 L34.57402420043945 75.89493560791016" />
    <path d="M35.58838653564453 72.38040161132812 L29.1685733795166 68.63780212402344 L25.425973892211914 74.10506439208984 L31.845788955688477 77.84766387939453 L35.58838653564453 72.38040161132812" />
    <path d="M25.425973892211914 74.10506439208984 L24.411611557006836 77.61959838867188" />
    <path d="M31.845788955688477 77.84766387939453 L30.8314266204834 81.36219787597656" />
    <path d="M35.58838653564453 72.38040161132812 L34.57402420043945 75.89493560791016" />
    <path d="M29.1685733795166 68.63780212402344 L28.154211044311523 72.15233612060547" />
    <path d="M49.596519470214844 75.79161071777344 L43.16478729248047 72.0582504272461 L39.43143081665039 77.60548400878906 L45.863162994384766 81.3388442993164 L49.596519470214844 75.79161071777344" />
    <path d="M50.56856918334961 72.39451599121094 L44.136837005615234 68.6611557006836 L40.403480529785156 74.20838928222656 L46.83521270751953 77.9417495727539 L50.56856918334961 72.39451599121094" />
    <path d="M40.403480529785156 74.20838928222656 L39.43143081665039 77.60548400878906" />
    <path d="M46.83521270751953 77.9417495727539 L45.863162994384766 81.3388442993164" />
    <path d="M50.56856918334961 72.39451599121094 L49.596519470214844 75.79161071777344" />
    <path d="M44.136837005615234 68.6611557006836 L43.16478729248047 72.0582504272461" />
    <path d="M64.61810302734375 75.68730163574219 L58.17263412475586 71.96686553955078 L54.45220184326172 77.59270477294922 L60.89767074584961 81.3131332397461 L64.61810302734375 75.68730163574219" />
    <path d="M65.54779815673828 72.40729522705078 L59.10232925415039 68.6868667602539 L55.38189697265625 74.31269836425781 L61.82736587524414 78.03313446044922 L65.54779815673828 72.40729522705078" />
    <path d="M55.38189697265625 74.31269836425781 L54.45220184326172 77.59270477294922" />
    <path d="M61.82736587524414 78.03313446044922 L60.89767074584961 81.3131332397461" />
    <path d="M65.54779815673828 72.40729522705078 L64.61810302734375 75.68730163574219" />
    <path d="M59.10232925415039 68.6868667602539 L58.17263412475586 71.96686553955078" />
    <path d="M79.6386947631836 75.58207702636719 L73.17771911621094 71.87825012207031 L69.47389221191406 77.58129119873047 L75.93486022949219 81.28512573242188 L79.6386947631836 75.58207702636719" />
    <path d="M80.52610778808594 72.41870880126953 L74.06513977050781 68.71487426757812 L70.3613052368164 74.41792297363281 L76.82228088378906 78.12174987792969 L80.52610778808594 72.41870880126953" />
    <path d="M70.3613052368164 74.41792297363281 L69.47389221191406 77.58129119873047" />
    <path d="M76.82228088378906 78.12174987792969 L75.93486022949219 81.28512573242188" />
    <path d="M80.52610778808594 72.41870880126953 L79.6386947631836 75.58207702636719" />
    <path d="M74.06513977050781 68.71487426757812 L73.17771911621094 71.87825012207031" />
    <path d="M94.658203125 75.47602081298828 L88.18003845214844 71.79244995117188 L84.4964599609375 77.57129669189453 L90.9746322631836 81.25487518310547 L94.658203125 75.47602081298828" />
    <path d="M95.5035400390625 72.42870330810547 L89.0253677368164 68.74512481689453 L85.341796875 74.52397918701172 L91.81996154785156 78.20755004882812 L95.5035400390625 72.42870330810547" />
    <path d="M85.341796875 74.52397918701172 L84.4964599609375 77.57129669189453" />
    <path d="M91.81996154785156 78.20755004882812 L90.9746322631836 81.25487518310547" />
    <path d="M95.5035400390625 72.42870330810547 L94.658203125 75.47602081298828" />
    <path d="M89.0253677368164 68.74512481689453 L88.18003845214844 71.79244995117188" />
    <path d="M109.67656707763672 75.36920928955078 L103.1795654296875 71.70952606201172 L99.51988220214844 77.56275177001953 L106.01687622070312 81.22244262695312 L109.67656707763672 75.36920928955078" />
    <path d="M110.48011779785156 72.43724822998047 L103.98312377929688 68.77755737304688 L100.32343292236328 74.63079071044922 L106.8204345703125 78.29047393798828 L110.48011779785156 72.43724822998047" />
    <path d="M100.32343292236328 74.63079071044922 L99.51988220214844 77.56275177001953" />
    <path d="M106.8204345703125 78.29047393798828 L106.01687622070312 81.22244262695312" />
    <path d="M110.48011779785156 72.43724822998047 L109.67656707763672 75.36920928955078" />
    <path d="M103.98312377929688 68.77755737304688 L103.1795654296875 71.70952606201172" />
    <path d="M124.69368743896484 75.26171875 L118.17630767822266 71.62953186035156 L114.54412078857422 77.55569458007812 L121.0615005493164 81.18788146972656 L124.69368743896484 75.26171875" />
    <path d="M125.45587921142578 72.44430541992188 L118.9384994506836 68.81211853027344 L115.30631256103516 74.73828125 L121.82369232177734 78.37046813964844 L125.45587921142578 72.44430541992188" />
    <path d="M115.30631256103516 74.73828125 L114.54412078857422 77.55569458007812" />
    <path d="M121.82369232177734 78.37046813964844 L121.0615005493164 81.18788146972656" />
    <path d="M125.45587921142578 72.44430541992188 L124.69368743896484 75.26171875" />
    <path d="M118.9384994506836 68.81211853027344 L118.17630767822266 71.62953186035156" />
    <path d="M139.70948791503906 75.15362548828125 L133.17025756835938 71.55252075195312 L129.56915283203125 77.55015563964844 L136.1083984375 81.15126037597656 L139.70948791503906 75.15362548828125" />
    <path d="M140.43084716796875 72.44984436035156 L133.8916015625 68.84873962402344 L130.29051208496094 74.84637451171875 L136.82974243164062 78.44747924804688 L140.43084716796875 72.44984436035156" />
    <path d="M130.29051208496094 74.84637451171875 L129.56915283203125 77.55015563964844" />
    <path d="M136.82974243164062 78.44747924804688 L136.1083984375 81.15126037597656" />
    <path d="M140.43084716796875 72.44984436035156 L139.70948791503906 75.15362548828125" />
    <path d="M133.8916015625 68.84873962402344 L133.17025756835938 71.55252075195312" />
    <path d="M4.72391414642334 90.04501342773438 L-1.8385860919952393 86.47854614257812 L-5.40504789352417 92.54617309570312 L1.15745210647583 96.11264038085938 L4.72391414642334 90.04501342773438" />
    <path d="M5.40504789352417 87.45382690429688 L-1.15745210647583 83.88735961914062 L-4.72391414642334 89.95498657226562 L1.8385860919952393 93.52145385742188 L5.40504789352417 87.45382690429688" />
    <path d="M-4.72391414642334 89.95498657226562 L-5.40504789352417 92.54617309570312" />
    <path d="M1.8385860919952393 93.52145385742188 L1.15745210647583 96.11264038085938" />
    <path d="M5.40504789352417 87.45382690429688 L4.72391414642334 90.04501342773438" />
    <path d="M-1.15745210647583 83.88735961914062 L-1.8385860919952393 86.47854614257812" />
    <path d="M19.73687171936035 89.93595886230469 L13.149807929992676 86.40765380859375 L9.621505737304688 92.54377746582031 L16.208568572998047 96.07208251953125 L19.73687171936035 89.93595886230469" />
    <path d="M20.378494262695312 87.45622253417969 L13.791431427001953 83.92791748046875 L10.263129234313965 90.06404113769531 L16.850191116333008 93.59234619140625 L20.378494262695312 87.45622253417969" />
    <path d="M10.263129234313965 90.06404113769531 L9.621505737304688 92.54377746582031" />
    <path d="M16.850191116333008 93.59234619140625 L16.208568572998047 96.07208251953125" />
    <path d="M20.378494262695312 87.45622253417969 L19.73687171936035 89.93595886230469" />
    <path d="M13.791431427001953 83.92791748046875 L13.149807929992676 86.40765380859375" />
    <path d="M34.74829864501953 89.82654571533203 L28.135454177856445 86.33988189697266 L24.648792266845703 92.54298400878906 L31.261634826660156 96.02964782714844 L34.74829864501953 89.82654571533203" />
    <path d="M35.3512077331543 87.45701599121094 L28.738365173339844 83.97035217285156 L25.2517032623291 90.17345428466797 L31.864545822143555 93.66011810302734 L35.3512077331543 87.45701599121094" />
    <path d="M25.2517032623291 90.17345428466797 L24.648792266845703 92.54298400878906" />
    <path d="M31.864545822143555 93.66011810302734 L31.261634826660156 96.02964782714844" />
    <path d="M35.3512077331543 87.45701599121094 L34.74829864501953 89.82654571533203" />
    <path d="M28.738365173339844 83.97035217285156 L28.135454177856445 86.33988189697266" />
    <path d="M49.758121490478516 89.71685791015625 L43.118377685546875 86.27528381347656 L39.676795959472656 92.54383850097656 L46.3165397644043 95.98541259765625 L49.758121490478516 89.71685791015625" />
    <path d="M50.323204040527344 87.45616149902344 L43.6834602355957 84.01458740234375 L40.241878509521484 90.28314208984375 L46.881622314453125 93.72471618652344 L50.323204040527344 87.45616149902344" />
    <path d="M40.241878509521484 90.28314208984375 L39.676795959472656 92.54383850097656" />
    <path d="M46.881622314453125 93.72471618652344 L46.3165397644043 95.98541259765625" />
    <path d="M50.323204040527344 87.45616149902344 L49.758121490478516 89.71685791015625" />
    <path d="M43.6834602355957 84.01458740234375 L43.118377685546875 86.27528381347656" />
    <path d="M64.76628112792969 89.60698699951172 L58.098609924316406 86.21388244628906 L54.705509185791016 92.54634094238281 L61.3731803894043 95.93944549560547 L64.76628112792969 89.60698699951172" />
    <path d="M65.29449462890625 87.45365905761719 L58.6268196105957 84.06055450439453 L55.23371887207031 90.39301300048828 L61.901390075683594 93.78611755371094 L65.29449462890625 87.45365905761719" />
    <path d="M55.23371887207031 90.39301300048828 L54.705509185791016 92.54634094238281" />
    <path d="M61.901390075683594 93.78611755371094 L61.3731803894043 95.93944549560547" />
    <path d="M65.29449462890625 87.45365905761719 L64.76628112792969 89.60698699951172" />
    <path d="M58.6268196105957 84.06055450439453 L58.098609924316406 86.21388244628906" />
    <path d="M79.77271270751953 89.49700164794922 L73.07618713378906 86.15573120117188 L69.73491668701172 92.55052947998047 L76.43144226074219 95.89180755615234 L79.77271270751953 89.49700164794922" />
    <path d="M80.26508331298828 87.44947052001953 L73.56855773925781 84.10819244384766 L70.22728729248047 90.50299835205078 L76.92381286621094 93.84426879882812 L80.26508331298828 87.44947052001953" />
    <path d="M70.22728729248047 90.50299835205078 L69.73491668701172 92.55052947998047" />
    <path d="M76.92381286621094 93.84426879882812 L76.43144226074219 95.89180755615234" />
    <path d="M80.26508331298828 87.44947052001953 L79.77271270751953 89.49700164794922" />
    <path d="M73.56855773925781 84.10819244384766 L73.07618713378906 86.15573120117188" />
    <path d="M94.7773666381836 89.38700103759766 L88.05116271972656 86.1008529663086 L84.7650146484375 92.5564193725586 L91.49121856689453 95.84256744384766 L94.7773666381836 89.38700103759766" />
    <path d="M95.2349853515625 87.4435806274414 L88.50878143310547 84.15743255615234 L85.2226333618164 90.61299896240234 L91.94883728027344 93.8991470336914 L95.2349853515625 87.4435806274414" />
    <path d="M85.2226333618164 90.61299896240234 L84.7650146484375 92.5564193725586" />
    <path d="M91.94883728027344 93.8991470336914 L91.49121856689453 95.84256744384766" />
    <path d="M95.2349853515625 87.4435806274414 L94.7773666381836 89.38700103759766" />
    <path d="M88.50878143310547 84.15743255615234 L88.05116271972656 86.1008529663086" />
    <path d="M109.7801742553711 89.27706909179688 L103.02357482910156 86.04928588867188 L99.79579162597656 92.56402587890625 L106.5523910522461 95.79180908203125 L109.7801742553711 89.27706909179688" />
    <path d="M110.20420837402344 87.43597412109375 L103.4476089477539 84.20819091796875 L100.2198257446289 90.72293090820312 L106.97642517089844 93.95071411132812 L110.20420837402344 87.43597412109375" />
    <path d="M100.2198257446289 90.72293090820312 L99.79579162597656 92.56402587890625" />
    <path d="M106.97642517089844 93.95071411132812 L106.5523910522461 95.79180908203125" />
    <path d="M110.20420837402344 87.43597412109375 L109.7801742553711 89.27706909179688" />
    <path d="M103.4476089477539 84.20819091796875 L103.02357482910156 86.04928588867188" />
    <path d="M124.78109741210938 89.16728973388672 L117.99349212646484 86.00106048583984 L114.82726287841797 92.57335662841797 L121.6148681640625 95.73958587646484 L124.78109741210938 89.16728973388672" />
    <path d="M125.17273712158203 87.42664337158203 L118.3851318359375 84.26041412353516 L115.21890258789062 90.83271026611328 L122.00650787353516 93.99893951416016 L125.17273712158203 87.42664337158203" />
    <path d="M115.21890258789062 90.83271026611328 L114.82726287841797 92.57335662841797" />
    <path d="M122.00650787353516 93.99893951416016 L121.6148681640625 95.73958587646484" />
    <path d="M125.17273712158203 87.42664337158203 L124.78109741210938 89.16728973388672" />
    <path d="M118.3851318359375 84.26041412353516 L117.99349212646484 86.00106048583984" />
    <path d="M139.7800750732422 89.05774688720703 L132.96096801757812 85.9561996459961 L129.85940551757812 92.58444213867188 L136.67852783203125 95.68598937988281 L139.7800750732422 89.05774688720703" />
    <path d="M140.14059448242188 87.41555786132812 L133.32147216796875 84.31401062011719 L130.2199249267578 90.94225311279297 L137.03903198242188 94.0438003540039 L140.14059448242188 87.41555786132812" />
    <path d="M130.2199249267578 90.94225311279297 L129.85940551757812 92.58444213867188" />
    <path d="M137.03903198242188 94.0438003540039 L136.67852783203125 95.68598937988281" />
    <path d="M140.14059448242188 87.41555786132812 L139.7800750732422 89.05774688720703" />
    <path d="M133.32147216796875 84.31401062011719 L132.96096801757812 85.9561996459961" />
    <path d="M4.777089595794678 103.94853210449219 L-2.073941707611084 100.91471862792969 L-5.107755661010742 107.5972671508789 L1.7432758808135986 110.6310806274414 L4.777089595794678 103.94853210449219" />
    <path d="M5.107755661010742 102.4027328491211 L-1.7432758808135986 99.3689193725586 L-4.777089595794678 106.05146789550781 L2.073941707611084 109.08528137207031 L5.107755661010742 102.4027328491211" />
    <path d="M-4.777089595794678 106.05146789550781 L-5.107755661010742 107.5972671508789" />
    <path d="M2.073941707611084 109.08528137207031 L1.7432758808135986 110.6310806274414" />
    <path d="M5.107755661010742 102.4027328491211 L4.777089595794678 103.94853210449219" />
    <path d="M-1.7432758808135986 99.3689193725586 L-2.073941707611084 100.91471862792969" />
    <path d="M19.772079467773438 103.83973693847656 L12.888849258422852 100.87665557861328 L9.92576789855957 107.61186218261719 L16.808998107910156 110.57494354248047 L19.772079467773438 103.83973693847656" />
    <path d="M20.07423210144043 102.38813781738281 L13.191001892089844 99.42505645751953 L10.227920532226562 106.16026306152344 L17.11115074157715 109.12334442138672 L20.07423210144043 102.38813781738281" />
    <path d="M10.227920532226562 106.16026306152344 L9.92576789855957 107.61186218261719" />
    <path d="M17.11115074157715 109.12334442138672 L16.808998107910156 110.57494354248047" />
    <path d="M20.07423210144043 102.38813781738281 L19.772079467773438 103.83973693847656" />
    <path d="M13.191001892089844 99.42505645751953 L12.888849258422852 100.87665557861328" />
    <path d="M34.765018463134766 103.73143768310547 L27.84941291809082 100.8420181274414 L24.95998764038086 107.62821960449219 L31.875593185424805 110.51764678955078 L34.765018463134766 103.73143768310547" />
    <path d="M35.04001235961914 102.37178039550781 L28.124406814575195 99.48235321044922 L25.234981536865234 106.26856231689453 L32.15058898925781 109.1579818725586 L35.04001235961914 102.37178039550781" />
    <path d="M25.234981536865234 106.26856231689453 L24.95998764038086 107.62821960449219" />
    <path d="M32.15058898925781 109.1579818725586 L31.875593185424805 110.51764678955078" />
    <path d="M35.04001235961914 102.37178039550781 L34.765018463134766 103.73143768310547" />
    <path d="M28.124406814575195 99.48235321044922 L27.84941291809082 100.8420181274414" />
    <path d="M49.75587463378906 103.62373352050781 L42.80782699584961 100.81082153320312 L39.994911193847656 107.64634704589844 L46.94295883178711 110.45925903320312 L49.75587463378906 103.62373352050781" />
    <path d="M50.005088806152344 102.35365295410156 L43.05704116821289 99.54074096679688 L40.24412536621094 106.37626647949219 L47.19217300415039 109.18917846679688 L50.005088806152344 102.35365295410156" />
    <path d="M40.24412536621094 106.37626647949219 L39.994911193847656 107.64634704589844" />
    <path d="M47.19217300415039 109.18917846679688 L46.94295883178711 110.45925903320312" />
    <path d="M50.005088806152344 102.35365295410156 L49.75587463378906 103.62373352050781" />
    <path d="M43.05704116821289 99.54074096679688 L42.80782699584961 100.81082153320312" />
    <path d="M64.74462890625 103.51670837402344 L57.76417541503906 100.7830810546875 L55.03054428100586 107.6662368774414 L62.01099395751953 110.39987182617188 L64.74462890625 103.51670837402344" />
    <path d="M64.9694595336914 102.3337631225586 L57.98900604248047 99.60012817382812 L55.25537109375 106.48329162597656 L62.23582458496094 109.2169189453125 L64.9694595336914 102.3337631225586" />
    <path d="M55.25537109375 106.48329162597656 L55.03054428100586 107.6662368774414" />
    <path d="M62.23582458496094 109.2169189453125 L62.01099395751953 110.39987182617188" />
    <path d="M64.9694595336914 102.3337631225586 L64.74462890625 103.51670837402344" />
    <path d="M57.98900604248047 99.60012817382812 L57.76417541503906 100.7830810546875" />
    <path d="M79.73125457763672 103.41045379638672 L72.71855163574219 100.75880432128906 L70.06690216064453 107.68789672851562 L77.07960510253906 110.33954620361328 L79.73125457763672 103.41045379638672" />
    <path d="M79.93309783935547 102.31210327148438 L72.92039489746094 99.66045379638672 L70.26874542236328 106.58954620361328 L77.28144836425781 109.24119567871094 L79.93309783935547 102.31210327148438" />
    <path d="M70.26874542236328 106.58954620361328 L70.06690216064453 107.68789672851562" />
    <path d="M77.28144836425781 109.24119567871094 L77.07960510253906 110.33954620361328" />
    <path d="M79.93309783935547 102.31210327148438 L79.73125457763672 103.41045379638672" />
    <path d="M72.92039489746094 99.66045379638672 L72.71855163574219 100.75880432128906" />
    <path d="M94.71574401855469 103.30504608154297 L87.6710433959961 100.73799896240234 L85.10398864746094 107.71131896972656 L92.14868927001953 110.27837371826172 L94.71574401855469 103.30504608154297" />
    <path d="M94.89601135253906 102.28868103027344 L87.85131072998047 99.72162628173828 L85.28425598144531 106.69495391845703 L92.3289566040039 109.26200103759766 L94.89601135253906 102.28868103027344" />
    <path d="M85.28425598144531 106.69495391845703 L85.10398864746094 107.71131896972656" />
    <path d="M92.3289566040039 109.26200103759766 L92.14868927001953 110.27837371826172" />
    <path d="M94.89601135253906 102.28868103027344 L94.71574401855469 103.30504608154297" />
    <path d="M87.85131072998047 99.72162628173828 L87.6710433959961 100.73799896240234" />
    <path d="M109.69807434082031 103.2005844116211 L102.62174987792969 100.72066497802734 L100.14183044433594 107.73649597167969 L107.21815490722656 110.21641540527344 L109.69807434082031 103.2005844116211" />
    <path d="M109.85816955566406 102.26350402832031 L102.78184509277344 99.78358459472656 L100.30192565917969 106.7994155883789 L107.37825012207031 109.27933502197266 L109.85816955566406 102.26350402832031" />
    <path d="M100.30192565917969 106.7994155883789 L100.14183044433594 107.73649597167969" />
    <path d="M107.37825012207031 109.27933502197266 L107.21815490722656 110.21641540527344" />
    <path d="M109.85816955566406 102.26350402832031 L109.69807434082031 103.2005844116211" />
    <path d="M102.78184509277344 99.78358459472656 L102.62174987792969 100.72066497802734" />
    <path d="M124.67825317382812 103.09715270996094 L117.57077026367188 100.70681762695312 L115.18042755126953 107.76342010498047 L122.28791046142578 110.15376281738281 L124.67825317382812 103.09715270996094" />
    <path d="M124.81957244873047 102.23657989501953 L117.71208953857422 99.84623718261719 L115.32174682617188 106.90284729003906 L122.42922973632812 109.29318237304688 L124.81957244873047 102.23657989501953" />
    <path d="M115.32174682617188 106.90284729003906 L115.18042755126953 107.76342010498047" />
    <path d="M122.42922973632812 109.29318237304688 L122.28791046142578 110.15376281738281" />
    <path d="M124.81957244873047 102.23657989501953 L124.67825317382812 103.09715270996094" />
    <path d="M117.71208953857422 99.84623718261719 L117.57077026367188 100.70681762695312" />
    <path d="M139.65628051757812 102.99484252929688 L132.51820373535156 100.69644165039062 L130.2198028564453 107.79207611083984 L137.35787963867188 110.0904769897461 L139.65628051757812 102.99484252929688" />
    <path d="M139.7801971435547 102.20792388916016 L132.64212036132812 99.9095230102539 L130.34371948242188 107.00515747070312 L137.48179626464844 109.30355834960938 L139.7801971435547 102.20792388916016" />
    <path d="M130.34371948242188 107.00515747070312 L130.2198028564453 107.79207611083984" />
    <path d="M137.48179626464844 109.30355834960938 L137.35787963867188 110.0904769897461" />
    <path d="M139.7801971435547 102.20792388916016 L139.65628051757812 102.99484252929688" />
    <path d="M132.64212036132812 99.9095230102539 L132.51820373535156 100.69644165039062" />
    <path d="M4.632145404815674 117.89373016357422 L-2.5358314514160156 115.68953704833984 L-4.740026473999023 122.82245635986328 L2.427950620651245 125.02664947509766 L4.632145404815674 117.89373016357422" />
    <path d="M4.740026473999023 117.17754364013672 L-2.427950620651245 114.97335052490234 L-4.632145404815674 122.10626983642578 L2.5358314514160156 124.31046295166016 L4.740026473999023 117.17754364013672" />
    <path d="M-4.632145404815674 122.10626983642578 L-4.740026473999023 122.82245635986328" />
    <path d="M2.5358314514160156 124.31046295166016 L2.427950620651245 125.02664947509766" />
    <path d="M4.740026473999023 117.17754364013672 L4.632145404815674 117.89373016357422" />
    <path d="M-2.427950620651245 114.97335052490234 L-2.5358314514160156 115.68953704833984" />
    <path d="M19.605873107910156 117.79390716552734 L12.408759117126465 115.68609619140625 L10.300947189331055 122.85453796386719 L17.49806022644043 124.96235656738281 L19.605873107910156 117.79390716552734" />
    <path d="M19.699052810668945 117.14546203613281 L12.50193977355957 115.03764343261719 L10.394126892089844 122.20609283447266 L17.59123992919922 124.31390380859375 L19.699052810668945 117.14546203613281" />
    <path d="M10.394126892089844 122.20609283447266 L10.300947189331055 122.85453796386719" />
    <path d="M17.59123992919922 124.31390380859375 L17.49806022644043 124.96235656738281" />
    <path d="M19.699052810668945 117.14546203613281 L19.605873107910156 117.79390716552734" />
    <path d="M12.50193977355957 115.03764343261719 L12.408759117126465 115.68609619140625" />
    <path d="M34.57747268676758 117.6954574584961 L27.352092742919922 115.68611145019531 L25.342741012573242 122.88831329345703 L32.56812286376953 124.89765930175781 L34.57747268676758 117.6954574584961" />
    <path d="M34.657257080078125 117.11168670654297 L27.43187713623047 115.10234069824219 L25.42252540588379 122.3045425415039 L32.64790725708008 124.31388854980469 L34.657257080078125 117.11168670654297" />
    <path d="M25.42252540588379 122.3045425415039 L25.342741012573242 122.88831329345703" />
    <path d="M32.64790725708008 124.31388854980469 L32.56812286376953 124.89765930175781" />
    <path d="M34.657257080078125 117.11168670654297 L34.57747268676758 117.6954574584961" />
    <path d="M27.43187713623047 115.10234069824219 L27.352092742919922 115.68611145019531" />
    <path d="M49.54697036743164 117.59847259521484 L42.294281005859375 115.68956756591797 L40.3853759765625 122.92374420166016 L47.638065338134766 124.83264923095703 L49.54697036743164 117.59847259521484" />
    <path d="M49.6146240234375 117.07625579833984 L42.361934661865234 115.16735076904297 L40.45302963256836 122.40152740478516 L47.705718994140625 124.31043243408203 L49.6146240234375 117.07625579833984" />
    <path d="M40.45302963256836 122.40152740478516 L40.3853759765625 122.92374420166016" />
    <path d="M47.705718994140625 124.31043243408203 L47.638065338134766 124.83264923095703" />
    <path d="M49.6146240234375 117.07625579833984 L49.54697036743164 117.59847259521484" />
    <path d="M42.361934661865234 115.16735076904297 L42.294281005859375 115.68956756591797" />
    <path d="M64.5143814086914 117.5030288696289 L57.235435485839844 115.69644927978516 L55.42885971069336 122.96082305908203 L62.70780563354492 124.76740264892578 L64.5143814086914 117.5030288696289" />
    <path d="M64.57113647460938 117.03917694091797 L57.29219436645508 115.23259735107422 L55.485618591308594 122.4969711303711 L62.764564514160156 124.30355072021484 L64.57113647460938 117.03917694091797" />
    <path d="M55.485618591308594 122.4969711303711 L55.42885971069336 122.96082305908203" />
    <path d="M62.764564514160156 124.30355072021484 L62.70780563354492 124.76740264892578" />
    <path d="M64.57113647460938 117.03917694091797 L64.5143814086914 117.5030288696289" />
    <path d="M57.29219436645508 115.23259735107422 L57.235435485839844 115.69644927978516" />
    <path d="M79.47974395751953 117.40921020507812 L72.1756820678711 115.70674133300781 L70.47321319580078 122.99951934814453 L77.77728271484375 124.70198059082031 L79.47974395751953 117.40921020507812" />
    <path d="M79.52678680419922 117.00048065185547 L72.22271728515625 115.29801940917969 L70.52025604248047 122.59078979492188 L77.8243179321289 124.29325866699219 L79.52678680419922 117.00048065185547" />
    <path d="M70.52025604248047 122.59078979492188 L70.47321319580078 122.99951934814453" />
    <path d="M77.8243179321289 124.29325866699219 L77.77728271484375 124.70198059082031" />
    <path d="M79.52678680419922 117.00048065185547 L79.47974395751953 117.40921020507812" />
    <path d="M72.22271728515625 115.29801940917969 L72.1756820678711 115.70674133300781" />
    <path d="M94.4430923461914 117.31710052490234 L87.11512756347656 115.72042846679688 L85.5184555053711 123.03980255126953 L92.84642028808594 124.636474609375 L94.4430923461914 117.31710052490234" />
    <path d="M94.4815444946289 116.96019744873047 L87.15357971191406 115.363525390625 L85.5569076538086 122.68289947509766 L92.88487243652344 124.27957153320312 L94.4815444946289 116.96019744873047" />
    <path d="M85.5569076538086 122.68289947509766 L85.5184555053711 123.03980255126953" />
    <path d="M92.88487243652344 124.27957153320312 L92.84642028808594 124.636474609375" />
    <path d="M94.4815444946289 116.96019744873047 L94.4430923461914 117.31710052490234" />
    <path d="M87.15357971191406 115.363525390625 L87.11512756347656 115.72042846679688" />
    <path d="M109.40447235107422 117.22677612304688 L102.05389404296875 115.73747253417969 L100.56458282470703 123.0816421508789 L107.91516876220703 124.5709457397461 L109.40447235107422 117.22677612304688" />
    <path d="M109.43541717529297 116.9183578491211 L102.08483123779297 115.4290542602539 L100.59552764892578 122.77322387695312 L107.94610595703125 124.26252746582031 L109.43541717529297 116.9183578491211" />
    <path d="M100.59552764892578 122.77322387695312 L100.56458282470703 123.0816421508789" />
    <path d="M107.94610595703125 124.26252746582031 L107.91516876220703 124.5709457397461" />
    <path d="M109.43541717529297 116.9183578491211 L109.40447235107422 117.22677612304688" />
    <path d="M102.08483123779297 115.4290542602539 L102.05389404296875 115.73747253417969" />
    <path d="M124.3639144897461 117.1383285522461 L116.99209594726562 115.75785827636719 L115.61163330078125 123.12501525878906 L122.98345184326172 124.50547790527344 L124.3639144897461 117.1383285522461" />
    <path d="M124.38836669921875 116.87498474121094 L117.01654815673828 115.49452209472656 L115.6360855102539 122.8616714477539 L123.00790405273438 124.24214172363281 L124.38836669921875 116.87498474121094" />
    <path d="M115.6360855102539 122.8616714477539 L115.61163330078125 123.12501525878906" />
    <path d="M123.00790405273438 124.24214172363281 L122.98345184326172 124.50547790527344" />
    <path d="M124.38836669921875 116.87498474121094 L124.3639144897461 117.1383285522461" />
    <path d="M117.01654815673828 115.49452209472656 L116.99209594726562 115.75785827636719" />
    <path d="M139.3214874267578 117.05181884765625 L131.92987060546875 115.78155517578125 L130.6595916748047 123.16987609863281 L138.0512237548828 124.44013977050781 L139.3214874267578 117.05181884765625" />
    <path d="M139.3404083251953 116.83012390136719 L131.9487762451172 115.55986022949219 L130.6785125732422 122.94818115234375 L138.07012939453125 124.21844482421875 L139.3404083251953 116.83012390136719" />
    <path d="M130.6785125732422 122.94818115234375 L130.6595916748047 123.16987609863281" />
    <path d="M138.07012939453125 124.21844482421875 L138.0512237548828 124.44013977050781" />
    <path d="M139.3404083251953 116.83012390136719 L139.3214874267578 117.05181884765625" />
    <path d="M131.9487762451172 115.55986022949219 L131.92987060546875 115.78155517578125" />
    <path d="M4.277234077453613 131.96734619140625 L-3.132687568664551 130.80853271484375 L-4.291501045227051 138.2161865234375 L3.118420362472534 139.375 L4.277234077453613 131.96734619140625" />
    <path d="M4.291501045227051 131.7838134765625 L-3.118420362472534 130.625 L-4.277234077453613 138.03265380859375 L3.132687568664551 139.19146728515625 L4.291501045227051 131.7838134765625" />
    <path d="M-4.277234077453613 138.03265380859375 L-4.291501045227051 138.2161865234375" />
    <path d="M3.132687568664551 139.19146728515625 L3.118420362472534 139.375" />
    <path d="M4.291501045227051 131.7838134765625 L4.277234077453613 131.96734619140625" />
    <path d="M-3.118420362472534 130.625 L-3.132687568664551 130.80853271484375" />
    <path d="M19.231220245361328 131.8849639892578 L11.804557800292969 130.8387451171875 L10.758341789245605 138.26393127441406 L18.18500518798828 139.31015014648438 L19.231220245361328 131.8849639892578" />
    <path d="M19.24165916442871 131.73606872558594 L11.814995765686035 130.68984985351562 L10.768778800964355 138.1150360107422 L18.19544219970703 139.1612548828125 L19.24165916442871 131.73606872558594" />
    <path d="M10.768778800964355 138.1150360107422 L10.758341789245605 138.26393127441406" />
    <path d="M18.19544219970703 139.1612548828125 L18.18500518798828 139.31015014648438" />
    <path d="M19.24165916442871 131.73606872558594 L19.231220245361328 131.8849639892578" />
    <path d="M11.814995765686035 130.68984985351562 L11.804557800292969 130.8387451171875" />
    <path d="M34.183509826660156 131.8047637939453 L26.741722106933594 130.87217712402344 L25.80913543701172 138.31304931640625 L33.25092315673828 139.24563598632812 L34.183509826660156 131.8047637939453" />
    <path d="M34.19086456298828 131.68695068359375 L26.749074935913086 130.75436401367188 L25.81648826599121 138.1952362060547 L33.258277893066406 139.12782287597656 L34.19086456298828 131.68695068359375" />
    <path d="M25.81648826599121 138.1952362060547 L25.80913543701172 138.31304931640625" />
    <path d="M33.258277893066406 139.12782287597656 L33.25092315673828 139.24563598632812" />
    <path d="M34.19086456298828 131.68695068359375 L34.183509826660156 131.8047637939453" />
    <path d="M26.749074935913086 130.75436401367188 L26.741722106933594 130.87217712402344" />
    <path d="M49.13417434692383 131.72682189941406 L41.67892074584961 130.90878295898438 L40.86088562011719 138.36349487304688 L48.316139221191406 139.18153381347656 L49.13417434692383 131.72682189941406" />
    <path d="M49.13911437988281 131.63650512695312 L41.683860778808594 130.81846618652344 L40.86582565307617 138.27317810058594 L48.32107925415039 139.09121704101562 L49.13911437988281 131.63650512695312" />
    <path d="M40.86582565307617 138.27317810058594 L40.86088562011719 138.36349487304688" />
    <path d="M48.32107925415039 139.09121704101562 L48.316139221191406 139.18153381347656" />
    <path d="M49.13911437988281 131.63650512695312 L49.13417434692383 131.72682189941406" />
    <path d="M41.683860778808594 130.81846618652344 L41.67892074584961 130.90878295898438" />
    <path d="M64.08328247070312 131.6511993408203 L56.616275787353516 130.94851684570312 L55.913597106933594 138.41522216796875 L63.38060760498047 139.11790466308594 L64.08328247070312 131.6511993408203" />
    <path d="M64.0864028930664 131.58477783203125 L56.61939239501953 130.88209533691406 L55.91671371459961 138.3488006591797 L63.383724212646484 139.05148315429688 L64.0864028930664 131.58477783203125" />
    <path d="M55.91671371459961 138.3488006591797 L55.913597106933594 138.41522216796875" />
    <path d="M63.383724212646484 139.05148315429688 L63.38060760498047 139.11790466308594" />
    <path d="M64.0864028930664 131.58477783203125 L64.08328247070312 131.6511993408203" />
    <path d="M56.61939239501953 130.88209533691406 L56.616275787353516 130.94851684570312" />
    <path d="M79.03092193603516 131.5779571533203 L71.55390167236328 130.9913330078125 L70.96726989746094 138.4682159423828 L78.44429016113281 139.05484008789062 L79.03092193603516 131.5779571533203" />
    <path d="M79.03273010253906 131.5317840576172 L71.55570983886719 130.94515991210938 L70.96907806396484 138.4220428466797 L78.44609832763672 139.0086669921875 L79.03273010253906 131.5317840576172" />
    <path d="M70.96907806396484 138.4220428466797 L70.96726989746094 138.4682159423828" />
    <path d="M78.44609832763672 139.0086669921875 L78.44429016113281 139.05484008789062" />
    <path d="M79.03273010253906 131.5317840576172 L79.03092193603516 131.5779571533203" />
    <path d="M71.55570983886719 130.94515991210938 L71.55390167236328 130.9913330078125" />
    <path d="M93.97716522216797 131.50718688964844 L86.49190521240234 131.0371856689453 L86.02190399169922 138.5223846435547 L93.50716400146484 138.9923858642578 L93.97716522216797 131.50718688964844" />
    <path d="M93.97809600830078 131.4776153564453 L86.49283599853516 131.0076141357422 L86.02283477783203 138.49281311035156 L93.50809478759766 138.9628143310547 L93.97809600830078 131.4776153564453" />
    <path d="M86.02283477783203 138.49281311035156 L86.02190399169922 138.5223846435547" />
    <path d="M93.50809478759766 138.9628143310547 L93.50716400146484 138.9923858642578" />
    <path d="M93.97809600830078 131.4776153564453 L93.97716522216797 131.50718688964844" />
    <path d="M86.49283599853516 131.0076141357422 L86.49190521240234 131.0371856689453" />
    <path d="M108.92210388183594 131.43893432617188 L101.43041229248047 131.08602905273438 L101.07750701904297 138.57769775390625 L108.56919860839844 138.9306182861328 L108.92210388183594 131.43893432617188" />
    <path d="M108.92249298095703 131.42230224609375 L101.43080139160156 131.0693817138672 L101.07789611816406 138.56106567382812 L108.56958770751953 138.91397094726562 L108.92249298095703 131.42230224609375" />
    <path d="M101.07789611816406 138.56106567382812 L101.07750701904297 138.57769775390625" />
    <path d="M108.56958770751953 138.91397094726562 L108.56919860839844 138.9306182861328" />
    <path d="M108.92249298095703 131.42230224609375 L108.92210388183594 131.43893432617188" />
    <path d="M101.43080139160156 131.0693817138672 L101.43041229248047 131.08602905273438" />
    <path d="M123.86582946777344 131.37327575683594 L116.36952209472656 131.1378173828125 L116.1340560913086 138.63412475585938 L123.63036346435547 138.8695831298828 L123.86582946777344 131.37327575683594" />
    <path d="M123.8659439086914 131.36587524414062 L116.36963653564453 131.1304168701172 L116.13417053222656 138.62672424316406 L123.63047790527344 138.8621826171875 L123.8659439086914 131.36587524414062" />
    <path d="M116.13417053222656 138.62672424316406 L116.1340560913086 138.63412475585938" />
    <path d="M123.63047790527344 138.8621826171875 L123.63036346435547 138.8695831298828" />
    <path d="M123.8659439086914 131.36587524414062 L123.86582946777344 131.37327575683594" />
    <path d="M116.36963653564453 131.1304168701172 L116.36952209472656 131.1378173828125" />
    <path d="M138.8084259033203 131.31028747558594 L131.30935668945312 131.19248962402344 L131.19155883789062 138.6915740966797 L138.6906280517578 138.80935668945312 L138.8084259033203 131.31028747558594" />
    <path d="M138.80844116210938 131.3084259033203 L131.3093719482422 131.19064331054688 L131.1915740966797 138.68971252441406 L138.69064331054688 138.80751037597656 L138.80844116210938 131.3084259033203" />
    <path d="M131.1915740966797 138.68971252441406 L131.19155883789062 138.6915740966797" />
    <path d="M138.69064331054688 138.80751037597656 L138.6906280517578 138.80935668945312" />
    <path d="M138.80844116210938 131.3084259033203 L138.8084259033203 131.31028747558594" />
    <path d="M131.3093719482422 131.19064331054688 L131.30935668945312 131.19248962402344" />
  </g>
</svg>