<svg viewBox="0 0 100 100" xmlns="http://www.w3.org/2000/svg">
  <g fill="none" stroke="black" stroke-width="0.2">
    <path d="M62.28853135902086 80.0539995437635 L69.83177391096339 77.15964791870134 L65.13248632375652 74.76497093166218" />
    <path d="M77.54831722388853 71.33883476483184 L72.95192032806634 70.12776172657817 L69.83177391096339 77.15964791870134" />
    <path d="M67.08641395123877 67.40091721708106 L65.13248632375652 74.76497093166218 L72.95192032806634 70.12776172657817" />
    <path d="M69.83177391096339 77.15964791870134 L72.95192032806634 70.12776172657817 L65.13248632375652 74.76497093166218" />
    <path d="M85.85570509325692 54.8869142557514 L83.81807497612718 54.609197679227506 L83.2158238884164 63.19074407570495" />
    <path d="M79.24203622430151 53.98551146379806 L79.82489211607202 62.83459005199776 L83.81807497612718 54.609197679227506" />
    <path d="M77.54831722388853 71.33883476483184 L83.2158238884164 63.19074407570495 L79.82489211607202 62.83459005199776" />
    <path d="M83.81807497612718 54.609197679227506 L79.82489211607202 62.83459005199776 L83.2158238884164 63.19074407570495" />
    <path d="M67.04901306329647 52.32367665811665 L67.62063930339744 59.35280117205726 L73.07147868230254 53.14450204731889" />
    <path d="M67.08641395123877 67.40091721708106 L74.03012842757943 61.37180138382356 L67.62063930339744 59.35280117205726" />
    <path d="M79.24203622430151 53.98551146379806 L73.07147868230254 53.14450204731889 L74.03012842757943 61.37180138382356" />
    <path d="M67.62063930339744 59.35280117205726 L74.03012842757943 61.37180138382356 L73.07147868230254 53.14450204731889" />
    <path d="M77.54831722388853 71.33883476483184 L79.82489211607202 62.83459005199776 L72.95192032806634 70.12776172657817" />
    <path d="M79.24203622430151 53.98551146379806 L74.03012842757943 61.37180138382356 L79.82489211607202 62.83459005199776" />
    <path d="M67.08641395123877 67.40091721708106 L72.95192032806634 70.12776172657817 L74.03012842757943 61.37180138382356" />
    <path d="M79.82489211607202 62.83459005199776 L74.03012842757943 61.37180138382356 L72.95192032806634 70.12776172657817" />
    <path d="M62.28853135902086 80.0539995437635 L65.13248632375652 74.76497093166218 L56.55364874343547 78.27270089206932" />
    <path d="M67.08641395123877 67.40091721708106 L58.91730166898555 71.8089999904307 L65.13248632375652 74.76497093166218" />
    <path d="M50 74.3872397312364 L56.55364874343547 78.27270089206932 L58.91730166898555 71.8089999904307" />
    <path d="M65.13248632375652 74.76497093166218 L58.91730166898555 71.8089999904307 L56.55364874343547 78.27270089206932" />
    <path d="M67.04901306329647 52.32367665811665 L61.14681979362277 55.647241897421786 L67.62063930339744 59.35280117205726" />
    <path d="M53.706321910751306 59.064532917759166 L60.53686954775819 63.603040093209174 L61.14681979362277 55.647241897421786" />
    <path d="M67.08641395123877 67.40091721708106 L67.62063930339744 59.35280117205726 L60.53686954775819 63.603040093209174" />
    <path d="M61.14681979362277 55.647241897421786 L60.53686954775819 63.603040093209174 L67.62063930339744 59.35280117205726" />
    <path d="M39.46313045224181 63.603040093209174 L43.98007092975671 69.0189976921422 L46.00308289110828 61.83923925698544" />
    <path d="M50 74.3872397312364 L52.012363016109944 67.08855508038415 L43.98007092975671 69.0189976921422" />
    <path d="M53.706321910751306 59.064532917759166 L46.00308289110828 61.83923925698544 L52.012363016109944 67.08855508038415" />
    <path d="M43.98007092975671 69.0189976921422 L52.012363016109944 67.08855508038415 L46.00308289110828 61.83923925698544" />
    <path d="M67.08641395123877 67.40091721708106 L60.53686954775819 63.603040093209174 L58.91730166898555 71.8089999904307" />
    <path d="M53.706321910751306 59.064532917759166 L52.012363016109944 67.08855508038415 L60.53686954775819 63.603040093209174" />
    <path d="M50 74.3872397312364 L58.91730166898555 71.8089999904307 L52.012363016109944 67.08855508038415" />
    <path d="M60.53686954775819 63.603040093209174 L52.012363016109944 67.08855508038415 L58.91730166898555 71.8089999904307" />
    <path d="M62.28853135902086 80.0539995437635 L56.55364874343547 78.27270089206932 L54.87836804523258 83.2738223944686" />
    <path d="M50 74.3872397312364 L47.725318755182684 80.44245824670351 L56.55364874343547 78.27270089206932" />
    <path d="M45.29418561844135 84.5269599298158 L54.87836804523258 83.2738223944686 L47.725318755182684 80.44245824670351" />
    <path d="M56.55364874343547 78.27270089206932 L47.725318755182684 80.44245824670351 L54.87836804523258 83.2738223944686" />
    <path d="M39.46313045224181 63.603040093209174 L35.7410420036184 68.40823561808568 L43.98007092975671 69.0189976921422" />
    <path d="M31.92742771312602 73.33159049673088 L40.82130769468972 74.95028149186959 L35.7410420036184 68.40823561808568" />
    <path d="M50 74.3872397312364 L43.98007092975671 69.0189976921422 L40.82130769468972 74.95028149186959" />
    <path d="M35.7410420036184 68.40823561808568 L40.82130769468972 74.95028149186959 L43.98007092975671 69.0189976921422" />
    <path d="M27.839955561774513 78.60849435348787 L35.54148431462295 82.68391056824052 L29.09928023066112 76.98271319679921" />
    <path d="M45.29418561844135 84.5269599298158 L37.71146864097914 80.0539995437635 L35.54148431462295 82.68391056824052" />
    <path d="M31.92742771312602 73.33159049673088 L29.09928023066112 76.98271319679921 L37.71146864097914 80.0539995437635" />
    <path d="M35.54148431462295 82.68391056824052 L37.71146864097914 80.0539995437635 L29.09928023066112 76.98271319679921" />
    <path d="M50 74.3872397312364 L40.82130769468972 74.95028149186959 L47.725318755182684 80.44245824670351" />
    <path d="M31.92742771312602 73.33159049673088 L37.71146864097914 80.0539995437635 L40.82130769468972 74.95028149186959" />
    <path d="M45.29418561844135 84.5269599298158 L47.725318755182684 80.44245824670351 L37.71146864097914 80.0539995437635" />
    <path d="M40.82130769468972 74.95028149186959 L37.71146864097914 80.0539995437635 L47.725318755182684 80.44245824670351" />
    <path d="M62.28853135902086 80.0539995437635 L54.87836804523258 83.2738223944686 L63.41223001231107 82.8022237071433" />
    <path d="M45.29418561844135 84.5269599298158 L54.23219189159703 85.93886573711498 L54.87836804523258 83.2738223944686" />
    <path d="M63.7347377927498 83.5909793690679 L63.41223001231107 82.8022237071433 L54.23219189159703 85.93886573711498" />
    <path d="M54.87836804523258 83.2738223944686 L54.23219189159703 85.93886573711498 L63.41223001231107 82.8022237071433" />
    <path d="M27.839955561774513 78.60849435348787 L32.686871778568445 81.78984820733262 L35.54148431462295 82.68391056824052" />
    <path d="M40.86299886306804 82.89681800984621 L42.900972200825315 85.69166766214335 L32.686871778568445 81.78984820733262" />
    <path d="M45.29418561844135 84.5269599298158 L35.54148431462295 82.68391056824052 L42.900972200825315 85.69166766214335" />
    <path d="M32.686871778568445 81.78984820733262 L42.900972200825315 85.69166766214335 L35.54148431462295 82.68391056824052" />
    <path d="M60.389278886206235 75.4090072917349 L62.62998283393939 80.8890857043148 L51.084784318993215 80.43616831885684" />
    <path d="M63.7347377927498 83.5909793690679 L52.88268626131135 85.25085669357301 L62.62998283393939 80.8890857043148" />
    <path d="M40.86299886306804 82.89681800984621 L51.084784318993215 80.43616831885684 L52.88268626131135 85.25085669357301" />
    <path d="M62.62998283393939 80.8890857043148 L52.88268626131135 85.25085669357301 L51.084784318993215 80.43616831885684" />
    <path d="M45.29418561844135 84.5269599298158 L42.900972200825315 85.69166766214335 L54.23219189159703 85.93886573711498" />
    <path d="M40.86299886306804 82.89681800984621 L52.88268626131135 85.25085669357301 L42.900972200825315 85.69166766214335" />
    <path d="M63.7347377927498 83.5909793690679 L54.23219189159703 85.93886573711498 L52.88268626131135 85.25085669357301" />
    <path d="M42.900972200825315 85.69166766214335 L52.88268626131135 85.25085669357301 L54.23219189159703 85.93886573711498" />
    <path d="M62.28853135902086 80.0539995437635 L63.41223001231107 82.8022237071433 L69.83177391096339 77.15964791870134" />
    <path d="M63.7347377927498 83.5909793690679 L72.16004443822548 78.60849435348787 L63.41223001231107 82.8022237071433" />
    <path d="M77.54831722388853 71.33883476483184 L69.83177391096339 77.15964791870134 L72.16004443822548 78.60849435348787" />
    <path d="M63.41223001231107 82.8022237071433 L72.16004443822548 78.60849435348787 L69.83177391096339 77.15964791870134" />
    <path d="M60.389278886206235 75.4090072917349 L70.55044910271073 72.47701360566866 L62.62998283393939 80.8890857043148" />
    <path d="M79.56795678960466 67.07106781186548 L72.64091183304637 77.17207921893711 L70.55044910271073 72.47701360566866" />
    <path d="M63.7347377927498 83.5909793690679 L62.62998283393939 80.8890857043148 L72.64091183304637 77.17207921893711" />
    <path d="M70.55044910271073 72.47701360566866 L72.64091183304637 77.17207921893711 L62.62998283393939 80.8890857043148" />
    <path d="M85.85570509325692 54.8869142557514 L83.2158238884164 63.19074407570495 L84.62625644286311 60.552782695102756" />
    <path d="M77.54831722388853 71.33883476483184 L80.0719643314647 70.49312805419072 L83.2158238884164 63.19074407570495" />
    <path d="M79.56795678960466 67.07106781186548 L84.62625644286311 60.552782695102756 L80.0719643314647 70.49312805419072" />
    <path d="M83.2158238884164 63.19074407570495 L80.0719643314647 70.49312805419072 L84.62625644286311 60.552782695102756" />
    <path d="M63.7347377927498 83.5909793690679 L72.64091183304637 77.17207921893711 L72.16004443822548 78.60849435348787" />
    <path d="M79.56795678960466 67.07106781186548 L80.0719643314647 70.49312805419072 L72.64091183304637 77.17207921893711" />
    <path d="M77.54831722388853 71.33883476483184 L72.16004443822548 78.60849435348787 L80.0719643314647 70.49312805419072" />
    <path d="M72.64091183304637 77.17207921893711 L80.0719643314647 70.49312805419072 L72.16004443822548 78.60849435348787" />
    <path d="M39.46313045224181 63.603040093209174 L46.00308289110828 61.83923925698544 L39.53593515870551 56.82980816397364" />
    <path d="M53.706321910751306 59.064532917759166 L46.881302662699234 54.02622094974243 L46.00308289110828 61.83923925698544" />
    <path d="M40.296723264404626 48.67750247043393 L39.53593515870551 56.82980816397364 L46.881302662699234 54.02622094974243" />
    <path d="M46.00308289110828 61.83923925698544 L46.881302662699234 54.02622094974243 L39.53593515870551 56.82980816397364" />
    <path d="M67.04901306329647 52.32367665811665 L62.25154051247725 47.541812124628166 L61.14681979362277 55.647241897421786" />
    <path d="M55.99695482484407 42.257964611806905 L55.04615829237644 50.687760645946135 L62.25154051247725 47.541812124628166" />
    <path d="M53.706321910751306 59.064532917759166 L61.14681979362277 55.647241897421786 L55.04615829237644 50.687760645946135" />
    <path d="M62.25154051247725 47.541812124628166 L55.04615829237644 50.687760645946135 L61.14681979362277 55.647241897421786" />
    <path d="M43.48785648446171 34.07328324867417 L41.745376596414474 40.6189486183864 L49.31724504767171 37.52294993860457" />
    <path d="M40.296723264404626 48.67750247043393 L48.072539044924326 45.28601840431143 L41.745376596414474 40.6189486183864" />
    <path d="M55.99695482484407 42.257964611806905 L49.31724504767171 37.52294993860457 L48.072539044924326 45.28601840431143" />
    <path d="M41.745376596414474 40.6189486183864 L48.072539044924326 45.28601840431143 L49.31724504767171 37.52294993860457" />
    <path d="M53.706321910751306 59.064532917759166 L55.04615829237644 50.687760645946135 L46.881302662699234 54.02622094974243" />
    <path d="M55.99695482484407 42.257964611806905 L48.072539044924326 45.28601840431143 L55.04615829237644 50.687760645946135" />
    <path d="M40.296723264404626 48.67750247043393 L46.881302662699234 54.02622094974243 L48.072539044924326 45.28601840431143" />
    <path d="M55.04615829237644 50.687760645946135 L48.072539044924326 45.28601840431143 L46.881302662699234 54.02622094974243" />
    <path d="M67.04901306329647 52.32367665811665 L73.07147868230254 53.14450204731889 L69.4808996910344 45.70391265774003" />
    <path d="M79.24203622430151 53.98551146379806 L76.1969237561869 45.47383996398465 L73.07147868230254 53.14450204731889" />
    <path d="M71.1199691354319 37.8063801343818 L69.4808996910344 45.70391265774003 L76.1969237561869 45.47383996398465" />
    <path d="M73.07147868230254 53.14450204731889 L76.1969237561869 45.47383996398465 L69.4808996910344 45.70391265774003" />
    <path d="M85.85570509325692 54.8869142557514 L85.53435468980351 46.17948660043204 L83.81807497612718 54.609197679227506" />
    <path d="M82.25413160544718 36.81187483501605 L82.17179276973553 45.615180560232034 L85.53435468980351 46.17948660043204" />
    <path d="M79.24203622430151 53.98551146379806 L83.81807497612718 54.609197679227506 L82.17179276973553 45.615180560232034" />
    <path d="M85.53435468980351 46.17948660043204 L82.17179276973553 45.615180560232034 L83.81807497612718 54.609197679227506" />
    <path d="M69.88326141071468 24.33081989600448 L71.20805283441325 30.188023254670256 L76.37679145200508 29.138298146584056" />
    <path d="M71.1199691354319 37.8063801343818 L77.50128281770097 36.748702620172054 L71.20805283441325 30.188023254670256" />
    <path d="M82.25413160544718 36.81187483501605 L76.37679145200508 29.138298146584056 L77.50128281770097 36.748702620172054" />
    <path d="M71.20805283441325 30.188023254670256 L77.50128281770097 36.748702620172054 L76.37679145200508 29.138298146584056" />
    <path d="M79.24203622430151 53.98551146379806 L82.17179276973553 45.615180560232034 L76.1969237561869 45.47383996398465" />
    <path d="M82.25413160544718 36.81187483501605 L77.50128281770097 36.748702620172054 L82.17179276973553 45.615180560232034" />
    <path d="M71.1199691354319 37.8063801343818 L76.1969237561869 45.47383996398465 L77.50128281770097 36.748702620172054" />
    <path d="M82.17179276973553 45.615180560232034 L77.50128281770097 36.748702620172054 L76.1969237561869 45.47383996398465" />
    <path d="M85.85570509325692 54.8869142557514 L84.62625644286311 60.552782695102756 L86.18738024071703 49.09868475507071" />
    <path d="M79.56795678960466 67.07106781186548 L83.2668004563954 54.53406231925333 L84.62625644286311 60.552782695102756" />
    <path d="M83.05798066866623 41.46446609406726 L86.18738024071703 49.09868475507071 L83.2668004563954 54.53406231925333" />
    <path d="M84.62625644286311 60.552782695102756 L83.2668004563954 54.53406231925333 L86.18738024071703 49.09868475507071" />
    <path d="M60.389278886206235 75.4090072917349 L63.984576053429805 65.89291480581944 L70.55044910271073 72.47701360566866" />
    <path d="M66.86911577685275 52.2991577534847 L75.21530953472501 60.85094154416167 L63.984576053429805 65.89291480581944" />
    <path d="M79.56795678960466 67.07106781186548 L70.55044910271073 72.47701360566866 L75.21530953472501 60.85094154416167" />
    <path d="M63.984576053429805 65.89291480581944 L75.21530953472501 60.85094154416167 L70.55044910271073 72.47701360566866" />
    <path d="M66.81020635648333 28.298116911676658 L75.81610279849252 33.84246506269645 L67.72770282137165 38.429275688344795" />
    <path d="M83.05798066866623 41.46446609406726 L77.19948524268956 46.29287579658845 L75.81610279849252 33.84246506269645" />
    <path d="M66.86911577685275 52.2991577534847 L67.72770282137165 38.429275688344795 L77.19948524268956 46.29287579658845" />
    <path d="M75.81610279849252 33.84246506269645 L77.19948524268956 46.29287579658845 L67.72770282137165 38.429275688344795" />
    <path d="M79.56795678960466 67.07106781186548 L75.21530953472501 60.85094154416167 L83.2668004563954 54.53406231925333" />
    <path d="M66.86911577685275 52.2991577534847 L77.19948524268956 46.29287579658845 L75.21530953472501 60.85094154416167" />
    <path d="M83.05798066866623 41.46446609406726 L83.2668004563954 54.53406231925333 L77.19948524268956 46.29287579658845" />
    <path d="M75.21530953472501 60.85094154416167 L77.19948524268956 46.29287579658845 L83.2668004563954 54.53406231925333" />
    <path d="M60.389278886206235 75.4090072917349 L51.084784318993215 80.43616831885684 L51.1566897833938 71.13800314987651" />
    <path d="M40.86299886306804 82.89681800984621 L39.61072111379377 75.4090072917349 L51.084784318993215 80.43616831885684" />
    <path d="M39.57431308974791 63.459503925393 L51.1566897833938 71.13800314987651 L39.61072111379377 75.4090072917349" />
    <path d="M51.084784318993215 80.43616831885684 L39.61072111379377 75.4090072917349 L51.1566897833938 71.13800314987651" />
    <path d="M27.839955561774513 78.60849435348787 L23.54789388399265 74.71082636992267 L32.686871778568445 81.78984820733262" />
    <path d="M20.432043210395335 67.07106781186548 L29.439986620987128 76.54286313823951 L23.54789388399265 74.71082636992267" />
    <path d="M40.86299886306804 82.89681800984621 L32.686871778568445 81.78984820733262 L29.439986620987128 76.54286313823951" />
    <path d="M23.54789388399265 74.71082636992267 L29.439986620987128 76.54286313823951 L32.686871778568445 81.78984820733262" />
    <path d="M22.80051475731043 46.292875796588454 L29.244044011263632 54.164540720516015 L20.25911066492711 56.55870417929229" />
    <path d="M39.57431308974791 63.459503925393 L27.995154200413555 66.411627849279 L29.244044011263632 54.164540720516015" />
    <path d="M20.432043210395335 67.07106781186548 L20.25911066492711 56.55870417929229 L27.995154200413555 66.411627849279" />
    <path d="M29.244044011263632 54.164540720516015 L27.995154200413555 66.411627849279 L20.25911066492711 56.55870417929229" />
    <path d="M40.86299886306804 82.89681800984621 L29.439986620987128 76.54286313823951 L39.61072111379377 75.4090072917349" />
    <path d="M20.432043210395335 67.07106781186548 L27.995154200413555 66.411627849279 L29.439986620987128 76.54286313823951" />
    <path d="M39.57431308974791 63.459503925393 L39.61072111379377 75.4090072917349 L27.995154200413555 66.411627849279" />
    <path d="M29.439986620987128 76.54286313823951 L27.995154200413555 66.411627849279 L39.61072111379377 75.4090072917349" />
    <path d="M27.839955561774513 78.60849435348787 L29.09928023066112 76.98271319679921 L21.968568591412236 72.17037525714615" />
    <path d="M31.92742771312602 73.33159049673088 L23.97247290977489 69.41181921164971 L29.09928023066112 76.98271319679921" />
    <path d="M17.745868394552822 63.18812516498395 L21.968568591412236 72.17037525714615 L23.97247290977489 69.41181921164971" />
    <path d="M29.09928023066112 76.98271319679921 L23.97247290977489 69.41181921164971 L21.968568591412236 72.17037525714615" />
    <path d="M39.46313045224181 63.603040093209174 L33.08991693675482 60.58352068163609 L35.7410420036184 68.40823561808568" />
    <path d="M26.387156665238408 56.096809932809094 L28.136666901028054 65.12480098257461 L33.08991693675482 60.58352068163609" />
    <path d="M31.92742771312602 73.33159049673088 L35.7410420036184 68.40823561808568 L28.136666901028054 65.12480098257461" />
    <path d="M33.08991693675482 60.58352068163609 L28.136666901028054 65.12480098257461 L35.7410420036184 68.40823561808568" />
    <path d="M17.828207230264468 45.61518056023203 L16.56316798908179 53.594996049653105 L20.98666288731912 50.72263211296264" />
    <path d="M17.745868394552822 63.18812516498395 L21.092886859430003 59.81306520645283 L16.56316798908179 53.594996049653105" />
    <path d="M26.387156665238408 56.096809932809094 L20.98666288731912 50.72263211296264 L21.092886859430003 59.81306520645283" />
    <path d="M16.56316798908179 53.594996049653105 L21.092886859430003 59.81306520645283 L20.98666288731912 50.72263211296264" />
    <path d="M31.92742771312602 73.33159049673088 L28.136666901028054 65.12480098257461 L23.97247290977489 69.41181921164971" />
    <path d="M26.387156665238408 56.096809932809094 L21.092886859430003 59.81306520645283 L28.136666901028054 65.12480098257461" />
    <path d="M17.745868394552822 63.18812516498395 L23.97247290977489 69.41181921164971 L21.092886859430003 59.81306520645283" />
    <path d="M28.136666901028054 65.12480098257461 L21.092886859430003 59.81306520645283 L23.97247290977489 69.41181921164971" />
    <path d="M36.30433934496858 16.504591390760723 L37.08264479321171 18.40808912397329 L44.81560752017137 14.63888066714891" />
    <path d="M38.83053606257246 22.682898039471063 L46.202634974153085 17.753590736352514 L37.08264479321171 18.40808912397329" />
    <path d="M54.70581438155865 15.473040070184197 L44.81560752017137 14.63888066714891 L46.202634974153085 17.753590736352514" />
    <path d="M37.08264479321171 18.40808912397329 L46.202634974153085 17.753590736352514 L44.81560752017137 14.63888066714891" />
    <path d="M43.48785648446171 34.07328324867417 L49.289443759847735 30.063678146306646 L41.18747931407907 28.44726233459543" />
    <path d="M56.526429383522824 26.502272850109836 L47.83320467139252 23.503397633601825 L49.289443759847735 30.063678146306646" />
    <path d="M38.83053606257246 22.682898039471063 L41.18747931407907 28.44726233459543 L47.83320467139252 23.503397633601825" />
    <path d="M49.289443759847735 30.063678146306646 L47.83320467139252 23.503397633601825 L41.18747931407907 28.44726233459543" />
    <path d="M69.88326141071468 24.33081989600448 L63.60505809995482 19.24535603164556 L63.88085078892436 24.512396955375177" />
    <path d="M54.70581438155865 15.473040070184197 L55.95519281250366 20.059173066968995 L63.60505809995482 19.24535603164556" />
    <path d="M56.526429383522824 26.502272850109836 L63.88085078892436 24.512396955375177 L55.95519281250366 20.059173066968995" />
    <path d="M63.60505809995482 19.24535603164556 L55.95519281250366 20.059173066968995 L63.88085078892436 24.512396955375177" />
    <path d="M38.83053606257246 22.682898039471063 L47.83320467139252 23.503397633601825 L46.202634974153085 17.753590736352514" />
    <path d="M56.526429383522824 26.502272850109836 L55.95519281250366 20.059173066968995 L47.83320467139252 23.503397633601825" />
    <path d="M54.70581438155865 15.473040070184197 L46.202634974153085 17.753590736352514 L55.95519281250366 20.059173066968995" />
    <path d="M47.83320467139252 23.503397633601825 L55.95519281250366 20.059173066968995 L46.202634974153085 17.753590736352514" />
    <path d="M36.30433934496858 16.504591390760723 L44.81560752017137 14.63888066714891 L41.82584967314425 14.736390934974573" />
    <path d="M54.70581438155865 15.473040070184197 L52.71158733220437 13.710350920156685 L44.81560752017137 14.63888066714891" />
    <path d="M50 15.857864376269042 L41.82584967314425 14.736390934974573 L52.71158733220437 13.710350920156685" />
    <path d="M44.81560752017137 14.63888066714891 L52.71158733220437 13.710350920156685 L41.82584967314425 14.736390934974573" />
    <path d="M69.88326141071468 24.33081989600448 L71.70144402485073 21.98355623436689 L63.60505809995482 19.24535603164556" />
    <path d="M72.22327257523688 21.30987847262652 L63.69566065503142 16.50459139076073 L71.70144402485073 21.98355623436689" />
    <path d="M54.70581438155865 15.473040070184197 L63.60505809995482 19.24535603164556 L63.69566065503142 16.50459139076073" />
    <path d="M71.70144402485073 21.98355623436689 L63.69566065503142 16.50459139076073 L63.60505809995482 19.24535603164556" />
    <path d="M66.81020635648333 28.298116911676658 L59.19044023236215 20.96428221503905 L70.43574150264165 23.617571164289718" />
    <path d="M50 15.857864376269042 L62.21125496071957 16.806355578269574 L59.19044023236215 20.96428221503905" />
    <path d="M72.22327257523688 21.30987847262652 L70.43574150264165 23.617571164289718 L62.21125496071957 16.806355578269574" />
    <path d="M59.19044023236215 20.96428221503905 L62.21125496071957 16.806355578269574 L70.43574150264165 23.617571164289718" />
    <path d="M54.70581438155865 15.473040070184197 L63.69566065503142 16.50459139076073 L52.71158733220437 13.710350920156685" />
    <path d="M72.22327257523688 21.30987847262652 L62.21125496071957 16.806355578269574 L63.69566065503142 16.50459139076073" />
    <path d="M50 15.857864376269042 L52.71158733220437 13.710350920156685 L62.21125496071957 16.806355578269574" />
    <path d="M63.69566065503142 16.50459139076073 L62.21125496071957 16.806355578269574 L52.71158733220437 13.710350920156685" />
    <path d="M36.30433934496858 16.504591390760723 L41.82584967314425 14.736390934974573 L31.12574798071453 19.111467037596665" />
    <path d="M50 15.857864376269042 L37.29321292261747 18.923074542507145 L41.82584967314425 14.736390934974573" />
    <path d="M26.079020468265714 25.638715896086513 L31.12574798071453 19.111467037596665 L37.29321292261747 18.923074542507145" />
    <path d="M41.82584967314425 14.736390934974573 L37.29321292261747 18.923074542507145 L31.12574798071453 19.111467037596665" />
    <path d="M66.81020635648333 28.298116911676658 L56.77137993530656 29.942544473664544 L59.19044023236215 20.96428221503905" />
    <path d="M43.55657113339933 34.24133832112229 L46.78953626486145 22.73743060655934 L56.77137993530656 29.942544473664544" />
    <path d="M50 15.857864376269042 L59.19044023236215 20.96428221503905 L46.78953626486145 22.73743060655934" />
    <path d="M56.77137993530656 29.942544473664544 L46.78953626486145 22.73743060655934 L59.19044023236215 20.96428221503905" />
    <path d="M22.80051475731043 46.292875796588454 L23.099112882514255 35.72136661844671 L31.115607395234555 40.43272116177869" />
    <path d="M26.079020468265714 25.638715896086513 L33.189793643516666 28.29811691167666 L23.099112882514255 35.72136661844671" />
    <path d="M43.55657113339933 34.24133832112229 L31.115607395234555 40.43272116177869 L33.189793643516666 28.29811691167666" />
    <path d="M23.099112882514255 35.72136661844671 L33.189793643516666 28.29811691167666 L31.115607395234555 40.43272116177869" />
    <path d="M50 15.857864376269042 L46.78953626486145 22.73743060655934 L37.29321292261747 18.923074542507145" />
    <path d="M43.55657113339933 34.24133832112229 L33.189793643516666 28.29811691167666 L46.78953626486145 22.73743060655934" />
    <path d="M26.079020468265714 25.638715896086513 L37.29321292261747 18.923074542507145 L33.189793643516666 28.29811691167666" />
    <path d="M46.78953626486145 22.73743060655934 L33.189793643516666 28.29811691167666 L37.29321292261747 18.923074542507145" />
    <path d="M36.30433934496858 16.504591390760723 L31.12574798071453 19.111467037596665 L28.92416099557355 21.136602831327433" />
    <path d="M26.079020468265714 25.638715896086513 L22.63962300073967 26.006227752671112 L31.12574798071453 19.111467037596665" />
    <path d="M22.45168277611147 28.661165235168152 L28.92416099557355 21.136602831327433 L22.63962300073967 26.006227752671112" />
    <path d="M31.12574798071453 19.111467037596665 L22.63962300073967 26.006227752671112 L28.92416099557355 21.136602831327433" />
    <path d="M22.80051475731043 46.292875796588454 L16.934275663418966 45.4933431313955 L23.099112882514255 35.72136661844671" />
    <path d="M14.04198963201334 45.09914215830558 L18.030519467545385 34.87105118664951 L16.934275663418966 45.4933431313955" />
    <path d="M26.079020468265714 25.638715896086513 L23.099112882514255 35.72136661844671 L18.030519467545385 34.87105118664951" />
    <path d="M16.934275663418966 45.4933431313955 L18.030519467545385 34.87105118664951 L23.099112882514255 35.72136661844671" />
    <path d="M17.828207230264468 45.61518056023203 L18.74484050276235 37.58787945894734 L14.886325962838207 45.21422005848981" />
    <path d="M22.45168277611147 28.661165235168152 L16.759933342661775 35.695752823256065 L18.74484050276235 37.58787945894734" />
    <path d="M14.04198963201334 45.09914215830558 L14.886325962838207 45.21422005848981 L16.759933342661775 35.695752823256065" />
    <path d="M18.74484050276235 37.58787945894734 L16.759933342661775 35.695752823256065 L14.886325962838207 45.21422005848981" />
    <path d="M26.079020468265714 25.638715896086513 L18.030519467545385 34.87105118664951 L22.63962300073967 26.006227752671112" />
    <path d="M14.04198963201334 45.09914215830558 L16.759933342661775 35.695752823256065 L18.030519467545385 34.87105118664951" />
    <path d="M22.45168277611147 28.661165235168152 L22.63962300073967 26.006227752671112 L16.759933342661775 35.695752823256065" />
    <path d="M18.030519467545385 34.87105118664951 L16.759933342661775 35.695752823256065 L22.63962300073967 26.006227752671112" />
    <path d="M36.30433934496858 16.504591390760723 L28.92416099557355 21.136602831327433 L37.08264479321171 18.40808912397329" />
    <path d="M22.45168277611147 28.661165235168152 L30.11673858928532 24.33081989600448 L28.92416099557355 21.136602831327433" />
    <path d="M38.83053606257246 22.682898039471063 L37.08264479321171 18.40808912397329 L30.11673858928532 24.33081989600448" />
    <path d="M28.92416099557355 21.136602831327433 L30.11673858928532 24.33081989600448 L37.08264479321171 18.40808912397329" />
    <path d="M17.828207230264468 45.61518056023203 L22.238298422151274 41.53927585326042 L18.74484050276235 37.58787945894734" />
    <path d="M28.880030864568095 37.8063801343818 L24.773398427116344 32.80883913312444 L22.238298422151274 41.53927585326042" />
    <path d="M22.45168277611147 28.661165235168152 L18.74484050276235 37.58787945894734 L24.773398427116344 32.80883913312444" />
    <path d="M22.238298422151274 41.53927585326042 L24.773398427116344 32.80883913312444 L18.74484050276235 37.58787945894734" />
    <path d="M43.48785648446171 34.07328324867417 L41.18747931407907 28.44726233459543 L36.5390293792089 35.27708965011777" />
    <path d="M38.83053606257246 22.682898039471063 L32.98176854912337 29.575878544145752 L41.18747931407907 28.44726233459543" />
    <path d="M28.880030864568095 37.8063801343818 L36.5390293792089 35.27708965011777 L32.98176854912337 29.575878544145752" />
    <path d="M41.18747931407907 28.44726233459543 L32.98176854912337 29.575878544145752 L36.5390293792089 35.27708965011777" />
    <path d="M22.45168277611147 28.661165235168152 L24.773398427116344 32.80883913312444 L30.11673858928532 24.33081989600448" />
    <path d="M28.880030864568095 37.8063801343818 L32.98176854912337 29.575878544145752 L24.773398427116344 32.80883913312444" />
    <path d="M38.83053606257246 22.682898039471063 L30.11673858928532 24.33081989600448 L32.98176854912337 29.575878544145752" />
    <path d="M24.773398427116344 32.80883913312444 L32.98176854912337 29.575878544145752 L30.11673858928532 24.33081989600448" />
    <path d="M69.88326141071468 24.33081989600448 L63.88085078892436 24.512396955375177 L71.20805283441325 30.188023254670256" />
    <path d="M56.526429383522824 26.502272850109836 L64.42849718835478 31.372890226233782 L63.88085078892436 24.512396955375177" />
    <path d="M71.1199691354319 37.8063801343818 L71.20805283441325 30.188023254670256 L64.42849718835478 31.372890226233782" />
    <path d="M63.88085078892436 24.512396955375177 L64.42849718835478 31.372890226233782 L71.20805283441325 30.188023254670256" />
    <path d="M43.48785648446171 34.07328324867417 L49.31724504767171 37.52294993860457 L49.289443759847735 30.063678146306646" />
    <path d="M55.99695482484407 42.257964611806905 L56.51214351553829 34.07328324867417 L49.31724504767171 37.52294993860457" />
    <path d="M56.526429383522824 26.502272850109836 L49.289443759847735 30.063678146306646 L56.51214351553829 34.07328324867417" />
    <path d="M49.31724504767171 37.52294993860457 L56.51214351553829 34.07328324867417 L49.289443759847735 30.063678146306646" />
    <path d="M67.04901306329647 52.32367665811665 L69.4808996910344 45.70391265774003 L62.25154051247725 47.541812124628166" />
    <path d="M71.1199691354319 37.8063801343818 L63.79294130552732 39.71296496622044 L69.4808996910344 45.70391265774003" />
    <path d="M55.99695482484407 42.257964611806905 L62.25154051247725 47.541812124628166 L63.79294130552732 39.71296496622044" />
    <path d="M69.4808996910344 45.70391265774003 L63.79294130552732 39.71296496622044 L62.25154051247725 47.541812124628166" />
    <path d="M56.526429383522824 26.502272850109836 L56.51214351553829 34.07328324867417 L64.42849718835478 31.372890226233782" />
    <path d="M55.99695482484407 42.257964611806905 L63.79294130552732 39.71296496622044 L56.51214351553829 34.07328324867417" />
    <path d="M71.1199691354319 37.8063801343818 L64.42849718835478 31.372890226233782 L63.79294130552732 39.71296496622044" />
    <path d="M56.51214351553829 34.07328324867417 L63.79294130552732 39.71296496622044 L64.42849718835478 31.372890226233782" />
    <path d="M66.81020635648333 28.298116911676658 L70.43574150264165 23.617571164289718 L75.81610279849252 33.84246506269645" />
    <path d="M72.22327257523688 21.30987847262652 L79.08679427114328 29.878092119777484 L70.43574150264165 23.617571164289718" />
    <path d="M83.05798066866623 41.46446609406726 L75.81610279849252 33.84246506269645 L79.08679427114328 29.878092119777484" />
    <path d="M70.43574150264165 23.617571164289718 L79.08679427114328 29.878092119777484 L75.81610279849252 33.84246506269645" />
    <path d="M69.88326141071468 24.33081989600448 L76.37679145200508 29.138298146584056 L71.70144402485073 21.98355623436689" />
    <path d="M82.25413160544718 36.81187483501605 L79.00787476574119 28.36538143962897 L76.37679145200508 29.138298146584056" />
    <path d="M72.22327257523688 21.30987847262652 L71.70144402485073 21.98355623436689 L79.00787476574119 28.36538143962897" />
    <path d="M76.37679145200508 29.138298146584056 L79.00787476574119 28.36538143962897 L71.70144402485073 21.98355623436689" />
    <path d="M85.85570509325692 54.8869142557514 L86.18738024071703 49.09868475507071 L85.53435468980351 46.17948660043204" />
    <path d="M83.05798066866623 41.46446609406726 L84.459404798435 38.302104585185546 L86.18738024071703 49.09868475507071" />
    <path d="M82.25413160544718 36.81187483501605 L85.53435468980351 46.17948660043204 L84.459404798435 38.302104585185546" />
    <path d="M86.18738024071703 49.09868475507071 L84.459404798435 38.302104585185546 L85.53435468980351 46.17948660043204" />
    <path d="M72.22327257523688 21.30987847262652 L79.00787476574119 28.36538143962897 L79.08679427114328 29.878092119777484" />
    <path d="M82.25413160544718 36.81187483501605 L84.459404798435 38.302104585185546 L79.00787476574119 28.36538143962897" />
    <path d="M83.05798066866623 41.46446609406726 L79.08679427114328 29.878092119777484 L84.459404798435 38.302104585185546" />
    <path d="M79.00787476574119 28.36538143962897 L84.459404798435 38.302104585185546 L79.08679427114328 29.878092119777484" />
    <path d="M22.80051475731043 46.292875796588454 L31.115607395234555 40.43272116177869 L29.244044011263632 54.164540720516015" />
    <path d="M43.55657113339933 34.24133832112229 L40.95959205553126 48.7678474500299 L31.115607395234555 40.43272116177869" />
    <path d="M39.57431308974791 63.459503925393 L29.244044011263632 54.164540720516015 L40.95959205553126 48.7678474500299" />
    <path d="M31.115607395234555 40.43272116177869 L40.95959205553126 48.7678474500299 L29.244044011263632 54.164540720516015" />
    <path d="M66.81020635648333 28.298116911676658 L67.72770282137165 38.429275688344795 L56.77137993530656 29.942544473664544" />
    <path d="M66.86911577685275 52.2991577534847 L55.58727938184625 42.78685333450046 L67.72770282137165 38.429275688344795" />
    <path d="M43.55657113339933 34.24133832112229 L56.77137993530656 29.942544473664544 L55.58727938184625 42.78685333450046" />
    <path d="M67.72770282137165 38.429275688344795 L55.58727938184625 42.78685333450046 L56.77137993530656 29.942544473664544" />
    <path d="M60.389278886206235 75.4090072917349 L51.1566897833938 71.13800314987651 L63.984576053429805 65.89291480581944" />
    <path d="M39.57431308974791 63.459503925393 L53.45312856262249 58.445299215469646 L51.1566897833938 71.13800314987651" />
    <path d="M66.86911577685275 52.2991577534847 L63.984576053429805 65.89291480581944 L53.45312856262249 58.445299215469646" />
    <path d="M51.1566897833938 71.13800314987651 L53.45312856262249 58.445299215469646 L63.984576053429805 65.89291480581944" />
    <path d="M43.55657113339933 34.24133832112229 L55.58727938184625 42.78685333450046 L40.95959205553126 48.7678474500299" />
    <path d="M66.86911577685275 52.2991577534847 L53.45312856262249 58.445299215469646 L55.58727938184625 42.78685333450046" />
    <path d="M39.57431308974791 63.459503925393 L40.95959205553126 48.7678474500299 L53.45312856262249 58.445299215469646" />
    <path d="M55.58727938184625 42.78685333450046 L53.45312856262249 58.445299215469646 L40.95959205553126 48.7678474500299" />
    <path d="M17.828207230264468 45.61518056023203 L14.886325962838207 45.21422005848981 L16.56316798908179 53.594996049653105" />
    <path d="M14.04198963201334 45.09914215830558 L14.144294906743092 54.88691425575139 L14.886325962838207 45.21422005848981" />
    <path d="M17.745868394552822 63.18812516498395 L16.56316798908179 53.594996049653105 L14.144294906743092 54.88691425575139" />
    <path d="M14.886325962838207 45.21422005848981 L14.144294906743092 54.88691425575139 L16.56316798908179 53.594996049653105" />
    <path d="M22.80051475731043 46.292875796588454 L20.25911066492711 56.55870417929229 L16.934275663418966 45.4933431313955" />
    <path d="M20.432043210395335 67.07106781186548 L15.147833206234047 56.02156520279331 L20.25911066492711 56.55870417929229" />
    <path d="M14.04198963201334 45.09914215830558 L16.934275663418966 45.4933431313955 L15.147833206234047 56.02156520279331" />
    <path d="M20.25911066492711 56.55870417929229 L15.147833206234047 56.02156520279331 L16.934275663418966 45.4933431313955" />
    <path d="M27.839955561774513 78.60849435348787 L21.968568591412236 72.17037525714615 L23.54789388399265 74.71082636992267" />
    <path d="M17.745868394552822 63.18812516498395 L17.216448336330934 65.7965210256526 L21.968568591412236 72.17037525714615" />
    <path d="M20.432043210395335 67.07106781186548 L23.54789388399265 74.71082636992267 L17.216448336330934 65.7965210256526" />
    <path d="M21.968568591412236 72.17037525714615 L17.216448336330934 65.7965210256526 L23.54789388399265 74.71082636992267" />
    <path d="M14.04198963201334 45.09914215830558 L15.147833206234047 56.02156520279331 L14.144294906743092 54.88691425575139" />
    <path d="M20.432043210395335 67.07106781186548 L17.216448336330934 65.7965210256526 L15.147833206234047 56.02156520279331" />
    <path d="M17.745868394552822 63.18812516498395 L14.144294906743092 54.88691425575139 L17.216448336330934 65.7965210256526" />
    <path d="M15.147833206234047 56.02156520279331 L17.216448336330934 65.7965210256526 L14.144294906743092 54.88691425575139" />
    <path d="M43.48785648446171 34.07328324867417 L36.5390293792089 35.27708965011777 L41.745376596414474 40.6189486183864" />
    <path d="M28.880030864568095 37.8063801343818 L34.19469567836272 43.19847995339541 L36.5390293792089 35.27708965011777" />
    <path d="M40.296723264404626 48.67750247043393 L41.745376596414474 40.6189486183864 L34.19469567836272 43.19847995339541" />
    <path d="M36.5390293792089 35.27708965011777 L34.19469567836272 43.19847995339541 L41.745376596414474 40.6189486183864" />
    <path d="M17.828207230264468 45.61518056023203 L20.98666288731912 50.72263211296264 L22.238298422151274 41.53927585326042" />
    <path d="M26.387156665238408 56.096809932809094 L26.654201142659655 46.81810978333551 L20.98666288731912 50.72263211296264" />
    <path d="M28.880030864568095 37.8063801343818 L22.238298422151274 41.53927585326042 L26.654201142659655 46.81810978333551" />
    <path d="M20.98666288731912 50.72263211296264 L26.654201142659655 46.81810978333551 L22.238298422151274 41.53927585326042" />
    <path d="M39.46313045224181 63.603040093209174 L39.53593515870551 56.82980816397364 L33.08991693675482 60.58352068163609" />
    <path d="M40.296723264404626 48.67750247043393 L32.95098693670353 52.32367665811665 L39.53593515870551 56.82980816397364" />
    <path d="M26.387156665238408 56.096809932809094 L33.08991693675482 60.58352068163609 L32.95098693670353 52.32367665811665" />
    <path d="M39.53593515870551 56.82980816397364 L32.95098693670353 52.32367665811665 L33.08991693675482 60.58352068163609" />
    <path d="M28.880030864568095 37.8063801343818 L26.654201142659655 46.81810978333551 L34.19469567836272 43.19847995339541" />
    <path d="M26.387156665238408 56.096809932809094 L32.95098693670353 52.32367665811665 L26.654201142659655 46.81810978333551" />
    <path d="M40.296723264404626 48.67750247043393 L34.19469567836272 43.19847995339541 L32.95098693670353 52.32367665811665" />
    <path d="M26.654201142659655 46.81810978333551 L32.95098693670353 52.32367665811665 L34.19469567836272 43.19847995339541" />
  </g>
</svg>