<?xml version="1.0" encoding="UTF-8" standalone="no"?>
<!DOCTYPE svg PUBLIC "-//W3C//DTD SVG 1.1//EN" "http://www.w3.org/Graphics/SVG/1.1/DTD/svg11.dtd">
<svg width="100%" height="100%" viewBox="0 0 300 300" version="1.1" 
  xmlns="http://www.w3.org/2000/svg" 
  xmlns:xlink="http://www.w3.org/1999/xlink" xml:space="preserve" 
  xmlns:serif="http://www.serif.com/" style="fill-rule:evenodd;clip-rule:evenodd;stroke-linejoin:round;stroke-miterlimit:1.41421;">
  <g>
    <path d="M59.107,137.219l-7.641,7.313c-0.718,-2.438 -1.078,-4.828 -1.078,-7.172c0,-8.594 3.578,-15.547 10.735,-20.859c5.343,-3.969 12.703,-5.953 22.078,-5.953l27.984,0c11.594,0 17.391,-3.579 17.391,-10.735c0,-2.5 -0.86,-4.812 -2.578,-6.937l5.906,-5.625c1.375,1.875 2.062,4.281 2.062,7.218c0,6.157 -2.773,11.321 -8.32,15.493c-5.547,4.172 -12.398,6.257 -20.555,6.257l-13.031,0l-3.516,31.688l-0.562,5.203c-0.531,4.438 -1.492,7.641 -2.883,9.609c-1.391,1.969 -4.07,3.891 -8.039,5.766l13.641,0.703l-5.625,5.438l-22.875,-1.032l6.047,-5.812l5.109,0.562c3.781,-2.406 6.125,-7.328 7.031,-14.765l0.469,-4.547l3.656,-32.813l-7.969,0c-13.093,0 -19.64,4.329 -19.64,12.985c0,2.625 0.734,5.297 2.203,8.015Z" style="fill-rule:nonzero;"/>
    <path d="M151.31,158.688c0.781,0.531 1.172,1.156 1.172,1.875c0,0.969 -1,2.625 -3,4.969c-5.344,6.187 -10.625,9.281 -15.844,9.281c-3.187,0 -5.812,-1.265 -7.875,-3.797c-2.062,-2.531 -3.094,-5.765 -3.094,-9.703c0,-7.125 2.696,-14.336 8.086,-21.633c5.391,-7.296 10.727,-10.945 16.008,-10.945c3.813,0 5.719,2.047 5.719,6.141c0,4.593 -2.227,9.078 -6.68,13.453c-4.453,4.375 -9.883,7.422 -16.289,9.14c0.625,7.532 3.594,11.297 8.906,11.297c5.25,0 9.547,-3.359 12.891,-10.078Zm-21.609,-6.937c0.906,0.312 1.734,0.468 2.484,0.468c3.875,0 7.266,-1.187 10.172,-3.562c2.906,-2.375 4.359,-5.156 4.359,-8.344c0,-3.656 -1.859,-5.484 -5.578,-5.484c-2.687,0 -5.117,1.601 -7.289,4.805c-2.172,3.203 -3.555,7.242 -4.148,12.117Z" style="fill-rule:nonzero;"/>
    <path d="M155.529,172.282l6.469,-5.297c2.437,2.594 5.5,3.891 9.187,3.891c4.5,0 6.75,-2.172 6.75,-6.516c0,-2.406 -2.062,-5.766 -6.187,-10.078l-2.672,-2.766c-3.907,-4.093 -5.86,-7.406 -5.86,-9.937c0,-3.625 1.571,-6.672 4.711,-9.141c3.141,-2.469 7.008,-3.703 11.602,-3.703c2.5,0 5.234,0.469 8.203,1.406l-5.625,5.203c-2.375,-1.781 -5.016,-2.671 -7.922,-2.671c-3.406,0 -5.109,1.421 -5.109,4.265c0,2.031 1.89,5.016 5.672,8.953l2.906,3.094c4.312,4.5 6.469,8.125 6.469,10.875c0,3.938 -1.891,7.414 -5.672,10.43c-3.782,3.015 -8.141,4.523 -13.078,4.523c-3.5,0 -6.782,-0.844 -9.844,-2.531Z" style="fill-rule:nonzero;"/>
    <path d="M207.326,135.391l-2.344,20.719c-0.406,3.719 -0.609,6.469 -0.609,8.25c0,3.531 1.203,5.297 3.609,5.297c2.594,0 5.281,-2.125 8.062,-6.375c0.469,0.594 0.704,1.125 0.704,1.594c0,1.75 -1.54,3.843 -4.618,6.281c-3.078,2.437 -5.726,3.656 -7.945,3.656c-4.437,0 -6.656,-2.844 -6.656,-8.531c0,-2.094 0.265,-5.484 0.797,-10.172l2.297,-20.719l-9.891,0l5.484,-5.437l5.016,0l0.984,-8.531l6.891,-2.297l-1.172,10.828l19.875,0l-5.484,5.437l-15,0Z" style="fill-rule:nonzero;"/>
  </g>
</svg>
