<svg width="100%" height="100%" viewBox="0 0 300 300" version="1.1" xmlns="http://www.w3.org/2000/svg" xmlns:xlink="http://www.w3.org/1999/xlink" xml:space="preserve" xmlns:serif="http://www.serif.com/" style="fill-rule:evenodd;clip-rule:evenodd;stroke-linecap:round;stroke-linejoin:round;stroke-miterlimit:1.5;">
  <path d="M78.773,66.049c-1.155,-1.155 -7.369,-0.225 -8.826,-0.225c-6.919,0 -17.367,0.937 -22.073,7.2c-2.821,3.754 -2.873,8.287 -3.257,12.694c-1.453,16.693 -0.965,38.458 14.841,49.006c17.467,11.657 27.398,-1.947 41.042,-12.198c16.577,-12.453 40.518,-12.78 54.837,3.417c4.013,4.539 8.173,9.077 10.479,14.788c10.991,27.215 -1.728,71.117 -27.155,86.959c-15.811,9.85 -37.072,9.829 -55.037,9.829c-10.958,0 -21.269,0.572 -31.503,-3.698c-13.43,-5.603 -20.271,-20.611 -25.33,-33.218c-1.446,-3.604 -0.045,-14.582 -2.313,-16.85" style="fill:none;stroke:#000;stroke-width:1px;"/>
  <path d="M107.588,164.245c-1.103,-1.104 -7.168,-0.226 -8.611,-0.226c-13.192,0 -14.681,11.195 -4.181,18.202c2.594,1.731 5.007,3.124 8.072,3.891c3.311,0.828 7.914,1.861 11.329,1.003c10.696,-2.688 11.749,-13.548 4.501,-20.796c-2.425,-2.425 -7.847,-2.577 -11.299,-2.577" style="fill:none;stroke:#000;stroke-width:1px;"/>
  <path d="M211.481,83.928c0,8.031 0,16.063 0,24.094c0,1.545 -1.002,7.057 0,8.232c1.447,1.697 13.122,-0.397 14.85,-0.493c3.331,-0.185 6.562,-0.252 9.885,-0.46c2.001,-0.126 4.016,0.167 6.014,0c6.536,-0.547 5.906,-2.268 5.906,-8.673l0,-34.225c0,-0.172 0.494,-3.731 0.255,-3.871c-5.204,-3.043 -18.627,0.63 -24.422,0c-5.143,-0.559 -9.751,-1.055 -14.974,-1.055l-18.14,0c-5.951,0 -7.063,0.774 -6.089,6.651c0.478,2.88 0.411,2.5 0.814,5.318c0.523,3.66 1.148,7.382 1.372,11.074c0.341,5.647 0.694,11.317 0.98,16.967c0.398,7.889 0,15.909 0,23.814c0,1.334 -1.021,7.629 0,8.826c0.689,0.809 6.866,0 7.536,0c9.095,0 18.191,0 27.286,0c7.908,0 15.919,0.285 23.824,0c3.913,-0.141 7.784,-1.13 11.619,-1.839c2.3,-0.425 1.975,-0.269 4.267,-0.853c8.685,-2.213 7.154,-4.428 7.154,-13.164c0,-5.106 0,-10.212 0,-15.318c0,-7.246 -0.205,-14.405 0.627,-21.622c0.316,-2.739 0.838,-5.45 1.258,-8.176c0.419,-2.725 0.846,-5.45 1.257,-8.176c0.561,-3.718 0.444,-3.38 0.915,-7.412c0.22,-1.889 3.257,-13.466 1.042,-15.932c-0.586,-0.652 -4.526,0.898 -4.949,0.934c-7.293,0.628 -14.784,0.742 -22.102,1.049c-19.488,0.818 -39.712,0.831 -59.199,0c-6.108,-0.261 -12.096,-1.638 -18.074,-2.724c-0.69,-0.126 -4.323,-1.417 -5.129,-0.686c-0.384,0.348 1.255,11.001 1.255,11.884l0,61.671" style="fill:none;stroke:#000;stroke-width:1px;"/><path d="M217.74,233.406c-3.42,0 -7.75,-11.648 -9.705,-14.366c-7.186,-9.993 -23.862,-30.719 -14.047,-43.904c4.392,-5.9 22.442,-13.515 29.534,-8.196c3.974,2.98 7.222,10.469 7.222,15.461c0,2.733 0,8.199 0,8.199c0,0 0,-3.123 0,-4.684c0,-2.627 0.431,-8.2 2.17,-10.104c5.26,-5.761 20.396,-9.438 27.805,-4.609c4.358,2.84 3.182,10.432 3.182,14.713c0,19.144 -15.821,29.451 -29.798,40.428c-2.524,1.982 -14.462,8.836 -14.462,10.153" style="fill:none;stroke:#000;stroke-width:1px;"/>
</svg>
