<?xml version="1.0" encoding="UTF-8" standalone="no"?>
<!DOCTYPE svg PUBLIC "-//W3C//DTD SVG 1.1//EN" "http://www.w3.org/Graphics/SVG/1.1/DTD/svg11.dtd">
<svg width="100%" height="100%" viewBox="0 0 300 300" version="1.1" 
  xmlns="http://www.w3.org/2000/svg" 
  xmlns:xlink="http://www.w3.org/1999/xlink" xml:space="preserve" 
  xmlns:serif="http://www.serif.com/" style="fill-rule:evenodd;clip-rule:evenodd;stroke-linecap:round;stroke-linejoin:round;stroke-miterlimit:1.5;">
  <path d="M61.682,106.243l62.554,-24.328l28.435,32.188l-40.88,25.905l-33.19,-1.881l3.7,-20.378l97.944,11.653c0,0 -45.026,-4.829 -47.858,27.312c-2.833,32.14 7.048,31.452 33.988,30.136c26.94,-1.316 31.675,2.041 39.169,-19.688c7.494,-21.729 2.964,-26.21 -11.574,-25.198c-14.539,1.013 -24.875,-1.949 -26.383,8.036c-1.508,9.985 16.491,9.359 4.664,13.689c-11.827,4.331 -23.348,6.038 -22.251,2.259c1.097,-3.78 -1.954,-9.808 0,-12.937c1.954,-3.128 3.259,-7.994 7.365,-10.801c4.105,-2.808 15.527,-7.212 20.857,-8.369c5.33,-1.157 9.796,-3.279 15.291,-2.291c5.495,0.989 21.311,1.571 26.949,5.359c5.639,3.788 8.78,3.365 10.586,13.091c1.805,9.726 6.981,11.417 1.19,26.553c-5.791,15.135 0.142,17.049 -13.486,23.516c-13.627,6.467 -13.978,9.505 -27.344,6.328c-13.366,-3.176 -10.506,-2.531 -26.82,-7.803c-16.313,-5.272 -12.851,-4.153 -23.868,-8.005c-11.017,-3.851 -18.754,-2.049 -21.706,-9.429c-2.952,-7.38 -9.174,-12.398 -4.807,-22.305c4.368,-9.908 5.701,-15.038 14.194,-22.004c8.493,-6.966 10.896,-8.719 21.599,-14.73c10.703,-6.012 22.204,-7.454 28.311,-12.792c6.107,-5.339 12.684,-3.084 5.537,-11.825c-7.148,-8.741 -13.16,-14.087 -27.158,-22.706c-13.997,-8.619 -12.489,-12.014 -28.904,-11.021c-16.416,0.994 -18.902,-1.806 -38.739,10.672c-19.838,12.477 -31.187,6.888 -47.745,33.284c-16.557,26.396 -37.693,21.838 -15.029,48.842c22.664,27.004 35.099,38.198 50.727,38.943c15.628,0.744 17.264,-3.793 24.248,-2.265c6.984,1.529 19.466,21.984 14.874,31.759c-4.591,9.775 -20.907,13.143 -28.448,9.323c-7.541,-3.82 -8.478,-4.454 -1.393,-20.298c7.085,-15.843 15.593,-25.286 11.59,-35.63c-4.004,-10.344 -12.942,-26.184 -23.71,-25.407c-10.768,0.778 -18.212,-18.24 -22.856,11.912c-4.644,30.152 -1.475,39.859 -1.228,43.494" style="fill:none;stroke:#000;stroke-width:0.75px;"/>
  <circle cx="55.967" cy="61.297" r="18.345" style="fill:#ebebeb;stroke:#000;stroke-width:1px;"/>
  <rect x="193.084" y="72.232" width="59.378" height="63.405" style="fill:#ebebeb;"/>
</svg>
