<?xml version="1.0" encoding="UTF-8" standalone="no"?>
<!DOCTYPE svg PUBLIC "-//W3C//DTD SVG 1.1//EN" "http://www.w3.org/Graphics/SVG/1.1/DTD/svg11.dtd">
<svg width="100%" height="100%" viewBox="0 0 300 300" version="1.1" 
  xmlns="http://www.w3.org/2000/svg" 
  xmlns:xlink="http://www.w3.org/1999/xlink" xml:space="preserve" 
  xmlns:serif="http://www.serif.com/" style="fill-rule:evenodd;clip-rule:evenodd;stroke-linejoin:round;stroke-miterlimit:1.41421;">
  <g>
    <!--<path d="M51.317,58.26l0,-1.5l7.172,0.141l6.609,-0.141l0,1.5c-1.859,0.031 -2.988,0.113 -3.386,0.246c-0.399,0.133 -0.676,0.317 -0.832,0.551c-0.188,0.312 -0.305,1.07 -0.352,2.273c-0.016,0.313 -0.047,2.532 -0.094,6.657l0,3.257c3.078,0.11 6.828,0.165 11.25,0.165c3.391,0 6.102,-0.055 8.133,-0.165l0,-3.257c0,-2.125 -0.031,-4.203 -0.094,-6.235c-0.047,-1.484 -0.16,-2.363 -0.34,-2.636c-0.179,-0.274 -0.468,-0.477 -0.867,-0.61c-0.398,-0.133 -1.527,-0.215 -3.386,-0.246l0,-1.5c3.359,0.094 5.664,0.141 6.914,0.141c0.468,0 2.75,-0.047 6.843,-0.141l0,1.5c-1.843,0.031 -2.968,0.113 -3.375,0.246c-0.406,0.133 -0.679,0.317 -0.82,0.551c-0.203,0.312 -0.328,1.07 -0.375,2.273c-0.016,0.313 -0.047,2.532 -0.094,6.657l0,10.851c0,2.125 0.032,4.196 0.094,6.211c0.031,1.485 0.137,2.367 0.316,2.649c0.18,0.281 0.473,0.488 0.879,0.621c0.407,0.132 1.532,0.215 3.375,0.246l0,1.5c-3.015,-0.125 -5.484,-0.188 -7.406,-0.188c-2.047,0 -4.164,0.063 -6.351,0.188l0,-1.5c1.859,-0.031 2.988,-0.114 3.386,-0.246c0.399,-0.133 0.676,-0.317 0.832,-0.551c0.203,-0.313 0.321,-1.07 0.352,-2.274c0.015,-0.328 0.055,-2.546 0.117,-6.656l0,-5.344c-4.375,-0.093 -7.695,-0.14 -9.961,-0.14c-2.469,0 -5.609,0.047 -9.422,0.14l0,5.344c0,2.125 0.024,4.196 0.071,6.211c0.046,1.485 0.16,2.367 0.339,2.649c0.18,0.281 0.469,0.488 0.868,0.621c0.398,0.132 1.527,0.215 3.386,0.246l0,1.5c-2.109,-0.141 -4.281,-0.211 -6.515,-0.211c-2.438,0 -4.86,0.07 -7.266,0.211l0,-1.5c1.844,-0.031 2.969,-0.114 3.375,-0.246c0.406,-0.133 0.688,-0.317 0.844,-0.551c0.187,-0.313 0.304,-1.07 0.351,-2.274c0.016,-0.328 0.047,-2.546 0.094,-6.656l0,-10.851c0,-2.125 -0.023,-4.203 -0.07,-6.235c-0.047,-1.484 -0.16,-2.363 -0.34,-2.636c-0.18,-0.274 -0.469,-0.477 -0.867,-0.61c-0.399,-0.133 -1.528,-0.215 -3.387,-0.246Z" style="fill-rule:nonzero;"/>
    <path d="M110.825,86.432l-0.75,1.687c-1.078,0.672 -1.867,1.118 -2.367,1.336c-0.735,0.329 -1.575,0.606 -2.52,0.832c-0.945,0.227 -1.941,0.34 -2.988,0.34c-2.063,0 -3.93,-0.429 -5.602,-1.289c-1.672,-0.859 -2.972,-2.144 -3.902,-3.855c-0.93,-1.711 -1.395,-3.715 -1.395,-6.012c0,-1.797 0.246,-3.418 0.739,-4.863c0.492,-1.446 1.05,-2.512 1.675,-3.199c0.454,-0.5 1.157,-1.075 2.11,-1.723c0.953,-0.649 1.898,-1.16 2.836,-1.535c1.234,-0.516 2.57,-0.774 4.008,-0.774c1.75,0 3.332,0.399 4.746,1.196c1.414,0.796 2.449,1.882 3.105,3.257c0.656,1.375 0.985,2.93 0.985,4.664c0,0.438 -0.032,0.969 -0.094,1.594c-1.125,0.219 -2.133,0.36 -3.024,0.422c-1.687,0.125 -3.375,0.188 -5.062,0.188l-7.524,0c0.032,2.234 0.418,4.043 1.161,5.425c0.742,1.383 1.765,2.403 3.07,3.059c1.305,0.656 2.66,0.984 4.066,0.984c0.953,0 1.903,-0.152 2.848,-0.457c0.945,-0.304 2.113,-0.863 3.504,-1.675l0.375,0.398Zm-15.024,-9.586c0.438,0.047 1.266,0.094 2.485,0.141c2.328,0.078 3.929,0.117 4.804,0.117c2.079,0 3.446,-0.039 4.102,-0.117c0.016,-0.375 0.023,-0.664 0.023,-0.868c0,-2.468 -0.5,-4.281 -1.5,-5.437c-1,-1.156 -2.335,-1.734 -4.007,-1.734c-1.766,0 -3.188,0.632 -4.266,1.898c-1.078,1.266 -1.625,3.266 -1.641,6Z" style="fill-rule:nonzero;"/>
    <path d="M114.294,90.065l0,-1.336l2.203,-0.024c0.343,-0.015 0.605,-0.074 0.785,-0.175c0.18,-0.102 0.316,-0.231 0.41,-0.387c0.172,-0.313 0.273,-0.867 0.305,-1.664c0.015,-0.203 0.07,-2.445 0.164,-6.727l0,-9.726c0,-2.61 -0.047,-5.305 -0.141,-8.086c-0.062,-1.875 -0.148,-2.922 -0.258,-3.141c-0.078,-0.156 -0.203,-0.265 -0.375,-0.328c-0.234,-0.109 -1.312,-0.164 -3.234,-0.164l0,-1.383c3.531,-0.437 5.984,-0.984 7.359,-1.64c0.203,-0.094 0.36,-0.141 0.469,-0.141c0.109,0 0.195,0.035 0.258,0.105c0.062,0.071 0.094,0.168 0.094,0.293c0,0.11 -0.016,0.266 -0.047,0.469l-0.024,0.774c-0.078,2.796 -0.125,5.179 -0.14,7.148l-0.047,3.656l0,12.164c0.078,4.063 0.125,6.258 0.14,6.586c0.016,0.781 0.11,1.352 0.282,1.711c0.062,0.141 0.156,0.262 0.281,0.363c0.125,0.102 0.312,0.184 0.562,0.247c0.11,0.015 0.977,0.039 2.602,0.07l0,1.336c-2.125,-0.125 -3.992,-0.188 -5.602,-0.188c-1.531,0 -3.546,0.063 -6.046,0.188Z" style="fill-rule:nonzero;"/>
    <path d="M128.262,90.065l0,-1.336l2.203,-0.024c0.344,-0.015 0.606,-0.074 0.786,-0.175c0.179,-0.102 0.316,-0.231 0.41,-0.387c0.172,-0.313 0.273,-0.867 0.304,-1.664c0.016,-0.203 0.071,-2.445 0.165,-6.727l0,-9.726c0,-2.61 -0.047,-5.305 -0.141,-8.086c-0.063,-1.875 -0.149,-2.922 -0.258,-3.141c-0.078,-0.156 -0.203,-0.265 -0.375,-0.328c-0.234,-0.109 -1.312,-0.164 -3.234,-0.164l0,-1.383c3.531,-0.437 5.984,-0.984 7.359,-1.64c0.203,-0.094 0.359,-0.141 0.469,-0.141c0.109,0 0.195,0.035 0.258,0.105c0.062,0.071 0.093,0.168 0.093,0.293c0,0.11 -0.015,0.266 -0.046,0.469l-0.024,0.774c-0.078,2.796 -0.125,5.179 -0.141,7.148l-0.046,3.656l0,12.164c0.078,4.063 0.125,6.258 0.14,6.586c0.016,0.781 0.11,1.352 0.281,1.711c0.063,0.141 0.157,0.262 0.282,0.363c0.125,0.102 0.312,0.184 0.562,0.247c0.11,0.015 0.977,0.039 2.602,0.07l0,1.336c-2.125,-0.125 -3.992,-0.188 -5.602,-0.188c-1.531,0 -3.547,0.063 -6.047,0.188Z" style="fill-rule:nonzero;"/>
    -->
    <path d="M142.63,79.284c0,-3.5 1.113,-6.356 3.339,-8.567c2.227,-2.211 5.082,-3.316 8.567,-3.316c3.281,0 5.953,1.031 8.015,3.093c2.063,2.063 3.094,4.727 3.094,7.993c0,2.281 -0.531,4.367 -1.594,6.257c-1.062,1.891 -2.562,3.372 -4.5,4.442c-1.937,1.07 -4.07,1.605 -6.398,1.605c-1.813,0 -3.348,-0.304 -4.606,-0.914c-1.257,-0.609 -2.277,-1.375 -3.058,-2.297c-0.781,-0.921 -1.375,-1.867 -1.781,-2.836c-0.719,-1.703 -1.078,-3.523 -1.078,-5.46Zm4.429,-1.735c0,1.922 0.321,3.875 0.961,5.86c0.641,1.984 1.567,3.433 2.777,4.347c1.211,0.914 2.528,1.371 3.95,1.371c1.812,0 3.328,-0.718 4.547,-2.156c1.218,-1.437 1.828,-3.648 1.828,-6.633c0,-2.484 -0.364,-4.629 -1.09,-6.433c-0.727,-1.805 -1.652,-3.079 -2.777,-3.821c-1.125,-0.742 -2.368,-1.113 -3.727,-1.113c-1.922,0 -3.481,0.695 -4.676,2.086c-1.195,1.391 -1.793,3.555 -1.793,6.492Z" style="fill-rule:nonzero;"/>
  </g>
  <!-->
  <g>
    <path d="M39.789,189.582c0.48,-0.72 1.1,-1.64 1.86,-2.76c0.76,-1.12 1.78,-2.64 3.06,-4.56c1.28,-1.92 2.9,-4.36 4.86,-7.32c1.96,-2.96 4.34,-6.64 7.14,-11.04c-0.96,-1.44 -1.56,-2.52 -1.8,-3.24c0.08,-0.4 0.48,-0.6 1.2,-0.6l2.04,0c0.56,0 0.96,-0.32 1.2,-0.96c0.4,-0.72 1.1,-2 2.1,-3.84c1,-1.84 2.04,-3.8 3.12,-5.88c1.08,-2.08 2.02,-4.04 2.82,-5.88c0.8,-1.84 1.2,-3.08 1.2,-3.72c0,-0.96 -0.24,-1.56 -0.72,-1.8c-0.48,-0.24 -1.24,-0.36 -2.28,-0.36c-0.88,0 -1.9,0.02 -3.06,0.06c-1.16,0.04 -2.18,0.14 -3.06,0.3c-0.48,0 -0.72,-0.24 -0.72,-0.72c0,-0.48 0.32,-0.72 0.96,-0.72c0.96,0 2.14,-0.02 3.54,-0.06c1.4,-0.04 2.88,-0.12 4.44,-0.24c1.56,-0.12 3.12,-0.24 4.68,-0.36c1.56,-0.12 2.98,-0.22 4.26,-0.3c0.8,0 0.92,0.52 0.36,1.56c-0.8,1.12 -1.66,2.4 -2.58,3.84c-0.92,1.44 -1.78,2.84 -2.58,4.2c-1.2,2.08 -2.52,4.44 -3.96,7.08c-1.44,2.64 -2.72,5.04 -3.84,7.2c-0.24,0.4 -0.38,0.72 -0.42,0.96c-0.04,0.24 0.18,0.36 0.66,0.36c1.84,0.08 3.54,0.14 5.1,0.18c1.56,0.04 2.98,0.06 4.26,0.06c0.72,0 1.94,-0.04 3.66,-0.12c1.72,-0.08 3.56,-0.16 5.52,-0.24c1.96,-0.08 3.86,-0.2 5.7,-0.36c1.84,-0.16 3.28,-0.28 4.32,-0.36c0.4,-0.08 0.76,-0.24 1.08,-0.48c0.32,-0.24 0.56,-0.52 0.72,-0.84c2.4,-4.64 4.64,-8.88 6.72,-12.72c2.08,-3.84 4.2,-7.52 6.36,-11.04c0.4,-0.56 0.92,-1 1.56,-1.32c0.8,-0.48 2,-1.08 3.6,-1.8c1.6,-0.72 3.28,-1.42 5.04,-2.1c1.76,-0.68 3.4,-1.26 4.92,-1.74c1.52,-0.48 2.64,-0.72 3.36,-0.72c0.16,0 0.44,0.04 0.84,0.12c0.4,0.08 0.6,0.24 0.6,0.48c0,0.16 -0.16,0.28 -0.48,0.36c-0.32,0.08 -0.56,0.12 -0.72,0.12c-0.24,0 -0.72,0.06 -1.44,0.18c-0.72,0.12 -1.52,0.32 -2.4,0.6c-0.88,0.28 -1.78,0.64 -2.7,1.08c-0.92,0.44 -1.74,0.98 -2.46,1.62c-1.92,1.6 -3.72,3.52 -5.4,5.76c-1.12,1.6 -2.28,3.32 -3.48,5.16c-1.2,1.84 -2.36,3.72 -3.48,5.64c-1.12,1.92 -2.2,3.84 -3.24,5.76c-1.04,1.92 -1.96,3.72 -2.76,5.4c-2.88,6 -4.96,10.84 -6.24,14.52c-1.28,3.68 -1.92,6.36 -1.92,8.04c0,3.12 1.6,4.68 4.8,4.68c1.12,0 2.5,-0.28 4.14,-0.84c1.64,-0.56 2.94,-1.16 3.9,-1.8c0.24,0 0.4,0.1 0.48,0.3c0.08,0.2 -0.04,0.46 -0.36,0.78c-1.6,0.72 -3.64,1.5 -6.12,2.34c-2.48,0.84 -5.52,1.34 -9.12,1.5c-1.36,-0.08 -2.36,-0.52 -3,-1.32c-0.64,-0.8 -0.96,-1.84 -0.96,-3.12c0,-1.36 0.24,-2.8 0.72,-4.32c0.8,-2.32 1.7,-4.66 2.7,-7.02c1,-2.36 1.94,-4.46 2.82,-6.3c0.32,-0.64 0.48,-1.32 0.48,-2.04c0,-1.12 -0.6,-1.88 -1.8,-2.28c-1.2,-0.4 -2.36,-0.6 -3.48,-0.6c-1.92,0 -3.96,0.04 -6.12,0.12c-2.16,0.08 -4.3,0.2 -6.42,0.36c-2.12,0.16 -4.14,0.34 -6.06,0.54c-1.92,0.2 -3.56,0.42 -4.92,0.66c-0.48,0.08 -0.88,0.28 -1.2,0.6c-0.32,0.32 -0.64,0.72 -0.96,1.2c-1.84,3.2 -3.86,6.62 -6.06,10.26c-2.2,3.64 -4.02,7.26 -5.46,10.86c-0.16,0.48 -0.32,0.8 -0.48,0.96c-0.16,0.16 -0.56,0.24 -1.2,0.24c-0.72,0 -1.36,0.02 -1.92,0.06c-0.56,0.04 -1.08,0.14 -1.56,0.3c-0.48,0.16 -1,0.36 -1.56,0.6c-0.56,0.24 -1.24,0.6 -2.04,1.08l-0.36,-0.24Z" style="fill:#7ab483;fill-rule:nonzero;stroke:#000;stroke-width:1px;"/>
    <path d="M137.469,174.222c-1.36,1.68 -2.98,3.42 -4.86,5.22c-1.88,1.8 -3.92,3.44 -6.12,4.92c-2.2,1.48 -4.48,2.68 -6.84,3.6c-2.36,0.92 -4.7,1.38 -7.02,1.38c-3.76,0 -5.64,-1.68 -5.64,-5.04c0,-2.24 0.58,-4.66 1.74,-7.26c1.16,-2.6 2.66,-5 4.5,-7.2c1.84,-2.2 3.86,-4.04 6.06,-5.52c2.2,-1.48 4.3,-2.22 6.3,-2.22c1.12,0 1.9,0.2 2.34,0.6c0.44,0.4 0.66,0.92 0.66,1.56c0,0.96 -0.3,2 -0.9,3.12c-0.6,1.12 -1.5,2.18 -2.7,3.18c-1.2,1 -2.72,1.84 -4.56,2.52c-1.84,0.68 -4.04,1.02 -6.6,1.02c-0.4,0.72 -0.84,1.86 -1.32,3.42c-0.48,1.56 -0.72,3.14 -0.72,4.74c0,3.28 1.48,4.92 4.44,4.92c1.84,0 3.74,-0.44 5.7,-1.32c1.96,-0.88 3.86,-1.98 5.7,-3.3c1.84,-1.32 3.54,-2.76 5.1,-4.32c1.56,-1.56 2.86,-3.02 3.9,-4.38c0.16,-0.16 0.34,-0.2 0.54,-0.12c0.2,0.08 0.3,0.24 0.3,0.48Zm-12.6,-9.36c0,-1.04 -0.52,-1.56 -1.56,-1.56c-0.8,0 -1.62,0.3 -2.46,0.9c-0.84,0.6 -1.66,1.38 -2.46,2.34c-0.8,0.96 -1.56,2 -2.28,3.12c-0.72,1.12 -1.32,2.2 -1.8,3.24c0.16,0.08 0.44,0.14 0.84,0.18c0.4,0.04 0.72,0.06 0.96,0.06c2.32,0 4.36,-0.82 6.12,-2.46c1.76,-1.64 2.64,-3.58 2.64,-5.82Z" style="fill-rule:nonzero;"/>
    <path d="M188.709,110.262c0,1.12 -0.44,2.76 -1.32,4.92c-0.88,2.16 -2.14,4.66 -3.78,7.5c-1.64,2.84 -3.64,5.88 -6,9.12c-2.36,3.24 -5.04,6.46 -8.04,9.66c-3,3.2 -6.3,6.26 -9.9,9.18c-3.6,2.92 -7.44,5.5 -11.52,7.74c-0.72,1.28 -1.72,3 -3,5.16c-1.28,2.16 -2.54,4.44 -3.78,6.84c-1.24,2.4 -2.32,4.76 -3.24,7.08c-0.92,2.32 -1.38,4.28 -1.38,5.88c0,2.56 1.16,3.84 3.48,3.84c2,0 4.08,-0.56 6.24,-1.68c2.16,-1.12 4.22,-2.48 6.18,-4.08c1.96,-1.6 3.8,-3.3 5.52,-5.1c1.72,-1.8 3.18,-3.42 4.38,-4.86c0.56,-0.56 0.88,-0.7 0.96,-0.42c0.08,0.28 -0.04,0.58 -0.36,0.9c-1.44,1.76 -3.14,3.64 -5.1,5.64c-1.96,2 -4.04,3.84 -6.24,5.52c-2.2,1.68 -4.5,3.08 -6.9,4.2c-2.4,1.12 -4.8,1.68 -7.2,1.68c-2.08,0 -3.58,-0.5 -4.5,-1.5c-0.92,-1 -1.38,-2.22 -1.38,-3.66c0,-1.44 0.62,-3.5 1.86,-6.18c1.24,-2.68 2.7,-5.5 4.38,-8.46c1.68,-2.96 3.36,-5.76 5.04,-8.4c1.68,-2.64 2.92,-4.64 3.72,-6c1.36,-2.32 2.78,-4.74 4.26,-7.26c1.48,-2.52 2.94,-4.98 4.38,-7.38c1.44,-2.4 2.82,-4.7 4.14,-6.9c1.32,-2.2 2.54,-4.14 3.66,-5.82c1.36,-2.08 2.76,-4.04 4.2,-5.88c1.44,-1.84 3.28,-3.68 5.52,-5.52c3.04,-2.56 5.84,-4.52 8.4,-5.88c2.56,-1.36 4.28,-2.04 5.16,-2.04c0.64,0 1.16,0.18 1.56,0.54c0.4,0.36 0.6,0.9 0.6,1.62Zm-5.4,3.12c0,-1.28 -0.52,-1.92 -1.56,-1.92c-0.4,0 -0.84,0.12 -1.32,0.36c-0.48,0.24 -1.1,0.74 -1.86,1.5c-0.76,0.76 -1.68,1.82 -2.76,3.18c-1.08,1.36 -2.46,3.12 -4.14,5.28c-0.64,0.88 -1.54,2.16 -2.7,3.84c-1.16,1.68 -2.64,3.9 -4.44,6.66c-1.8,2.76 -3.96,6.16 -6.48,10.2c-2.52,4.04 -5.5,8.82 -8.94,14.34c4.8,-2.72 9.3,-6.02 13.5,-9.9c4.2,-3.88 7.82,-7.86 10.86,-11.94c3.04,-4.08 5.44,-8.04 7.2,-11.88c1.76,-3.84 2.64,-7.08 2.64,-9.72Z" style="fill-rule:nonzero;"/>
    <path d="M213.069,110.262c0,1.12 -0.44,2.76 -1.32,4.92c-0.88,2.16 -2.14,4.66 -3.78,7.5c-1.64,2.84 -3.64,5.88 -6,9.12c-2.36,3.24 -5.04,6.46 -8.04,9.66c-3,3.2 -6.3,6.26 -9.9,9.18c-3.6,2.92 -7.44,5.5 -11.52,7.74c-0.72,1.28 -1.72,3 -3,5.16c-1.28,2.16 -2.54,4.44 -3.78,6.84c-1.24,2.4 -2.32,4.76 -3.24,7.08c-0.92,2.32 -1.38,4.28 -1.38,5.88c0,2.56 1.16,3.84 3.48,3.84c2,0 4.08,-0.56 6.24,-1.68c2.16,-1.12 4.22,-2.48 6.18,-4.08c1.96,-1.6 3.8,-3.3 5.52,-5.1c1.72,-1.8 3.18,-3.42 4.38,-4.86c0.56,-0.56 0.88,-0.7 0.96,-0.42c0.08,0.28 -0.04,0.58 -0.36,0.9c-1.44,1.76 -3.14,3.64 -5.1,5.64c-1.96,2 -4.04,3.84 -6.24,5.52c-2.2,1.68 -4.5,3.08 -6.9,4.2c-2.4,1.12 -4.8,1.68 -7.2,1.68c-2.08,0 -3.58,-0.5 -4.5,-1.5c-0.92,-1 -1.38,-2.22 -1.38,-3.66c0,-1.44 0.62,-3.5 1.86,-6.18c1.24,-2.68 2.7,-5.5 4.38,-8.46c1.68,-2.96 3.36,-5.76 5.04,-8.4c1.68,-2.64 2.92,-4.64 3.72,-6c1.36,-2.32 2.78,-4.74 4.26,-7.26c1.48,-2.52 2.94,-4.98 4.38,-7.38c1.44,-2.4 2.82,-4.7 4.14,-6.9c1.32,-2.2 2.54,-4.14 3.66,-5.82c1.36,-2.08 2.76,-4.04 4.2,-5.88c1.44,-1.84 3.28,-3.68 5.52,-5.52c3.04,-2.56 5.84,-4.52 8.4,-5.88c2.56,-1.36 4.28,-2.04 5.16,-2.04c0.64,0 1.16,0.18 1.56,0.54c0.4,0.36 0.6,0.9 0.6,1.62Zm-5.4,3.12c0,-1.28 -0.52,-1.92 -1.56,-1.92c-0.4,0 -0.84,0.12 -1.32,0.36c-0.48,0.24 -1.1,0.74 -1.86,1.5c-0.76,0.76 -1.68,1.82 -2.76,3.18c-1.08,1.36 -2.46,3.12 -4.14,5.28c-0.64,0.88 -1.54,2.16 -2.7,3.84c-1.16,1.68 -2.64,3.9 -4.44,6.66c-1.8,2.76 -3.96,6.16 -6.48,10.2c-2.52,4.04 -5.5,8.82 -8.94,14.34c4.8,-2.72 9.3,-6.02 13.5,-9.9c4.2,-3.88 7.82,-7.86 10.86,-11.94c3.04,-4.08 5.44,-8.04 7.2,-11.88c1.76,-3.84 2.64,-7.08 2.64,-9.72Z" style="fill-rule:nonzero;"/>
    <path d="M220.389,168.102c-1.36,1.84 -3.02,3.5 -4.98,4.98c-1.96,1.48 -4.18,2.22 -6.66,2.22c-1.36,0 -2.7,-0.34 -4.02,-1.02c-1.32,-0.68 -2.38,-1.7 -3.18,-3.06c-0.56,1.28 -1.28,2.74 -2.16,4.38c-0.88,1.64 -1.92,3.28 -3.12,4.92c-1.2,1.64 -2.54,3.14 -4.02,4.5c-1.48,1.36 -3.06,2.48 -4.74,3.36c-1.44,0.64 -2.64,0.96 -3.6,0.96c-2.88,0 -4.32,-1.28 -4.32,-3.84c0,-1.44 0.26,-2.92 0.78,-4.44c0.52,-1.52 1.18,-3 1.98,-4.44c0.8,-1.44 1.66,-2.8 2.58,-4.08c0.92,-1.28 1.78,-2.32 2.58,-3.12c1.68,-1.84 3.6,-3.4 5.76,-4.68c2.16,-1.28 4.48,-2.04 6.96,-2.28c0.16,-0.64 0.4,-1.38 0.72,-2.22c0.32,-0.84 0.88,-1.34 1.68,-1.5c0.4,-0.08 0.8,-0.16 1.2,-0.24c0.4,-0.08 0.76,-0.2 1.08,-0.36c0.24,-0.16 0.48,-0.18 0.72,-0.06c0.24,0.12 0.28,0.34 0.12,0.66c-0.56,0.88 -0.98,2 -1.26,3.36c-0.28,1.36 -0.42,2.84 -0.42,4.44c0,2.24 0.42,4.08 1.26,5.52c0.84,1.44 2.3,2.16 4.38,2.16c2.08,0 3.96,-0.68 5.64,-2.04c1.68,-1.36 3.08,-2.84 4.2,-4.44c0.16,-0.4 0.42,-0.52 0.78,-0.36c0.36,0.16 0.38,0.4 0.06,0.72Zm-19.8,0.84c-0.16,-0.72 -0.28,-1.56 -0.36,-2.52c-0.08,-0.96 -0.12,-1.88 -0.12,-2.76c0,-0.4 -0.16,-0.6 -0.48,-0.6c-0.88,0 -1.8,0.3 -2.76,0.9c-0.96,0.6 -1.92,1.4 -2.88,2.4c-0.96,1 -1.92,2.14 -2.88,3.42c-0.96,1.28 -1.84,2.6 -2.64,3.96c-1.04,1.76 -1.98,3.66 -2.82,5.7c-0.84,2.04 -1.22,3.98 -1.14,5.82c0,0.56 0.1,1.08 0.3,1.56c0.2,0.48 0.66,0.72 1.38,0.72c1.36,0 2.84,-0.76 4.44,-2.28c1.6,-1.52 3.12,-3.3 4.56,-5.34c1.44,-2.04 2.66,-4.1 3.66,-6.18c1,-2.08 1.58,-3.68 1.74,-4.8Z" style="fill-rule:nonzero;"/>
  </g>
  <path d="M39.789,219.165c0,0 3.143,3.231 11.528,-0.712c8.385,-3.942 -8.121,38.481 -11.528,48.352c-3.406,9.871 -2.21,22.992 -11.089,10.258c-8.878,-12.734 11.089,-19.393 11.089,-19.393c0,0 9.732,-10.099 17.57,-7.275c7.838,2.823 13.713,-5.394 21.032,-31.571c7.32,-26.177 26.672,-12.102 15.187,-5.961" style="fill:none;stroke:#000;stroke-width:1px;stroke-linecap:round;stroke-miterlimit:1.5;"/>
  <path d="M70.102,242.937c0,0 -22.029,44.745 -8.321,39.393c13.707,-5.353 28.323,-20.076 35.356,-18.116c7.032,1.959 25.254,-24.317 0,-21.277c-25.254,3.04 -16.143,19.012 -8.25,23.368c7.893,4.355 9.717,9.901 27.42,10.982c17.702,1.081 47.284,-34.903 44.384,-57.056c-2.9,-22.153 -50.259,54.688 -10.691,56.399c39.568,1.712 56.064,-40.294 44.981,-56.854c-11.083,-16.559 -35.293,59.962 0.453,56.423c35.747,-3.539 50.58,-4.551 52.083,-23.746c1.003,-12.801 -8.76,-20.541 -15.589,-21.487c-6.829,-0.947 -15.669,5.986 -16.805,19.582c-1.412,16.889 7.675,21.388 19.08,15.396" style="fill:none;stroke:#000;stroke-width:1px;stroke-linecap:round;stroke-miterlimit:1.5;"/>

  -->
</svg>
