<?xml version="1.0" encoding="UTF-8" standalone="no"?>
<!DOCTYPE svg PUBLIC "-//W3C//DTD SVG 1.1//EN" "http://www.w3.org/Graphics/SVG/1.1/DTD/svg11.dtd">
<svg width="100%" height="100%" viewBox="0 0 300 300" version="1.1" xmlns="http://www.w3.org/2000/svg" xmlns:xlink="http://www.w3.org/1999/xlink" xml:space="preserve" xmlns:serif="http://www.serif.com/" style="fill-rule:evenodd;clip-rule:evenodd;stroke-linejoin:round;stroke-miterlimit:1.41421;">
    <g>
        <path d="M51.317,58.26L51.317,56.76L58.489,56.901L65.098,56.76L65.098,58.26C63.239,58.291 62.11,58.373 61.712,58.506C61.313,58.639 61.036,58.823 60.88,59.057C60.692,59.369 60.575,60.127 60.528,61.33C60.512,61.643 60.481,63.862 60.434,67.987L60.434,71.244C63.512,71.354 67.262,71.409 71.684,71.409C75.075,71.409 77.786,71.354 79.817,71.244L79.817,67.987C79.817,65.862 79.786,63.784 79.723,61.752C79.676,60.268 79.563,59.389 79.383,59.116C79.204,58.842 78.915,58.639 78.516,58.506C78.118,58.373 76.989,58.291 75.13,58.26L75.13,56.76C78.489,56.854 80.794,56.901 82.044,56.901C82.512,56.901 84.794,56.854 88.887,56.76L88.887,58.26C87.044,58.291 85.919,58.373 85.512,58.506C85.106,58.639 84.833,58.823 84.692,59.057C84.489,59.369 84.364,60.127 84.317,61.33C84.301,61.643 84.27,63.862 84.223,67.987L84.223,78.838C84.223,80.963 84.255,83.034 84.317,85.049C84.348,86.534 84.454,87.416 84.633,87.698C84.813,87.979 85.106,88.186 85.512,88.319C85.919,88.451 87.044,88.534 88.887,88.565L88.887,90.065C85.872,89.94 83.403,89.877 81.481,89.877C79.434,89.877 77.317,89.94 75.13,90.065L75.13,88.565C76.989,88.534 78.118,88.451 78.516,88.319C78.915,88.186 79.192,88.002 79.348,87.768C79.551,87.455 79.669,86.698 79.7,85.494C79.715,85.166 79.755,82.948 79.817,78.838L79.817,73.494C75.442,73.401 72.122,73.354 69.856,73.354C67.387,73.354 64.247,73.401 60.434,73.494L60.434,78.838C60.434,80.963 60.458,83.034 60.505,85.049C60.551,86.534 60.665,87.416 60.844,87.698C61.024,87.979 61.313,88.186 61.712,88.319C62.11,88.451 63.239,88.534 65.098,88.565L65.098,90.065C62.989,89.924 60.817,89.854 58.583,89.854C56.145,89.854 53.723,89.924 51.317,90.065L51.317,88.565C53.161,88.534 54.286,88.451 54.692,88.319C55.098,88.186 55.38,88.002 55.536,87.768C55.723,87.455 55.84,86.698 55.887,85.494C55.903,85.166 55.934,82.948 55.981,78.838L55.981,67.987C55.981,65.862 55.958,63.784 55.911,61.752C55.864,60.268 55.751,59.389 55.571,59.116C55.391,58.842 55.102,58.639 54.704,58.506C54.305,58.373 53.176,58.291 51.317,58.26Z" style="fill-rule:nonzero;"/>
        <path d="M110.825,86.432L110.075,88.119C108.997,88.791 108.208,89.237 107.708,89.455C106.973,89.784 106.133,90.061 105.188,90.287C104.243,90.514 103.247,90.627 102.2,90.627C100.137,90.627 98.27,90.198 96.598,89.338C94.926,88.479 93.626,87.194 92.696,85.483C91.766,83.772 91.301,81.768 91.301,79.471C91.301,77.674 91.547,76.053 92.04,74.608C92.532,73.162 93.09,72.096 93.715,71.409C94.169,70.909 94.872,70.334 95.825,69.686C96.778,69.037 97.723,68.526 98.661,68.151C99.895,67.635 101.231,67.377 102.669,67.377C104.419,67.377 106.001,67.776 107.415,68.573C108.829,69.369 109.864,70.455 110.52,71.83C111.176,73.205 111.505,74.76 111.505,76.494C111.505,76.932 111.473,77.463 111.411,78.088C110.286,78.307 109.278,78.448 108.387,78.51C106.7,78.635 105.012,78.698 103.325,78.698L95.801,78.698C95.833,80.932 96.219,82.741 96.962,84.123C97.704,85.506 98.727,86.526 100.032,87.182C101.337,87.838 102.692,88.166 104.098,88.166C105.051,88.166 106.001,88.014 106.946,87.709C107.891,87.405 109.059,86.846 110.45,86.034L110.825,86.432ZM95.801,76.846C96.239,76.893 97.067,76.94 98.286,76.987C100.614,77.065 102.215,77.104 103.09,77.104C105.169,77.104 106.536,77.065 107.192,76.987C107.208,76.612 107.215,76.323 107.215,76.119C107.215,73.651 106.715,71.838 105.715,70.682C104.715,69.526 103.38,68.948 101.708,68.948C99.942,68.948 98.52,69.58 97.442,70.846C96.364,72.112 95.817,74.112 95.801,76.846Z" style="fill-rule:nonzero;"/>
        <path d="M114.294,90.065L114.294,88.729L116.497,88.705C116.84,88.69 117.102,88.631 117.282,88.53C117.462,88.428 117.598,88.299 117.692,88.143C117.864,87.83 117.965,87.276 117.997,86.479C118.012,86.276 118.067,84.034 118.161,79.752L118.161,70.026C118.161,67.416 118.114,64.721 118.02,61.94C117.958,60.065 117.872,59.018 117.762,58.799C117.684,58.643 117.559,58.534 117.387,58.471C117.153,58.362 116.075,58.307 114.153,58.307L114.153,56.924C117.684,56.487 120.137,55.94 121.512,55.284C121.715,55.19 121.872,55.143 121.981,55.143C122.09,55.143 122.176,55.178 122.239,55.248C122.301,55.319 122.333,55.416 122.333,55.541C122.333,55.651 122.317,55.807 122.286,56.01L122.262,56.784C122.184,59.58 122.137,61.963 122.122,63.932L122.075,67.588L122.075,79.752C122.153,83.815 122.2,86.01 122.215,86.338C122.231,87.119 122.325,87.69 122.497,88.049C122.559,88.19 122.653,88.311 122.778,88.412C122.903,88.514 123.09,88.596 123.34,88.659C123.45,88.674 124.317,88.698 125.942,88.729L125.942,90.065C123.817,89.94 121.95,89.877 120.34,89.877C118.809,89.877 116.794,89.94 114.294,90.065Z" style="fill-rule:nonzero;"/>
        <path d="M128.262,90.065L128.262,88.729L130.465,88.705C130.809,88.69 131.071,88.631 131.251,88.53C131.43,88.428 131.567,88.299 131.661,88.143C131.833,87.83 131.934,87.276 131.965,86.479C131.981,86.276 132.036,84.034 132.13,79.752L132.13,70.026C132.13,67.416 132.083,64.721 131.989,61.94C131.926,60.065 131.84,59.018 131.731,58.799C131.653,58.643 131.528,58.534 131.356,58.471C131.122,58.362 130.044,58.307 128.122,58.307L128.122,56.924C131.653,56.487 134.106,55.94 135.481,55.284C135.684,55.19 135.84,55.143 135.95,55.143C136.059,55.143 136.145,55.178 136.208,55.248C136.27,55.319 136.301,55.416 136.301,55.541C136.301,55.651 136.286,55.807 136.255,56.01L136.231,56.784C136.153,59.58 136.106,61.963 136.09,63.932L136.044,67.588L136.044,79.752C136.122,83.815 136.169,86.01 136.184,86.338C136.2,87.119 136.294,87.69 136.465,88.049C136.528,88.19 136.622,88.311 136.747,88.412C136.872,88.514 137.059,88.596 137.309,88.659C137.419,88.674 138.286,88.698 139.911,88.729L139.911,90.065C137.786,89.94 135.919,89.877 134.309,89.877C132.778,89.877 130.762,89.94 128.262,90.065Z" style="fill-rule:nonzero;"/>
        <path d="M142.63,79.284C142.63,75.784 143.743,72.928 145.969,70.717C148.196,68.506 151.051,67.401 154.536,67.401C157.817,67.401 160.489,68.432 162.551,70.494C164.614,72.557 165.645,75.221 165.645,78.487C165.645,80.768 165.114,82.854 164.051,84.744C162.989,86.635 161.489,88.116 159.551,89.186C157.614,90.256 155.481,90.791 153.153,90.791C151.34,90.791 149.805,90.487 148.547,89.877C147.29,89.268 146.27,88.502 145.489,87.58C144.708,86.659 144.114,85.713 143.708,84.744C142.989,83.041 142.63,81.221 142.63,79.284ZM147.059,77.549C147.059,79.471 147.38,81.424 148.02,83.409C148.661,85.393 149.587,86.842 150.797,87.756C152.008,88.67 153.325,89.127 154.747,89.127C156.559,89.127 158.075,88.409 159.294,86.971C160.512,85.534 161.122,83.323 161.122,80.338C161.122,77.854 160.758,75.709 160.032,73.905C159.305,72.1 158.38,70.826 157.255,70.084C156.13,69.342 154.887,68.971 153.528,68.971C151.606,68.971 150.047,69.666 148.852,71.057C147.657,72.448 147.059,74.612 147.059,77.549Z" style="fill-rule:nonzero;"/>
    </g>
    <g transform="matrix(1.28887,0,0,1,-31.9513,-41.8976)">
        <g transform="matrix(0.775876,0,0,1,11.244,0)">
            <path d="M57.249,231.48C57.729,230.76 58.349,229.84 59.109,228.72C59.869,227.6 60.889,226.08 62.169,224.16C63.449,222.24 65.069,219.8 67.029,216.84C68.989,213.88 71.369,210.2 74.169,205.8C73.209,204.36 72.609,203.28 72.369,202.56C72.449,202.16 72.849,201.96 73.569,201.96L75.609,201.96C76.169,201.96 76.569,201.64 76.809,201C77.209,200.28 77.909,199 78.909,197.16C79.909,195.32 80.949,193.36 82.029,191.28C83.109,189.2 84.049,187.24 84.849,185.4C85.649,183.56 86.049,182.32 86.049,181.68C86.049,180.72 85.809,180.12 85.329,179.88C84.849,179.64 84.089,179.52 83.049,179.52C82.169,179.52 81.149,179.54 79.989,179.58C78.829,179.62 77.809,179.72 76.929,179.88C76.449,179.88 76.209,179.64 76.209,179.16C76.209,178.68 76.529,178.44 77.169,178.44C78.129,178.44 79.309,178.42 80.709,178.38C82.109,178.34 83.589,178.26 85.149,178.14C86.709,178.02 88.269,177.9 89.829,177.78C91.389,177.66 92.809,177.56 94.089,177.48C94.889,177.48 95.009,178 94.449,179.04C93.649,180.16 92.789,181.44 91.869,182.88C90.949,184.32 90.089,185.72 89.289,187.08C88.089,189.16 86.769,191.52 85.329,194.16C83.889,196.8 82.609,199.2 81.489,201.36C81.249,201.76 81.109,202.08 81.069,202.32C81.029,202.56 81.249,202.68 81.729,202.68C83.569,202.76 85.269,202.82 86.829,202.86C88.389,202.9 89.809,202.92 91.089,202.92C91.809,202.92 93.029,202.88 94.749,202.8C96.469,202.72 98.309,202.64 100.269,202.56C102.229,202.48 104.129,202.36 105.969,202.2C107.809,202.04 109.249,201.92 110.289,201.84C110.689,201.76 111.049,201.6 111.369,201.36C111.689,201.12 111.929,200.84 112.089,200.52C114.489,195.88 116.729,191.64 118.809,187.8C120.889,183.96 123.009,180.28 125.169,176.76C125.569,176.2 126.089,175.76 126.729,175.44C127.529,174.96 128.729,174.36 130.329,173.64C131.929,172.92 133.609,172.22 135.369,171.54C137.129,170.86 138.769,170.28 140.289,169.8C141.809,169.32 142.929,169.08 143.649,169.08C143.809,169.08 144.089,169.12 144.489,169.2C144.889,169.28 145.089,169.44 145.089,169.68C145.089,169.84 144.929,169.96 144.609,170.04C144.289,170.12 144.049,170.16 143.889,170.16C143.649,170.16 143.169,170.22 142.449,170.34C141.729,170.46 140.929,170.66 140.049,170.94C139.169,171.22 138.269,171.58 137.349,172.02C136.429,172.46 135.609,173 134.889,173.64C132.969,175.24 131.169,177.16 129.489,179.4C128.369,181 127.209,182.72 126.009,184.56C124.809,186.4 123.649,188.28 122.529,190.2C121.409,192.12 120.329,194.04 119.289,195.96C118.249,197.88 117.329,199.68 116.529,201.36C113.649,207.36 111.569,212.2 110.289,215.88C109.009,219.56 108.369,222.24 108.369,223.92C108.369,227.04 109.969,228.6 113.169,228.6C114.289,228.6 115.669,228.32 117.309,227.76C118.949,227.2 120.249,226.6 121.209,225.96C121.449,225.96 121.609,226.06 121.689,226.26C121.769,226.46 121.649,226.72 121.329,227.04C119.729,227.76 117.689,228.54 115.209,229.38C112.729,230.22 109.689,230.72 106.089,230.88C104.729,230.8 103.729,230.36 103.089,229.56C102.449,228.76 102.129,227.72 102.129,226.44C102.129,225.08 102.369,223.64 102.849,222.12C103.649,219.8 104.549,217.46 105.549,215.1C106.549,212.74 107.489,210.64 108.369,208.8C108.689,208.16 108.849,207.48 108.849,206.76C108.849,205.64 108.249,204.88 107.049,204.48C105.849,204.08 104.689,203.88 103.569,203.88C101.649,203.88 99.609,203.92 97.449,204C95.289,204.08 93.149,204.2 91.029,204.36C88.909,204.52 86.889,204.7 84.969,204.9C83.049,205.1 81.409,205.32 80.049,205.56C79.569,205.64 79.169,205.84 78.849,206.16C78.529,206.48 78.209,206.88 77.889,207.36C76.049,210.56 74.029,213.98 71.829,217.62C69.629,221.26 67.809,224.88 66.369,228.48C66.209,228.96 66.049,229.28 65.889,229.44C65.729,229.6 65.329,229.68 64.689,229.68C63.969,229.68 63.329,229.7 62.769,229.74C62.209,229.78 61.689,229.88 61.209,230.04C60.729,230.2 60.209,230.4 59.649,230.64C59.089,230.88 58.409,231.24 57.609,231.72L57.249,231.48Z" style="fill:rgb(122,180,131);fill-rule:nonzero;stroke:black;stroke-width:1px;"/>
        </g>
        <g transform="matrix(0.775876,0,0,1,11.244,0)">
            <path d="M154.929,216.12C153.569,217.8 151.949,219.54 150.069,221.34C148.189,223.14 146.149,224.78 143.949,226.26C141.749,227.74 139.469,228.94 137.109,229.86C134.749,230.78 132.409,231.24 130.089,231.24C126.329,231.24 124.449,229.56 124.449,226.2C124.449,223.96 125.029,221.54 126.189,218.94C127.349,216.34 128.849,213.94 130.689,211.74C132.529,209.54 134.549,207.7 136.749,206.22C138.949,204.74 141.049,204 143.049,204C144.169,204 144.949,204.2 145.389,204.6C145.829,205 146.049,205.52 146.049,206.16C146.049,207.12 145.749,208.16 145.149,209.28C144.549,210.4 143.649,211.46 142.449,212.46C141.249,213.46 139.729,214.3 137.889,214.98C136.049,215.66 133.849,216 131.289,216C130.889,216.72 130.449,217.86 129.969,219.42C129.489,220.98 129.249,222.56 129.249,224.16C129.249,227.44 130.729,229.08 133.689,229.08C135.529,229.08 137.429,228.64 139.389,227.76C141.349,226.88 143.249,225.78 145.089,224.46C146.929,223.14 148.629,221.7 150.189,220.14C151.749,218.58 153.049,217.12 154.089,215.76C154.249,215.6 154.429,215.56 154.629,215.64C154.829,215.72 154.929,215.88 154.929,216.12ZM142.329,206.76C142.329,205.72 141.809,205.2 140.769,205.2C139.969,205.2 139.149,205.5 138.309,206.1C137.469,206.7 136.649,207.48 135.849,208.44C135.049,209.4 134.289,210.44 133.569,211.56C132.849,212.68 132.249,213.76 131.769,214.8C131.929,214.88 132.209,214.94 132.609,214.98C133.009,215.02 133.329,215.04 133.569,215.04C135.889,215.04 137.929,214.22 139.689,212.58C141.449,210.94 142.329,209 142.329,206.76Z" style="fill-rule:nonzero;"/>
        </g>
        <g transform="matrix(0.775876,0,0,1,11.244,0)">
            <path d="M206.169,152.16C206.169,153.28 205.729,154.92 204.849,157.08C203.969,159.24 202.709,161.74 201.069,164.58C199.429,167.42 197.429,170.46 195.069,173.7C192.709,176.94 190.029,180.16 187.029,183.36C184.029,186.56 180.729,189.62 177.129,192.54C173.529,195.46 169.689,198.04 165.609,200.28C164.889,201.56 163.889,203.28 162.609,205.44C161.329,207.6 160.069,209.88 158.829,212.28C157.589,214.68 156.509,217.04 155.589,219.36C154.669,221.68 154.209,223.64 154.209,225.24C154.209,227.8 155.369,229.08 157.689,229.08C159.689,229.08 161.769,228.52 163.929,227.4C166.089,226.28 168.149,224.92 170.109,223.32C172.069,221.72 173.909,220.02 175.629,218.22C177.349,216.42 178.809,214.8 180.009,213.36C180.569,212.8 180.889,212.66 180.969,212.94C181.049,213.22 180.929,213.52 180.609,213.84C179.169,215.6 177.469,217.48 175.509,219.48C173.549,221.48 171.469,223.32 169.269,225C167.069,226.68 164.769,228.08 162.369,229.2C159.969,230.32 157.569,230.88 155.169,230.88C153.089,230.88 151.589,230.38 150.669,229.38C149.749,228.38 149.289,227.16 149.289,225.72C149.289,224.28 149.909,222.22 151.149,219.54C152.389,216.86 153.849,214.04 155.529,211.08C157.209,208.12 158.889,205.32 160.569,202.68C162.249,200.04 163.489,198.04 164.289,196.68C165.649,194.36 167.069,191.94 168.549,189.42C170.029,186.9 171.489,184.44 172.929,182.04C174.369,179.64 175.749,177.34 177.069,175.14C178.389,172.94 179.609,171 180.729,169.32C182.089,167.24 183.489,165.28 184.929,163.44C186.369,161.6 188.209,159.76 190.449,157.92C193.489,155.36 196.289,153.4 198.849,152.04C201.409,150.68 203.129,150 204.009,150C204.649,150 205.169,150.18 205.569,150.54C205.969,150.9 206.169,151.44 206.169,152.16ZM200.769,155.28C200.769,154 200.249,153.36 199.209,153.36C198.809,153.36 198.369,153.48 197.889,153.72C197.409,153.96 196.789,154.46 196.029,155.22C195.269,155.98 194.349,157.04 193.269,158.4C192.189,159.76 190.809,161.52 189.129,163.68C188.489,164.56 187.589,165.84 186.429,167.52C185.269,169.2 183.789,171.42 181.989,174.18C180.189,176.94 178.029,180.34 175.509,184.38C172.989,188.42 170.009,193.2 166.569,198.72C171.369,196 175.869,192.7 180.069,188.82C184.269,184.94 187.889,180.96 190.929,176.88C193.969,172.8 196.369,168.84 198.129,165C199.889,161.16 200.769,157.92 200.769,155.28Z" style="fill-rule:nonzero;"/>
        </g>
        <g transform="matrix(0.775876,0,0,1,11.244,0)">
            <path d="M230.529,152.16C230.529,153.28 230.089,154.92 229.209,157.08C228.329,159.24 227.069,161.74 225.429,164.58C223.789,167.42 221.789,170.46 219.429,173.7C217.069,176.94 214.389,180.16 211.389,183.36C208.389,186.56 205.089,189.62 201.489,192.54C197.889,195.46 194.049,198.04 189.969,200.28C189.249,201.56 188.249,203.28 186.969,205.44C185.689,207.6 184.429,209.88 183.189,212.28C181.949,214.68 180.869,217.04 179.949,219.36C179.029,221.68 178.569,223.64 178.569,225.24C178.569,227.8 179.729,229.08 182.049,229.08C184.049,229.08 186.129,228.52 188.289,227.4C190.449,226.28 192.509,224.92 194.469,223.32C196.429,221.72 198.269,220.02 199.989,218.22C201.709,216.42 203.169,214.8 204.369,213.36C204.929,212.8 205.249,212.66 205.329,212.94C205.409,213.22 205.289,213.52 204.969,213.84C203.529,215.6 201.829,217.48 199.869,219.48C197.909,221.48 195.829,223.32 193.629,225C191.429,226.68 189.129,228.08 186.729,229.2C184.329,230.32 181.929,230.88 179.529,230.88C177.449,230.88 175.949,230.38 175.029,229.38C174.109,228.38 173.649,227.16 173.649,225.72C173.649,224.28 174.269,222.22 175.509,219.54C176.749,216.86 178.209,214.04 179.889,211.08C181.569,208.12 183.249,205.32 184.929,202.68C186.609,200.04 187.849,198.04 188.649,196.68C190.009,194.36 191.429,191.94 192.909,189.42C194.389,186.9 195.849,184.44 197.289,182.04C198.729,179.64 200.109,177.34 201.429,175.14C202.749,172.94 203.969,171 205.089,169.32C206.449,167.24 207.849,165.28 209.289,163.44C210.729,161.6 212.569,159.76 214.809,157.92C217.849,155.36 220.649,153.4 223.209,152.04C225.769,150.68 227.489,150 228.369,150C229.009,150 229.529,150.18 229.929,150.54C230.329,150.9 230.529,151.44 230.529,152.16ZM225.129,155.28C225.129,154 224.609,153.36 223.569,153.36C223.169,153.36 222.729,153.48 222.249,153.72C221.769,153.96 221.149,154.46 220.389,155.22C219.629,155.98 218.709,157.04 217.629,158.4C216.549,159.76 215.169,161.52 213.489,163.68C212.849,164.56 211.949,165.84 210.789,167.52C209.629,169.2 208.149,171.42 206.349,174.18C204.549,176.94 202.389,180.34 199.869,184.38C197.349,188.42 194.369,193.2 190.929,198.72C195.729,196 200.229,192.7 204.429,188.82C208.629,184.94 212.249,180.96 215.289,176.88C218.329,172.8 220.729,168.84 222.489,165C224.249,161.16 225.129,157.92 225.129,155.28Z" style="fill-rule:nonzero;"/>
        </g>
        <g transform="matrix(0.775876,0,0,1,11.244,0)">
            <path d="M237.849,210C236.489,211.84 234.829,213.5 232.869,214.98C230.909,216.46 228.689,217.2 226.209,217.2C224.849,217.2 223.509,216.86 222.189,216.18C220.869,215.5 219.809,214.48 219.009,213.12C218.449,214.4 217.729,215.86 216.849,217.5C215.969,219.14 214.929,220.78 213.729,222.42C212.529,224.06 211.189,225.56 209.709,226.92C208.229,228.28 206.649,229.4 204.969,230.28C203.529,230.92 202.329,231.24 201.369,231.24C198.489,231.24 197.049,229.96 197.049,227.4C197.049,225.96 197.309,224.48 197.829,222.96C198.349,221.44 199.009,219.96 199.809,218.52C200.609,217.08 201.469,215.72 202.389,214.44C203.309,213.16 204.169,212.12 204.969,211.32C206.649,209.48 208.569,207.92 210.729,206.64C212.889,205.36 215.209,204.6 217.689,204.36C217.849,203.72 218.089,202.98 218.409,202.14C218.729,201.3 219.289,200.8 220.089,200.64C220.489,200.56 220.889,200.48 221.289,200.4C221.689,200.32 222.049,200.2 222.369,200.04C222.609,199.88 222.849,199.86 223.089,199.98C223.329,200.1 223.369,200.32 223.209,200.64C222.649,201.52 222.229,202.64 221.949,204C221.669,205.36 221.529,206.84 221.529,208.44C221.529,210.68 221.949,212.52 222.789,213.96C223.629,215.4 225.089,216.12 227.169,216.12C229.249,216.12 231.129,215.44 232.809,214.08C234.489,212.72 235.889,211.24 237.009,209.64C237.169,209.24 237.429,209.12 237.789,209.28C238.149,209.44 238.169,209.68 237.849,210ZM218.049,210.84C217.889,210.12 217.769,209.28 217.689,208.32C217.609,207.36 217.569,206.44 217.569,205.56C217.569,205.16 217.409,204.96 217.089,204.96C216.209,204.96 215.289,205.26 214.329,205.86C213.369,206.46 212.409,207.26 211.449,208.26C210.489,209.26 209.529,210.4 208.569,211.68C207.609,212.96 206.729,214.28 205.929,215.64C204.889,217.4 203.949,219.3 203.109,221.34C202.269,223.38 201.889,225.32 201.969,227.16C201.969,227.72 202.069,228.24 202.269,228.72C202.469,229.2 202.929,229.44 203.649,229.44C205.009,229.44 206.489,228.68 208.089,227.16C209.689,225.64 211.209,223.86 212.649,221.82C214.089,219.78 215.309,217.72 216.309,215.64C217.309,213.56 217.889,211.96 218.049,210.84Z" style="fill-rule:nonzero;"/>
        </g>
    </g>
    <path d="M39.789,219.165C39.789,219.165 42.932,222.396 51.317,218.453C59.702,214.511 43.196,256.934 39.789,266.805C36.383,276.676 37.579,289.797 28.7,277.063C19.822,264.329 39.789,257.67 39.789,257.67C39.789,257.67 49.521,247.571 57.359,250.395C65.197,253.218 71.072,245.001 78.391,218.824C85.711,192.647 105.063,206.722 93.578,212.863" style="fill:none;stroke:black;stroke-width:1px;stroke-linecap:round;stroke-miterlimit:1.5;"/>
    <path d="M70.102,242.937C70.102,242.937 48.073,287.682 61.781,282.33C75.488,276.977 90.104,262.254 97.137,264.214C104.169,266.173 122.391,239.897 97.137,242.937C71.883,245.977 80.994,261.949 88.887,266.305C96.78,270.66 98.604,276.206 116.307,277.287C134.009,278.368 163.591,242.384 160.691,220.231C157.791,198.078 110.432,274.919 150,276.63C189.568,278.342 206.064,236.336 194.981,219.776C183.898,203.217 159.688,279.738 195.434,276.199C231.181,272.66 246.014,271.648 247.517,252.453C248.52,239.652 238.757,231.912 231.928,230.966C225.099,230.019 216.259,236.952 215.123,250.548C213.711,267.437 222.798,271.936 234.203,265.944" style="fill:none;stroke:black;stroke-width:1px;stroke-linecap:round;stroke-miterlimit:1.5;"/>
</svg>
