<svg viewBox="0 0 250 170" xmlns="http://www.w3.org/2000/svg">
  <g fill="none" stroke="black" stroke-width="0.1">
    <path d="M120 115 L200 35" />
    <path d="M120.83774272929966 114.9999999878153 L199.99561354924097 35.26666617283978" />
    <path d="M121.67539359066856 114.99999980504485 L199.98245467798765 35.53332938272483" />
    <path d="M122.51286072625027 114.99999901303956 L199.96052482925853 35.79998666673333" />
    <path d="M123.35005229833597 114.99999688071765 L199.92982640790868 36.066635062009325" />
    <path d="M124.1868764994355 114.99999238456462 L199.8903627803659 36.3332716057956" />
    <path d="M125.02324156234506 114.99998420863348 L199.84213827426174 36.599893335466646" />
    <path d="M125.85905577021053 114.99997074454478 L199.78515817795665 36.86649728856153" />
    <path d="M126.69422746658523 114.99995009148714 L199.71942873996034 37.13308050281686" />
    <path d="M127.52866506548115 114.99992005621766 L199.6449571682464 37.399640016199655" />
    <path d="M128.36227706141227 114.99987815306301 L199.56175162946187 37.666172866940286" />
    <path d="M129.19497203942933 114.99982160392058 L199.46982124803174 37.93267609356539" />
    <path d="M130.02665868514435 114.99974733826033 L199.36917610515823 38.199146734930736" />
    <path d="M130.85724579474436 114.99965199312724 L199.25982723771548 38.46558183025416" />
    <path d="M131.68664228499293 114.99953191314452 L199.14178663703905 38.731978419148454" />
    <path d="M132.51475720321847 114.99938315051764 L199.01506724761103 38.99833354165427" />
    <path d="M133.3414997372882 114.99920146503953 L198.8796829656404 39.26464423827297" />
    <path d="M134.16677922556667 114.99898232409693 L198.73564863753936 39.530907549999576" />
    <path d="M134.99050516685796 114.99872090267816 L198.5829800582951 39.79712051835557" />
    <path d="M135.81258723033008 114.99841208338255 L198.42169396973776 40.063280185421824" />
    <path d="M136.63293526542074 114.99805045643159 L198.25180805870446 40.32938359387144" />
    <path d="M137.4514593117234 114.99763031968212 L198.0733409550998 40.59542778700262" />
    <path d="M138.26806960885244 114.9971456786418 L197.88631222985282 40.86140980877151" />
    <path d="M139.08267660628647 114.99659024648716 L197.6907423927709 41.127326703825055" />
    <path d="M139.8951909731884 114.99595744408414 L197.4866528902905 41.39317551753382" />
    <path d="M140.70552360820164 114.99524040001198 L197.27406610312545 41.65895329602482" />
    <path d="M141.51358564922126 114.99443195059017 L197.05300534381266 41.92465708621438" />
    <path d="M142.31928848313834 114.9935246399091 L196.82349485415546 42.19028393584088" />
    <path d="M143.12254375555773 114.99251071986461 L196.5855598025654 42.455830893497634" />
    <path d="M143.92326338048693 114.99138215019669 L196.33922628130216 42.72129500866561" />
    <path d="M144.72135954999578 114.99013059853284 L196.0845213036123 42.98667333174625" />
    <path d="M145.5167447438456 114.98874744043621 L195.82147280076686 43.251962914094264" />
    <path d="M146.30933173908664 114.98722375945901 L195.55010961899848 43.51716080805036" />
    <path d="M147.0990336196233 114.98555034720162 L195.27046151633803 43.78226406697399" />
    <path d="M147.8857637857452 114.98371770337758 L194.98255915935133 44.04726974527611" />
    <path d="M148.669435963624 114.98171603588506 L194.68643411977615 44.312174898451914" />
    <path d="M149.44996421477424 114.97953526088497 L194.38211887106013 44.57697658311355" />
    <path d="M150.22726294547738 114.97716500288658 L194.06964678479957 44.84167185702279" />
    <path d="M151.00124691616824 114.97459459484035 L193.74905212708003 45.10625777912375" />
    <path d="M151.77183125078244 114.97181307823925 L193.4203700547185 45.37073140957559" />
    <path d="M152.538931446064 114.96880920322835 L193.08363661140805 45.63508980978513" />
    <path d="M153.30246338083208 114.96557142872354 L192.73888872376548 45.89933004243952" />
    <path d="M154.0623433252058 114.96208792253962 L192.38616419728157 46.16344917153892" />
    <path d="M154.8184879497862 114.95834656152853 L192.02550171217547 46.427444262429034" />
    <path d="M155.5708143347942 114.95433493172789 L191.65694081915302 46.6913123818338" />
    <path d="M156.31923997916374 114.95004032852056 L191.28052193506943 46.95505059788793" />
    <path d="M157.06368280958893 114.94544975680586 L190.8962863384972 47.21865598016954" />
    <path d="M157.8040611895243 114.94054993118264 L190.50427616519937 47.48212559973262" />
    <path d="M158.54029392813723 114.93532727614516 L190.1045344035091 47.74545652913968" />
    <path d="M159.27230028921127 114.92976792629194 L189.69710488961516 48.008645842494204" />
    <path d="M160 114.92385772654862 L189.2820323027551 48.271690615473204" />
    <path d="M160.7233132600297 114.91758223240492 L188.8593621603155 48.53458792535968" />
    <path d="M161.44216074985042 114.91092671016668 L188.42914081284053 48.79733485107512" />
    <path d="M162.1564636397342 114.90387613722342 L187.9914154389491 49.05992847321194" />
    <path d="M162.86614359831972 114.89641520233218 L187.5462340401612 49.32236587406594" />
    <path d="M163.57112280120216 114.88852830591796 L187.09364543563393 49.584644137668676" />
    <path d="M164.27132393946752 114.88019956039184 L186.63369925680797 49.84676034981993" />
    <path d="M164.96667022817044 114.87141279048721 L186.16644594196495 50.108711598120045" />
    <path d="M165.65708541475453 114.86215153361468 L185.69193673069634 50.37049497200229" />
    <path d="M166.3424937874143 114.85239904023659 L185.21022365828435 50.6321075627652" />
    <path d="M167.02282018339787 114.84213827426173 L184.72135954999578 50.8935464636049" />
    <path d="M167.69798999724927 114.83135191346086 L184.22539801528916 51.1548087696474" />
    <path d="M168.36792918899 114.82002234990397 L183.7223934419357 51.4158915779809" />
    <path d="M169.0325642922381 114.80813169041974 L183.21240099005524 51.67679198768796" />
    <path d="M169.69182242226483 114.79566175707829 L182.69547658606717 51.937507099877855" />
    <path d="M170.34563128398702 114.78259408769762 L182.17167691655766 52.19803401771867" />
    <path d="M170.99391917989516 114.76890993637473 L181.64105942206314 52.458369846469544" />
    <path d="M171.63661501791603 114.75459027404222 L181.1036822907714 52.71851169351286" />
    <path d="M172.27364831920843 114.73961578905089 L180.55960445214052 52.97845666838631" />
    <path d="M172.90494922589215 114.72396688777955 L180.00888557043675 53.238201882815076" />
    <path d="M173.53044850870867 114.70762369527252 L179.45158603819152 53.49774445074388" />
    <path d="M174.15007757461285 114.69056605590569 L178.88776696957876 53.75708148836911" />
    <path d="M174.7637684742951 114.67277353408224 L178.31749019371293 54.01621011417077" />
    <path d="M175.37145390963255 114.65422541495849 L177.74081824786896 54.27512744894457" />
    <path d="M175.97306724106923 114.634900705201 L177.15781437062427 54.53383061583392" />
    <path d="M176.5685424949238 114.61477813377576 L176.5685424949238 54.792316740361834" />
    <path d="M177.15781437062427 114.59383615277011 L175.97306724106923 55.050582950462925" />
    <path d="M177.74081824786896 114.57205293824873 L175.37145390963255 55.30862637651529" />
    <path d="M178.31749019371293 114.54940639114409 L174.7637684742951 55.56644415137241" />
    <path d="M178.88776696957876 114.52587413818267 L174.15007757461285 55.82403341039499" />
    <path d="M179.45158603819152 114.50143353284771 L173.53044850870867 56.0813912914828" />
    <path d="M180.00888557043677 114.47606165637929 L172.90494922589215 56.33851493510649" />
    <path d="M180.55960445214052 114.44973531881301 L172.27364831920843 56.59540148433932" />
    <path d="M181.10368229077136 114.42243106005793 L171.63661501791606 56.852048084888935" />
    <path d="M181.64105942206314 114.39412515101486 L170.99391917989516 57.1084518851291" />
    <path d="M182.17167691655766 114.36479359473593 L170.34563128398702 57.364610036131324" />
    <path d="M182.69547658606717 114.33441212762641 L169.6918224222648 57.620519691696565" />
    <path d="M183.21240099005522 114.30295622068992 L169.03256429223813 57.876178008386844" />
    <path d="M183.7223934419357 114.27040108081778 L168.36792918899 58.13158214555683" />
    <path d="M184.22539801528916 114.23672165212365 L167.69798999724927 58.38672926538539" />
    <path d="M184.72135954999578 114.2018926173246 L167.02282018339787 58.641616532907165" />
    <path d="M185.21022365828435 114.16588839916929 L166.3424937874143 58.896241116044024" />
    <path d="M185.6919367306963 114.12868316191467 L165.65708541475453 59.15060018563655" />
    <path d="M186.16644594196495 114.09025081285208 L164.96667022817044 59.404690915475484" />
    <path d="M186.63369925680797 114.05056500388365 L164.27132393946752 59.65851048233309" />
    <path d="M187.0936454356339 114.00959913315046 L163.5711228012022 59.912056065994584" />
    <path d="M187.5462340401612 113.96732634671308 L162.86614359831972 60.16532484928942" />
    <path d="M187.9914154389491 113.92371954028583 L162.15646363973423 60.41831401812261" />
    <path d="M188.42914081284053 113.87875136102588 L161.44216074985042 60.67102076150599" />
    <path d="M188.8593621603155 113.83239420937804 L160.7233132600297 60.923442271589465" />
    <path d="M189.28203230275508 113.78462024097664 L160 61.17557574369218" />
    <path d="M189.69710488961516 113.73540136860535 L159.27230028921127 61.427418376333705" />
    <path d="M190.1045344035091 113.68470926421617 L158.5402939281372 61.67896737126515" />
    <path d="M190.50427616519937 113.63251536100873 L157.80406118952433 61.93021993350028" />
    <path d="M190.8962863384972 113.57879085557103 L157.06368280958895 62.18117327134655" />
    <path d="M191.28052193506943 113.5235067100826 L156.31923997916374 62.43182459643611" />
    <path d="M191.65694081915302 113.46663365458144 L155.5708143347942 62.68217112375682" />
    <path d="M192.02550171217547 113.40814218929576 L154.8184879497862 62.932210071683166" />
    <path d="M192.38616419728157 113.3480025870416 L154.0623433252058 63.1819386620072" />
    <path d="M192.73888872376548 113.2861848956877 L153.30246338083208 63.43135411996937" />
    <path d="M193.08363661140805 113.2226589406885 L152.53893144606403 63.680453674289375" />
    <path d="M193.4203700547185 113.15739432768675 L151.77183125078244 63.92923455719696" />
    <path d="M193.74905212708003 113.09036044518658 L151.00124691616824 64.17769400446264" />
    <path d="M194.06964678479957 113.02152646729837 L150.22726294547738 64.42582925542845" />
    <path d="M194.3821188710601 112.95086135655666 L149.44996421477424 64.67363755303862" />
    <path d="M194.68643411977615 112.87833386681208 L148.669435963624 64.92111614387014" />
    <path d="M194.9825591593513 112.80391254619865 L147.8857637857452 65.16826227816344" />
    <path d="M195.27046151633803 112.72756574017752 L147.09903361962333 65.41507320985292" />
    <path d="M195.55010961899848 112.64926159465848 L146.30933173908667 65.66154619659741" />
    <path d="M195.82147280076686 112.56896805920017 L145.5167447438456 65.90767849981074" />
    <path d="M196.0845213036123 112.48665289029049 L144.72135954999578 66.15346738469205" />
    <path d="M196.33922628130216 112.40228365470816 L143.92326338048693 66.39891012025623" />
    <path d="M196.5855598025654 112.31582773296674 L143.12254375555773 66.64400397936437" />
    <path d="M196.82349485415546 112.22725232284226 L142.31928848313837 66.88874623875384" />
    <path d="M197.05300534381266 112.13652444298562 L141.51358564922126 67.13313417906872" />
    <path d="M197.27406610312545 112.04361093662102 L140.70552360820164 67.37716508488998" />
    <path d="M197.4866528902905 111.94847847533157 L139.8951909731884 67.62083624476561" />
    <path d="M197.6907423927709 111.8510935629333 L139.08267660628647 67.8641449512408" />
    <path d="M197.88631222985282 111.75142253943855 L138.26806960885244 68.10708850088798" />
    <path d="M198.07334095509978 111.64943158511038 L137.45145931172343 68.34966419433687" />
    <path d="M198.25180805870446 111.5450867246086 L136.63293526542074 68.59186933630446" />
    <path d="M198.42169396973776 111.43835383122914 L135.8125872303301 68.83370123562504" />
    <path d="M198.5829800582951 111.32919863123747 L134.990505166858 69.07515720527996" />
    <path d="M198.73564863753936 111.21758670829767 L134.16677922556667 69.31623456242762" />
    <path d="M198.87968296564037 111.10348350799782 L133.3414997372882 69.5569306284332" />
    <path d="M199.01506724761103 110.9868543424734 L132.51475720321847 69.79724272889842" />
    <path d="M199.14178663703905 110.86766439512951 L131.68664228499293 70.03716819369131" />
    <path d="M199.25982723771548 110.74587872546299 L130.85724579474436 70.27670435697586" />
    <path d="M199.36917610515823 110.62146227398601 L130.02665868514435 70.51584855724158" />
    <path d="M199.46982124803174 110.4943798672518 L129.19497203942933 70.75459813733318" />
    <path d="M199.56175162946187 110.36459622298374 L128.36227706141227 70.99295044447997" />
    <path d="M199.6449571682464 110.23207595530933 L127.52866506548116 71.23090283032546" />
    <path d="M199.71942873996034 110.09678358009951 L126.69422746658525 71.46845265095669" />
    <path d="M199.78515817795665 109.95868352041487 L125.85905577021053 71.70559726693367" />
    <path d="M199.84213827426174 109.81774011205977 L125.02324156234508 71.94233404331862" />
    <path d="M199.8903627803659 109.6739176092453 L124.18687649943551 72.17866034970541" />
    <path d="M199.92982640790868 109.52718019036227 L123.35005229833597 72.41457356024856" />
    <path d="M199.96052482925853 109.37749196386525 L122.51286072625027 72.65007105369264" />
    <path d="M199.98245467798765 109.22481697426862 L121.67539359066856 72.88515021340126" />
    <path d="M199.99561354924097 109.0691192082559 L120.83774272929966 73.11980842738615" />
    <path d="M200 108.91036260090294 L120 73.35404308833624" />
    <path d="M199.99561354924097 108.74851104201655 L119.16225727070035 73.5878515936466" />
    <path d="M199.98245467798765 108.58352838258884 L118.32460640933145 73.82123134544739" />
    <path d="M199.96052482925853 108.41537844136907 L117.48713927374973 74.0541797506326" />
    <path d="M199.92982640790868 108.24402501155306 L116.64994770166405 74.28669422088905" />
    <path d="M199.8903627803659 108.06943186759183 L115.81312350056449 74.518772172725" />
    <path d="M199.84213827426174 107.89156277212 L114.97675843765492 74.75041102749894" />
    <path d="M199.78515817795665 107.71038148300494 L114.14094422978948 74.98160821144819" />
    <path d="M199.71942873996034 107.52585176051754 L113.30577253341477 75.21236115571753" />
    <path d="M199.6449571682464 107.33793737462531 L112.47133493451885 75.44266729638775" />
    <path d="M199.56175162946187 107.1466021124091 L111.63772293858773 75.6725240745041" />
    <path d="M199.46982124803174 106.9518097856035 L110.80502796057068 75.9019289361047" />
    <path d="M199.3691761051582 106.75352423826243 L109.97334131485565 76.13087933224905" />
    <path d="M199.25982723771548 106.55170935455031 L109.14275420525566 76.35937271904619" />
    <path d="M199.14178663703905 106.34632906665945 L108.31335771500707 76.58740655768308" />
    <path d="M199.015067247611 106.13734736285475 L107.48524279678152 76.81497831445273" />
    <path d="M198.8796829656404 105.92472829564603 L106.65850026271183 77.04208546078243" />
    <path d="M198.73564863753936 105.7084359900888 L105.83322077443334 77.26872547326174" />
    <path d="M198.5829800582951 105.48843465221412 L105.00949483314201 77.49489583367067" />
    <path d="M198.42169396973776 105.26468857758806 L104.1874127696699 77.72059402900753" />
    <path d="M198.25180805870446 105.03716216000143 L103.36706473457927 77.94581755151691" />
    <path d="M198.0733409550998 104.80581990029017 L102.54854068827662 78.17056389871753" />
    <path d="M197.88631222985282 104.57062641528714 L101.73193039114754 78.39483057343011" />
    <path d="M197.6907423927709 104.33154644690548 L100.91732339371354 78.61861508380498" />
    <path d="M197.4866528902905 104.08854487135417 L100.10480902681164 78.84191494334988" />
    <path d="M197.27406610312545 103.84158670848632 L99.29447639179833 79.06472767095758" />
    <path d="M197.05300534381266 103.59063713128013 L98.48641435077874 79.28705079093339" />
    <path d="M196.82349485415546 103.3356614754533 L97.68071151686166 79.5088818330227" />
    <path d="M196.5855598025654 103.07662524921093 L96.87745624444226 79.73021833243845" />
    <path d="M196.33922628130216 102.81349414312722 L96.07673661951307 79.95105782988847" />
    <path d="M196.0845213036123 102.54623404016121 L95.27864045000422 80.17139787160284" />
    <path d="M195.82147280076686 102.27481102580674 L94.4832552561544 80.39123600936112" />
    <path d="M195.55010961899848 101.99919139837667 L93.69066826091334 80.61056980051964" />
    <path d="M195.27046151633803 101.71934167942159 L92.90096638037669 80.8293968080385" />
    <path d="M194.98255915935133 101.43522862428287 L92.1142362142548 81.04771460050877" />
    <path d="M194.68643411977615 101.14681923278036 L91.33056403637597 81.26552075217944" />
    <path d="M194.38211887106013 100.85408076003426 L90.55003578522576 81.4828128429844" />
    <path d="M194.0696467847996 100.55698072742159 L89.77273705452265 81.69958845856934" />
    <path d="M193.74905212708003 100.25548693366648 L88.99875308383176 81.91584519031849" />
    <path d="M193.4203700547185 99.94956746606485 L88.22816874921756 82.13158063538157" />
    <path d="M193.08363661140808 99.63919071184245 L87.461068553936 82.34679239670024" />
    <path d="M192.73888872376548 99.32432536964663 L86.69753661916792 82.56147808303494" />
    <path d="M192.38616419728157 99.00494046117112 L85.93765667479418 82.77563530899137" />
    <path d="M192.02550171217547 98.6810053429134 L85.18151205021381 82.98926169504699" />
    <path d="M191.65694081915302 98.3524897180645 L84.42918566520582 83.2023548675775" />
    <path d="M191.28052193506943 98.01936364853047 L83.68076002083626 83.41491245888317" />
    <path d="M190.8962863384972 97.68159756708499 L82.93631719041107 83.62693210721517" />
    <path d="M190.50427616519937 97.33916228965259 L82.19593881047568 83.8384114568018" />
    <path d="M190.1045344035091 96.99202902772163 L81.45970607186277 84.0493481578747" />
    <path d="M189.69710488961516 96.64016940088652 L80.72769971078873 84.25973986669491" />
    <path d="M189.2820323027551 96.28355544951825 L80.00000000000001 84.46958424557896" />
    <path d="M188.8593621603155 95.92215964756217 L79.2766867399703 84.67887896292478" />
    <path d="M188.42914081284053 95.55595491546259 L78.5578392501496 84.88762169323765" />
    <path d="M187.9914154389491 95.18491463321263 L77.8435363602658 85.09581011715608" />
    <path d="M187.5462340401612 94.80901265352855 L77.13385640168025 85.30344192147749" />
    <path d="M187.09364543563393 94.42822331514763 L76.42887719879784 85.51051479918395" />
    <path d="M186.63369925680797 94.04252145624781 L75.72867606053248 85.71702644946785" />
    <path d="M186.16644594196498 93.65188242798843 L75.03332977182957 85.92297457775743" />
    <path d="M185.69193673069634 93.2562821081703 L74.34291458524547 86.12835689574227" />
    <path d="M185.21022365828435 92.85569691501414 L73.6575062125857 86.33317112139872" />
    <path d="M184.72135954999578 92.45010382105511 L72.97717981660216 86.53741497901528" />
    <path d="M184.22539801528916 92.03948036715296 L72.30201000275073 86.74108619921785" />
    <path d="M183.7223934419357 91.62380467661515 L71.63207081101001 86.94418251899496" />
    <path d="M183.21240099005524 91.20305546943185 L70.9674357077619 87.14670168172293" />
    <path d="M182.69547658606717 90.77721207662069 L70.30817757773518 87.34864143719093" />
    <path d="M182.1716769165577 90.34625445467984 L69.65436871601301 87.54999954162598" />
    <path d="M181.64105942206314 89.91016320014673 L69.00608082010481 87.75077375771785" />
    <path d="M181.10368229077136 89.46891956426107 L68.36338498208394 87.95096185464402" />
    <path d="M180.55960445214052 89.02250546772984 L67.72635168079157 88.15056160809434" />
    <path d="M180.00888557043677 88.57090351559174 L67.09505077410786 88.34957080029582" />
    <path d="M179.45158603819155 88.11409701217934 L66.46955149129137 88.54798722003729" />
    <path d="M178.88776696957876 87.65206997617611 L65.84992242538715 88.74580866269389" />
    <path d="M178.3174901937129 87.18480715576621 L65.23623152570491 88.9430329302516" />
    <path d="M177.740818247869 86.71229404387418 L64.62854609036746 89.13965783133173" />
    <path d="M177.15781437062427 86.2345168934921 L64.02693275893077 89.3356811812152" />
    <path d="M176.5685424949238 85.75146273309164 L63.4314575050762 89.53110080186673" />
    <path d="M175.97306724106926 85.26311938211764 L62.84218562937575 89.72591452195928" />
    <path d="M175.37145390963255 84.76947546656092 L62.25918175213103 89.92012017689794" />
    <path d="M174.7637684742951 84.27052043460708 L61.682509806287094 90.1137156088441" />
    <path d="M174.15007757461285 83.76624457235786 L61.11223303042125 90.30669866673941" />
    <path d="M173.53044850870864 83.25663901962258 L60.54841396180845 90.49906720632963" />
    <path d="M172.90494922589215 82.74169578577572 L59.99111442956324 90.69081909018854" />
    <path d="M172.27364831920846 82.22140776567744 L59.440395547859495 90.88195218774162" />
    <path d="M171.63661501791609 81.69576875565382 L58.89631770922865 91.07246437528974" />
    <path d="M170.9939191798952 81.16477346953282 L58.35894057793687 91.2623535360328" />
    <path d="M170.345631283987 80.6284175547327 L57.82832308344233 91.4516175600932" />
    <path d="M169.69182242226483 80.08669760839857 L57.30452341393282 91.64025434453924" />
    <path d="M169.0325642922381 79.53961119358368 L56.78759900994477 91.82826179340863" />
    <path d="M168.36792918899 78.98715685547143 L56.277606558064306 92.01563781773162" />
    <path d="M167.6979899972493 78.42933413763332 L55.774601984710856 92.20238033555432" />
    <path d="M167.02282018339787 77.86614359831972 L55.27864045000422 92.38848727196182" />
    <path d="M166.3424937874143 77.29758682677834 L54.78977634171565 92.57395655910115" />
    <path d="M165.65708541475453 76.72366645959606 L54.30806326930367 92.75878613620435" />
    <path d="M164.96667022817044 76.14438619705993 L53.83355405803505 92.9429739496114" />
    <path d="M164.27132393946752 75.55975081953272 L53.36630074319204 93.12651795279291" />
    <path d="M163.5711228012022 74.96976620383762 L52.90635456436608 93.30941610637294" />
    <path d="M162.86614359831975 74.3744393396482 L52.45376595983882 93.49166637815166" />
    <path d="M162.15646363973423 73.77377834587772 L52.008584561050895 93.67326674312798" />
    <path d="M161.44216074985042 73.16779248706369 L51.57085918715947 93.85421518352189" />
    <path d="M160.72331326002973 72.55649218974153 L51.140637839684516 94.03450968879702" />
    <path d="M160 71.93988905880272 L50.7179676972449 94.21414825568297" />
    <path d="M159.27230028921127 71.31799589383178 L50.30289511038485 94.3931288881975" />
    <path d="M158.54029392813726 70.69082670541647 L49.89546559649092 94.57144959766875" />
    <path d="M157.80406118952433 70.05839673142587 L49.49572383480063 94.74910840275734" />
    <path d="M157.06368280958893 69.4207224532503 L49.10371366150282 94.9261033294784" />
    <path d="M156.31923997916374 68.77782161199724 L48.71947806493057 95.10243241122342" />
    <path d="M155.5708143347942 68.12971322463747 L48.343059180846964 95.2780936887822" />
    <path d="M154.8184879497862 67.4764176000954 L47.97449828782452 95.4530852103646" />
    <path d="M154.06234332520583 66.81795635527678 L47.613835802718455 95.62740503162216" />
    <path d="M153.30246338083208 66.15435243102826 L47.261111276234516 95.80105121566976" />
    <path d="M152.538931446064 65.48563010802192 L46.91636338859192 95.97402183310717" />
    <path d="M151.77183125078244 64.81181502255833 L46.57962994528151 96.1463149620404" />
    <path d="M151.00124691616824 64.13293418228126 L46.250947872919966 96.31792868810314" />
    <path d="M150.22726294547738 63.44901598179771 L45.93035321520043 96.48886110447796" />
    <path d="M149.44996421477424 62.76009021819597 L45.6178811289399 96.65911031191754" />
    <path d="M148.66943596362404 62.066188106454824 L45.31356588022388 96.8286744187658" />
    <path d="M147.8857637857452 61.367342294736794 L45.01744084064869 96.99755154097883" />
    <path d="M147.0990336196233 60.66358687955825 L44.72953848366197 97.16573980214591" />
    <path d="M146.30933173908667 59.95495742082877 L44.449890381001524 97.33323733351031" />
    <path d="M145.5167447438456 59.24149095675257 L44.17852719923316 97.50004227399006" />
    <path d="M144.7213595499958 58.52322601858431 L43.91547869638772 97.66615277019866" />
    <path d="M143.92326338048696 57.80020264523166 L43.660773718697854 97.83156697646565" />
    <path d="M143.12254375555773 57.072462397696405 L43.414440197434615 97.99628305485709" />
    <path d="M142.31928848313834 56.34004837334691 L43.17650514584456 98.16029917519603" />
    <path d="M141.51358564922126 55.60300522001331 L42.94699465618736 98.32361351508283" />
    <path d="M140.70552360820167 54.86137914989732 L42.72593389687455 98.48622425991536" />
    <path d="M139.8951909731884 54.11521795328885 L42.513347109709514 98.64812960290928" />
    <path d="M139.0826766062865 53.36457101208067 L42.30925760722913 98.80932774511798" />
    <path d="M138.26806960885247 52.609489313072636 L42.11368777014718 98.96981689545265" />
    <path d="M137.4514593117234 51.85002546105714 L41.926659044900205 99.12959527070217" />
    <path d="M136.63293526542074 51.086233691677165 L41.748191941295545 99.2886610955529" />
    <path d="M135.8125872303301 50.318169884047535 L41.578306030262254 99.44701260260841" />
    <path d="M134.99050516685801 49.545891573131335 L41.41701994170491 99.60464803240913" />
    <path d="M134.16677922556667 48.76945796186193 L41.264351362460644 99.76156563345197" />
    <path d="M133.34149973728822 47.98892993300169 L41.120317034359616 99.91776366220955" />
    <path d="M132.51475720321847 47.204370060728095 L40.984932752388985 100.0732403831499" />
    <path d="M131.68664228499293 46.41584262193815 L40.85821336296094 100.22799406875546" />
    <path d="M130.85724579474436 45.62341360726155 L40.740172762284516 100.38202299954244" />
    <path d="M130.02665868514435 44.82715073177314 L40.63082389484178 100.53532546407986" />
    <path d="M129.19497203942933 44.02712344539519 L40.53017875196828 100.68789975900857" />
    <path d="M128.3622770614123 43.22340294297975 L40.43824837053813 100.83974418906021" />
    <path d="M127.52866506548115 42.41606217406121 L40.35504283175359 100.990857067076" />
    <path d="M126.69422746658522 41.60517585226956 L40.28057126003965 101.14123671402552" />
    <path d="M125.85905577021053 40.790820464394145 L40.214841822043354 101.29088145902534" />
    <path d="M125.02324156234509 39.973074279087925 L40.15786172573827 101.43978963935764" />
    <path d="M124.18687649943554 39.152017355202275 L40.109637219634095 101.58795960048857" />
    <path d="M123.35005229833598 38.32773154974223 L40.07017359209132 101.7353896960868" />
    <path d="M122.51286072625025 37.500300525431705 L40.03947517074147 101.88207828804164" />
    <path d="M121.67539359066856 36.66980975787845 L40.01754532201235 102.02802374648137" />
    <path d="M120.83774272929966 35.83634654232856 L40.00438645075903 102.17322444979129" />
  </g>
</svg>