<svg viewBox="0 0 300 300" xmlns="http://www.w3.org/2000/svg">
  <g fill="none" stroke="black" stroke-width="0.2">
    <path d="M53.32 56.79 L55.33 56.83 L57.34 56.870000000000005 L60.53 56.85 L62.58 56.81 L64.63 56.76 L63.06 58.33 L60.54 61.04 L60.49 63.36 L60.46 65.44 L60.43 67.5 L60.43 70 L62.46 71.3 L64.55 71.35000000000001 L66.58 71.38 L68.61 71.39 L70.63 71.4 L73.73 71.4 L75.76 71.37 L77.8 71.32000000000001 L79.81 71.24 L79.81 69.22 L79.8 65.96000000000001 L79.77 63.9 L79.72 61.870000000000005 L79.57000000000001 59.75 L76.51 58.29 L77.19 56.81 L79.23 56.86 L81.26 56.89 L84.10000000000001 56.86 L86.15 56.82 L88.16 56.77 L86.87 58.33 L84.32000000000001 61.04 L84.27 63.36 L84.25 65.44 L84.22 67.5 L84.22 70.04 L84.22 72.11 L84.22 74.17 L84.22 76.23 L84.22 78.29 L84.23 80.86 L84.26 82.91 L84.31 84.92 L84.44 87.04 L87.5 88.52 L86.81 89.98 L84.77 89.92 L82.76 89.88 L79.43 89.89 L77.4 89.95 L75.39 90.05 L77.15 88.49 L79.69 85.77 L79.74 83.44 L79.77 81.37 L79.8 79.32000000000001 L79.81 76.8 L79.81 74.77 L77.79 73.45 L75.72 73.41 L73.65 73.38 L71.58 73.36 L67.79 73.36 L65.74 73.38 L63.68 73.42 L61.660000000000004 73.46000000000001 L60.43 75.52 L60.43 77.55 L60.44 80.86 L60.46 82.91 L60.5 84.92 L60.65 87.04 L63.7 88.52 L63.050000000000004 89.95 L61.03 89.88 L58.980000000000004 89.85000000000001 L56.53 89.87 L54.5 89.92 L52.47 90 L53.33 88.49 L55.870000000000005 85.77 L55.92 83.44 L55.95 81.37 L55.97 79.32000000000001 L55.980000000000004 76.77 L55.980000000000004 74.71000000000001 L55.980000000000004 72.65 L55.980000000000004 70.59 L55.980000000000004 68.52 L55.97 65.96000000000001 L55.95 63.9 L55.910000000000004 61.870000000000005 L55.75 59.75 L52.7 58.29" />
    <path d="M108.33 89.14 L105.79 90.13 L103.18 90.59 L100.16 90.47 L98.2 90.01 L94.89 88.2 L93.49 86.73 L91.9 83.63 L91.45 81.64 L91.3 79.60000000000001 L91.41 77.44 L91.78 75.45 L92.81 72.75 L95.23 70.10000000000001 L97.56 68.65 L100.58 67.57000000000001 L102.58 67.37 L104.68 67.56 L106.63 68.18 L109.02 69.76 L110.26 71.34 L111.19 73.74 L111.48 75.77 L109.42 78.4 L106.36 78.63 L104.33 78.69 L101.29 78.69 L99.26 78.69 L97.23 78.69 L95.94 80.71000000000001 L96.37 82.71000000000001 L98.13 85.76 L99.72 87.01 L101.9 87.88 L103.88 88.16 L106.09 87.94 L108.81 86.92 L97.83 76.96000000000001 L100.29 77.04 L102.29 77.09 L105.10000000000001 77.08 L107.10000000000001 76.99 L107.07000000000001 74.07000000000001 L106.58 72.13 L104.12 69.45 L102.15 68.96000000000001 L99.7 69.26 L97.98 70.28 L96.44 72.60000000000001 L95.95 74.58 L95.8 76.60000000000001" />
    <path d="M116.29 88.7 L118.05 84.43 L118.10000000000001 82.38 L118.14 80.37 L118.16 77.7 L118.16 75.66 L118.16 73.62 L118.16 71.58 L118.15 67.97 L118.12 65.96000000000001 L118.07000000000001 63.92 L117.92 59.910000000000004 L115.39 58.31 L116.14 56.64 L118.18 56.28 L120.16 55.79 L122.2 58.800000000000004 L122.16 60.81 L122.13 62.82 L122.09 65.94 L122.07000000000001 69.65 L122.07000000000001 71.72 L122.07000000000001 73.79 L122.07000000000001 75.85000000000001 L122.07000000000001 77.92 L122.11 81.76 L122.15 83.8 L122.19 85.81 L125.34 88.71000000000001 L123.92 89.96000000000001 L121.91 89.89 L118.32000000000001 89.9 L116.27 89.97" />
    <path d="M130.26 88.7 L132.02 84.43 L132.07 82.38 L132.11 80.37 L132.12 77.7 L132.12 75.66 L132.12 73.62 L132.12 71.58 L132.12 67.97 L132.09 65.96000000000001 L132.04 63.92 L131.88 59.910000000000004 L129.35 58.31 L130.11 56.64 L132.15 56.28 L134.13 55.79 L136.17000000000002 58.800000000000004 L136.13 60.81 L136.1 62.82 L136.06 65.94 L136.04 69.65 L136.04 71.72 L136.04 73.79 L136.04 75.85000000000001 L136.04 77.92 L136.08 81.76 L136.12 83.8 L136.16 85.81 L139.31 88.71000000000001 L137.89000000000001 89.96000000000001 L135.88 89.89 L132.29 89.9 L130.24 89.97" />
    <path d="M142.76 77.26 L143.19 75.3 L143.95000000000002 73.43 L145.04 71.75 L147.53 69.41 L149.35 68.4 L151.29 67.76 L153.3 67.44 L156.61 67.55 L158.59 68.02 L160.45000000000002 68.87 L162.1 70.07000000000001 L163.85 72.08 L164.8 73.88 L165.38 75.79 L165.62 77.8 L165.5 80.48 L165.05 82.44 L164.26 84.34 L162.89000000000001 86.43 L161.47 87.87 L159.83 89.02 L157.69 90.02 L155.72 90.55 L153.70000000000002 90.78 L151.11 90.64 L149.17000000000002 90.14 L146.8 88.82000000000001 L144.31 85.95 L143.05 82.8 L142.70000000000002 80.82000000000001 L147.17000000000002 79.57000000000001 L147.51 81.57000000000001 L148.79 85.29 L149.94 86.97 L152.57 88.74 L154.57 89.12 L156.73 88.79 L158.48 87.78 L160.32 85.23 L160.88 83.26 L161.1 81.21000000000001 L161.03 78.33 L160.74 76.29 L160.19 74.34 L159.11 72.07000000000001 L157.81 70.5 L155.44 69.23 L151.54 69.25 L149.73 70.2 L147.81 72.8 L147.27 74.74 L147.07 76.77" />
    <path d="M44.83 187.89000000000001 L46.67 185.15 L47.81 183.46 L49.72 180.58 L50.83 178.9 L51.96 177.21 L53.07 175.55 L54.63 173.17000000000002 L55.74 171.46 L56.870000000000005 169.72 L57.980000000000004 168.02 L59.06 166.33 L60.2 164.55 L59.54 162.17000000000002 L62.03 160.05 L64.22 157.31 L65.21000000000001 155.52 L66.33 153.45000000000002 L67.29 151.62 L68.24 149.8 L69.41 147.53 L70.28 145.70000000000002 L71.14 143.83 L72.04 141.62 L69.79 137.62 L67.47 137.64000000000001 L64.43 137.81 L65.61 136.5 L69.17 136.39000000000001 L71.21000000000001 136.25 L73.60000000000001 136.08 L75.61 135.93 L78.28 135.72 L80.29 135.59 L79.75 138.77 L78.63 140.46 L77.24 142.68 L76.2 144.4 L74.74 146.92000000000002 L73.71000000000001 148.71 L72.74 150.47 L71.77 152.25 L70.8 154.03 L69.85000000000001 155.81 L68.88 157.65 L67.92 159.46 L70.21000000000001 160.86 L72.22 160.93 L75.29 160.99 L77.3 161 L79.56 160.96 L83.2 160.8 L85.2 160.71 L88.75 160.55 L90.8 160.42000000000002 L94.43 160.12 L96.44 159.96 L99.46000000000001 156.83 L100.43 154.93 L101.4 153.11 L102.34 151.31 L103.34 149.46 L104.31 147.65 L106.25 144.05 L107.25 142.25 L108.28 140.47 L109.29 138.71 L110.32000000000001 136.99 L111.41 135.17000000000002 L113.13 133.55 L114.97 132.58 L118.63 130.92000000000002 L120.51 130.15 L123.72 128.92000000000002 L125.62 128.25 L128.68 127.35000000000001 L126.94 128.9 L124.62 129.74 L122.06 131.15 L119.81 133.09 L118.37 134.55 L117.05 136.05 L114.77 139.17000000000002 L113.62 140.87 L112.52 142.53 L111.34 144.37 L110.26 146.12 L109.21000000000001 147.89000000000001 L107.94 150.08 L106.94 151.87 L105.94 153.65 L104.76 155.86 L103.86 157.65 L102.96000000000001 159.46 L102.05 161.39000000000001 L101.19 163.24 L100.3 165.17000000000002 L99.43 167.15 L98.64 168.99 L97.89 170.87 L97.14 172.83 L96.07000000000001 175.96 L95.51 177.9 L95.04 179.87 L94.81 181.9 L95.10000000000001 184.05 L96.27 185.74 L98.11 186.55 L101.61 186.46 L103.55 185.92000000000002 L105.63 185.12 L107.42 184.21 L105.86 185.93 L103.96000000000001 186.65 L102.02 187.34 L99.69 188.03 L97.69 188.45000000000002 L95.62 188.74 L93.60000000000001 188.92000000000002 L90.59 188.49 L88.69 185.81 L88.73 182.52 L89.2 180.52 L89.98 178.25 L90.7 176.37 L91.46000000000001 174.46 L92.78 171.33 L93.61 169.46 L94.47 167.62 L95.28 164.93 L94.41 163.02 L91.54 162.09 L88 161.99 L85.99 162.02 L83.95 162.09 L81.88 162.18 L79.83 162.28 L77.79 162.43 L75.47 162.61 L73.46000000000001 162.78 L71.46000000000001 162.99 L69.4 163.22 L67.38 163.5 L63.32 167.20000000000002 L62.28 168.99 L61.25 170.72 L60.2 172.49 L59.120000000000005 174.3 L57.25 177.46 L56.22 179.3 L55.25 181.15 L54.35 182.99 L53.52 184.84 L44.31 189.65" />
    <path d="M140.07 175.74 L138.69 177.24 L137.29 178.68 L135.01 180.8 L133.45 182.11 L131.82 183.34 L128.65 185.45000000000002 L126.9 186.43 L125.03 187.33 L121.65 188.59 L119.68 189.05 L117.64 189.3 L114.49000000000001 189.12 L112.59 188.3 L111.33 186.71 L110.89 184.68 L111.05 182.22 L111.47 180.21 L112.12 178.27 L113.52 175.20000000000002 L114.54 173.43 L115.66 171.72 L116.91 170.09 L118.49000000000001 168.3 L119.96000000000001 166.86 L121.51 165.53 L123.13000000000001 164.36 L124.94 163.27 L126.85000000000001 162.5 L128.82 162.12 L131.48 162.45000000000002 L132.1 166.22 L130.44 169.03 L128.99 170.46 L127.26 171.70000000000002 L125.45 172.62 L122.38 173.64000000000001 L120.36 173.96 L118.33 174.08 L116.93 175.96 L115.94 179.49 L115.7 181.49 L115.93 184.25 L116.88 186.03 L118.67 187.02 L122.13 186.99 L124.14 186.5 L127.64 184.96 L129.4 183.96 L131.09 182.87 L133.14000000000001 181.33 L134.69 180.05 L136.2 178.65 L138.05 176.77 L139.41 175.22 L127.47 163.3 L125.28 163.86 L123.21000000000001 165.52 L121.06 168.12 L118.96000000000001 171.4 L122.03 172.9 L123.94 172.21 L125.64 171.09 L127.47 169.12 L128.39000000000001 167.27 L128.75 165.24" />
    <path d="M192.3 112.27 L191.65 114.24000000000001 L190.47 117.07000000000001 L189.57 118.9 L188.63 120.68 L187.6 122.51 L186.49 124.4 L185.37 126.18 L184.24 127.9 L183.09 129.59 L181.86 131.3 L180.28 133.44 L179 135.09 L177.65 136.74 L176.34 138.27 L174.97 139.81 L173.55 141.36 L172.01 142.97 L170.5 144.47 L169.04 145.87 L167.55 147.24 L166 148.59 L164.43 149.93 L161.94 151.93 L160.27 153.17000000000002 L158.56 154.37 L156.82 155.52 L155.06 156.62 L153.26 157.68 L151.05 160.12 L150.03 161.87 L148.02 165.3 L147.03 167.06 L146.06 168.87 L144.36 172.17000000000002 L143.49 174.02 L142.69 175.84 L141.35 179.37 L140.85 181.36 L140.99 185.34 L142.35 186.83 L146.13 186.99 L148.13 186.46 L149.99 185.68 L152.15 184.49 L153.91 183.39000000000001 L155.54 182.21 L158.11 180.09 L159.62 178.74 L161.08 177.33 L163.46 174.84 L164.79 173.36 L166.11 171.84 L165.74 173.49 L164.39000000000001 174.99 L162.98 176.5 L160.52 178.99 L159.04 180.33 L157.47 181.70000000000002 L155.85 182.99 L154.05 184.3 L152.33 185.4 L150.59 186.4 L146.93 188.05 L144.99 188.59 L142.97 188.9 L139.58 188.77 L137.74 188 L136.05 185.74 L136.02 181.78 L136.64000000000001 179.87 L137.4 178.02 L138.47 175.75 L139.4 173.93 L140.34 172.15 L141.32 170.31 L142.97 167.42000000000002 L144.04 165.61 L145.09 163.84 L146.16 162.14000000000001 L148.1 159.05 L149.17000000000002 157.36 L150.22 155.62 L151.77 153.02 L152.81 151.21 L153.85 149.46 L154.91 147.67000000000002 L156 145.78 L157.06 143.99 L158.11 142.24 L159.15 140.49 L160.43 138.34 L161.49 136.61 L162.54 134.84 L164.55 131.5 L165.64000000000001 129.77 L166.72 128.08 L168.32 125.7 L169.49 124.02 L170.73 122.37 L172.68 119.99000000000001 L174.1 118.49000000000001 L175.59 117.12 L178.5 114.68 L180.16 113.41 L181.85 112.21000000000001 L183.57 111.12 L187.11 109.21000000000001 L188.98 108.41 L186.34 111.57000000000001 L182.74 113.04 L181.09 114.8 L179.81 116.37 L178.46 118.07000000000001 L177.22 119.65 L175.97 121.26 L174.38 123.43 L173.24 125.07000000000001 L171.74 127.26 L170.61 128.94 L169.48 130.68 L167.31 134 L166.23 135.69 L165.13 137.4 L164.06 139.12 L162.98 140.81 L160.87 144.21 L159.73 146.03 L158.62 147.81 L157.55 149.52 L156.45000000000002 151.28 L155.3 153.12 L154.23 154.86 L153.12 156.65 L154.87 155.71 L156.69 154.58 L158.48 153.37 L160.11 152.20000000000002 L161.73 150.97 L163.3 149.71 L164.85 148.4 L166.38 147.02 L168 145.5 L169.43 144.09 L170.94 142.56 L172.37 141.02 L173.75 139.46 L175.07 137.9 L176.35 136.31 L178.6 133.27 L179.77 131.58 L180.87 129.9 L181.95000000000002 128.12 L182.95000000000002 126.35000000000001 L183.9 124.48 L185.39000000000001 121.18 L186.1 119.27 L186.67000000000002 117.29 L187.07 115.29" />
    <path d="M216.65 112.27 L216.02 114.24000000000001 L214.83 117.07000000000001 L213.93 118.9 L212.98000000000002 120.68 L211.97 122.51 L210.85 124.4 L209.72 126.18 L208.6 127.9 L207.44 129.59 L206.22 131.3 L204.63 133.44 L203.35 135.09 L202 136.74 L200.69 138.27 L199.33 139.81 L197.91 141.36 L196.36 142.97 L194.86 144.47 L193.41 145.87 L191.9 147.24 L190.37 148.59 L188.78 149.93 L186.29 151.93 L184.62 153.17000000000002 L182.92000000000002 154.37 L181.19 155.52 L179.43 156.62 L177.63 157.68 L175.41 160.12 L174.38 161.87 L172.37 165.3 L171.4 167.06 L170.42000000000002 168.87 L168.73 172.17000000000002 L167.86 174.02 L167.04 175.84 L165.71 179.37 L165.20000000000002 181.36 L165.34 185.34 L166.72 186.83 L170.5 186.99 L172.5 186.46 L174.34 185.68 L176.52 184.49 L178.26 183.39000000000001 L179.91 182.21 L182.47 180.09 L183.97 178.74 L185.44 177.33 L187.81 174.84 L189.16 173.36 L190.47 171.84 L190.09 173.49 L188.74 174.99 L187.35 176.5 L184.87 178.99 L183.41 180.33 L181.82 181.70000000000002 L180.21 182.99 L178.41 184.3 L176.69 185.4 L174.96 186.4 L171.29 188.05 L169.35 188.59 L167.34 188.9 L163.95000000000002 188.77 L162.09 188 L160.41 185.74 L160.39000000000001 181.78 L161.01 179.87 L161.77 178.02 L162.84 175.75 L163.75 173.93 L164.69 172.15 L165.68 170.31 L167.34 167.42000000000002 L168.39000000000001 165.61 L169.46 163.84 L170.52 162.14000000000001 L172.46 159.05 L173.53 157.36 L174.58 155.62 L176.13 153.02 L177.18 151.21 L178.21 149.46 L179.26 147.67000000000002 L180.36 145.78 L181.43 143.99 L182.47 142.24 L183.51 140.49 L184.79 138.34 L185.84 136.61 L186.91 134.84 L188.91 131.5 L189.99 129.77 L191.09 128.08 L192.69 125.7 L193.86 124.02 L195.08 122.37 L197.04 119.99000000000001 L198.47 118.49000000000001 L199.96 117.12 L202.86 114.68 L204.53 113.41 L206.22 112.21000000000001 L207.92000000000002 111.12 L211.48000000000002 109.21000000000001 L213.35 108.41 L210.69 111.57000000000001 L207.09 113.04 L205.46 114.8 L204.17000000000002 116.37 L202.83 118.07000000000001 L201.58 119.65 L200.33 121.26 L198.74 123.43 L197.6 125.07000000000001 L196.1 127.26 L194.97 128.94 L193.83 130.68 L191.67000000000002 134 L190.58 135.69 L189.5 137.4 L188.42000000000002 139.12 L187.35 140.81 L185.23 144.21 L184.09 146.03 L182.98 147.81 L181.92000000000002 149.52 L180.81 151.28 L179.67000000000002 153.12 L178.59 154.86 L177.48 156.65 L179.22 155.71 L181.05 154.58 L182.85 153.37 L184.48 152.20000000000002 L186.08 150.97 L187.67000000000002 149.71 L189.22 148.4 L190.75 147.02 L192.35 145.5 L193.79 144.09 L195.29 142.56 L196.74 141.02 L198.12 139.46 L199.44 137.9 L200.71 136.31 L202.97 133.27 L204.14000000000001 131.58 L205.22 129.9 L206.3 128.12 L207.3 126.35000000000001 L208.26 124.48 L209.75 121.18 L210.45000000000002 119.27 L211.03 117.29 L211.42000000000002 115.29" />
    <path d="M223.04 169.65 L221.62 171.11 L220.11 172.43 L217.61 174.14000000000001 L215.71 174.87 L213.67000000000002 175.24 L210.62 175.03 L208.75 174.33 L206.98000000000002 173.12 L205.67000000000002 171.56 L204.6 173.05 L203.67000000000002 174.87 L202.28 177.37 L201.17000000000002 179.08 L198.94 182.08 L197.57 183.62 L194.6 186.31 L192.95000000000002 187.49 L189.5 189.08 L185.8 189.05 L184.14000000000001 187.9 L183.51 185.93 L183.65 183.47 L184.13 181.5 L185 179.15 L185.87 177.3 L187.26 174.87 L188.36 173.18 L190.06 170.92000000000002 L191.41 169.4 L192.83 167.99 L194.35 166.68 L195.97 165.49 L198.95000000000002 163.8 L200.88 163.09 L202.87 162.62 L204.73000000000002 160.52 L206.26 158.8 L208.79 160.58 L208.09 164.08 L207.98000000000002 166.11 L208.09 168.55 L208.55 170.55 L210.65 173.5 L212.6 174.15 L215.6 173.99 L217.53 173.3 L219.24 172.18 L220.77 170.83 L222.18 169.37 L223.42000000000002 167.77 L204.18 166.95000000000002 L204.01 164.4 L201.57 163.52 L199.16 165.15 L196.53 167.86 L195.27 169.43 L193.85 171.4 L192.73000000000002 173.12 L191.37 175.52 L190.47 177.33 L189.65 179.18 L188.88 181.36 L188.49 183.33 L192.05 187.05 L193.73000000000002 185.96 L195.94 183.81 L197.28 182.28 L198.53 180.70000000000002 L200.24 178.20000000000002 L201.31 176.46 L202.28 174.67000000000002 L203.58 171.89000000000001 L204.25 169.99" />
    <path d="M41.6 220.1 L43.63 220.4 L45.800000000000004 220.25 L47.89 219.77 L49.86 219.08 L53.32 218.9 L53.660000000000004 221.02 L53.47 223.39000000000001 L53.07 225.8 L52.6 227.96 L52.02 230.31 L51.34 232.81 L50.78 234.76 L50.18 236.77 L49.54 238.81 L48.88 240.89000000000001 L48.19 242.98000000000002 L47.49 245.08 L46.78 247.17000000000002 L46.07 249.23000000000002 L45.36 251.26000000000002 L44.660000000000004 253.24 L43.980000000000004 255.16 L43.1 257.6 L42.27 259.89 L41.51 261.98 L40.68 264.28000000000003 L40 266.17 L39.13 268.91 L38.58 271.06 L38.11 273.18 L37.68 275.22 L37.21 277.37 L36.64 279.45 L35.81 281.33 L33.97 282.29 L32.06 281.14 L30.64 279.63 L29.22 277.79 L27.57 275.19 L26.75 273.08 L26.43 271.09000000000003 L26.61 268.95 L27.3 266.98 L28.39 265.2 L29.79 263.61 L31.38 262.2 L33.08 260.98 L35.01 259.82 L36.800000000000004 258.9 L38.74 258.05 L41.300000000000004 256.24 L42.86 254.94 L44.64 253.63 L46.47 252.46 L48.24 251.51000000000002 L50.1 250.72 L52.03 250.16 L54.230000000000004 249.89000000000001 L56.410000000000004 250.11 L59.43 250.88 L61.63 250.76000000000002 L63.550000000000004 250.01000000000002 L65.21000000000001 248.82 L66.65 247.36 L68.06 245.48000000000002 L69.27 243.53 L70.28 241.66 L71.29 239.56 L72.10000000000001 237.72 L72.91 235.72 L73.73 233.56 L74.55 231.25 L75.39 228.78 L76.02 226.81 L76.66 224.76 L77.3 222.61 L77.95 220.37 L79.08 216.57 L79.82000000000001 214.53 L80.62 212.69 L81.76 210.54 L82.95 208.72 L84.51 206.87 L86.10000000000001 205.47 L88.02 204.32 L90.2 203.64000000000001 L92.23 203.58 L94.25 204.14000000000001 L95.99000000000001 205.39000000000001 L97.03 207.31 L96.89 209.5 L95.76 211.26 L93.91 212.67000000000002" />
    <path d="M69.11 244.99 L68.11 247.13 L67.09 249.35 L66.18 251.37 L65.22 253.57 L64.23 255.9 L63.22 258.34000000000003 L62.47 260.21 L61.74 262.1 L61.03 264 L60.35 265.89 L59.52 268.37 L58.78 270.77 L58.17 273.05 L57.7 275.18 L57.35 277.57 L57.300000000000004 279.59000000000003 L57.82 281.67 L59.68 282.77 L61.78 282.32 L63.84 281.46 L65.91 280.46 L67.98 279.37 L70.04 278.2 L72.09 276.96 L74.13 275.68 L76.14 274.38 L78.12 273.07 L80.06 271.78000000000003 L81.96000000000001 270.52 L83.8 269.32 L85.60000000000001 268.2 L87.32000000000001 267.16 L89.31 266.08 L91.18 265.19 L93.21000000000001 264.44 L95.3 264.05 L99.26 264.09000000000003 L101.14 263.22 L102.82000000000001 262.02 L104.47 260.48 L106.04 258.68 L107.22 257.03000000000003 L108.26 255.3 L109.24000000000001 253.17000000000002 L109.87 251.04 L110.09 249.01000000000002 L109.71000000000001 246.84 L108.56 245.01 L106.86 243.8 L104.9 243.11 L102.39 242.74 L99.96000000000001 242.70000000000002 L97.88 242.85 L94.95 243.24 L92.95 243.61 L90.55 244.21 L88.45 244.9 L86.21000000000001 245.9 L84.4 247.02 L82.72 248.5 L81.41 250.37 L80.72 252.36 L80.59 254.42000000000002 L80.93 256.48 L81.67 258.51 L82.75 260.45 L84.08 262.25 L85.59 263.85 L87.22 265.22 L90.67 267.37 L92.49 268.6 L94.19 269.84000000000003 L95.88 271.07 L97.65 272.26 L99.59 273.39 L101.53 274.32 L103.47 275.06 L105.66 275.72 L107.78 276.22 L110.15 276.65000000000003 L112.35000000000001 276.94 L114.75 277.17 L118.48 277.24 L120.76 276.86 L123.11 276.16 L125.53 275.16 L127.37 274.23 L129.24 273.16 L131.11 271.94 L132.99 270.59000000000003 L134.87 269.12 L136.73 267.53000000000003 L138.58 265.84000000000003 L140.41 264.05 L142.20000000000002 262.16 L143.95000000000002 260.2 L145.66 258.16 L147.32 256.06 L148.91 253.9 L150.44 251.69 L151.89000000000001 249.44 L153.26 247.15 L154.54 244.85 L155.72 242.52 L156.8 240.19 L157.77 237.86 L158.63 235.54 L159.35 233.24 L159.95000000000002 230.96 L160.4 228.71 L160.71 226.51 L160.87 224.35 L160.86 222.26 L160.69 220.23000000000002 L160.13 218.03 L158.61 216.38 L156.42000000000002 216.48000000000002 L154.19 217.75 L152.23 219.45000000000002 L150.68 221.08 L149.09 222.98000000000002 L147.47 225.12 L145.86 227.47 L144.27 230.02 L143.24 231.8 L142.23 233.65 L141.25 235.55 L140.31 237.49 L139.41 239.48000000000002 L138.57 241.49 L137.78 243.52 L137.06 245.56 L136.41 247.61 L135.83 249.65 L135.33 251.68 L134.93 253.69 L134.62 255.67000000000002 L134.34 258.56 L134.32 261.34000000000003 L134.56 263.98 L135.1 266.44 L135.95 268.71 L137.14000000000001 270.75 L138.68 272.53000000000003 L140.6 274.03000000000003 L142.92000000000002 275.22 L145.66 276.07 L147.72 276.43 L150 276.62 L152.34 276.68 L154.63 276.63 L156.87 276.48 L159.05 276.23 L161.17000000000002 275.90000000000003 L163.23 275.47 L165.24 274.96 L167.20000000000002 274.37 L169.09 273.7 L171.83 272.56 L174.43 271.26 L176.91 269.81 L179.26 268.23 L181.47 266.52 L183.55 264.7 L185.49 262.78000000000003 L187.31 260.77 L188.98 258.68 L190.53 256.52 L191.93 254.31 L193.20000000000002 252.04 L194.33 249.75 L195.33 247.43 L196.18 245.1 L196.89000000000001 242.77 L197.47 240.45000000000002 L197.9 238.15 L198.19 235.88 L198.33 233.66 L198.34 231.49 L198.20000000000002 229.39000000000001 L197.91 227.37 L197.3 224.81 L196.43 222.44 L195.3 220.28 L193.59 218.22 L191.72 217.44 L189.75 217.81 L187.74 219.23000000000002 L186.13 221.01 L184.95000000000002 222.69 L183.8 224.63 L182.70000000000002 226.8 L181.65 229.17000000000002 L180.66 231.72 L179.76 234.41 L178.95000000000002 237.23000000000002 L178.24 240.13 L177.83 242.11 L177.47 244.1 L177.17000000000002 246.1 L176.94 248.11 L176.76 250.12 L176.64000000000001 253.09 L176.67000000000002 256.01 L176.89000000000001 258.84000000000003 L177.29 261.56 L177.9 264.14 L178.72 266.54 L179.76 268.75 L181.05 270.73 L182.58 272.45 L184.37 273.90000000000003 L186.43 275.03000000000003 L188.78 275.82 L191.42000000000002 276.25 L194.37 276.28000000000003 L197.55 275.98 L199.62 275.78000000000003 L201.64000000000001 275.58 L204.58 275.28000000000003 L207.41 274.99 L210.13 274.7 L212.74 274.41 L215.25 274.11 L217.66 273.8 L219.96 273.47 L222.16 273.13 L224.26 272.77 L226.26 272.39 L228.77 271.83 L231.11 271.23 L233.29 270.55 L235.3 269.81 L237.14000000000001 268.99 L239.22 267.84000000000003 L241.06 266.54 L242.66 265.07 L244.02 263.41 L245.16 261.56 L246.08 259.5 L246.78 257.2 L247.19 255.19 L247.46 253.02 L247.58 250.20000000000002 L247.43 248.06 L247.09 246.04 L246.46 243.82 L245.62 241.77 L244.59 239.88 L243.4 238.16 L242.07 236.62 L240.44 235.07 L238.71 233.75 L236.93 232.67000000000002 L234.93 231.75 L232.97 231.15 L229.82 230.91 L227.66 231.33 L225.71 232.1 L223.8 233.23000000000002 L222.17000000000002 234.54 L220.63 236.13 L219.39000000000001 237.75 L218.26 239.58 L217.26 241.61 L216.53 243.52 L215.93 245.58 L215.47 247.79 L215.15 250.14000000000001 L214.98000000000002 252.98000000000002 L215 255.24 L215.16 257.31 L215.54 259.56 L216.11 261.55 L217 263.55 L218.29 265.41 L219.85 266.82 L221.66 267.8 L223.69 268.34000000000003 L225.92000000000002 268.45 L228 268.21 L230.21 267.64 L232.17000000000002 266.9 L234.20000000000002 265.94" />
  </g>
</svg>